<svg version="1.1" xmlns="http://www.w3.org/2000/svg" xmlns:xlink="http://www.w3.org/1999/xlink" width="685" height="401"><defs></defs><g><g transform="translate(-554,-274) scale(1,1)"><rect fill="#ffffff" stroke="none" x="800" y="628" width="49" height="24"></rect></g><g transform="translate(-554,-274) scale(1,1)"><path fill="none" stroke="#ffffff" d="M 800 628 L 849 628 L 849 652 L 800 652 L 800 628 Z Z" stroke-miterlimit="10"></path></g><g transform="translate(-554,-274) scale(1,1)"><g><path fill="none" stroke="none"></path><text fill="#000000" stroke="none" font-family="Arial" font-size="13px" font-style="normal" font-weight="bold" text-decoration="none" x="822.5" y="647.5"> </text></g></g><g transform="translate(-554,-274) scale(1,1)"><rect fill="#e2e2e2" stroke="none" x="1085" y="406" width="115" height="24"></rect></g><g transform="translate(-554,-274) scale(1,1)"><path fill="none" stroke="#000000" d="M 1085 406 L 1200 406 L 1200 430 L 1085 430 L 1085 406 Z Z" stroke-miterlimit="10"></path></g><g transform="translate(-554,-274) scale(1,1)"><g><path fill="none" stroke="none"></path><text fill="#000000" stroke="none" font-family="Arial" font-size="13px" font-style="normal" font-weight="bold" text-decoration="none" x="1113" y="425.5">:Predicate</text></g></g><g transform="translate(-554,-274) scale(1,1)"><rect fill="#e2e2e2" stroke="none" x="1073" y="480" width="138" height="24"></rect></g><g transform="translate(-554,-274) scale(1,1)"><path fill="none" stroke="#000000" d="M 1073 480 L 1211 480 L 1211 504 L 1073 504 L 1073 480 Z Z" stroke-miterlimit="10"></path></g><g transform="translate(-554,-274) scale(1,1)"><g><path fill="none" stroke="none"></path><text fill="#000000" stroke="none" font-family="Arial" font-size="13px" font-style="normal" font-weight="bold" text-decoration="none" x="1084.5" y="499.5">:SemanticArgument</text></g></g><g transform="translate(-554,-274) scale(1,1)"><rect fill="#e2e2e2" stroke="none" x="1091" y="332" width="104" height="24"></rect></g><g transform="translate(-554,-274) scale(1,1)"><path fill="none" stroke="#000000" d="M 1091 332 L 1195 332 L 1195 356 L 1091 356 L 1091 332 Z Z" stroke-miterlimit="10"></path></g><g transform="translate(-554,-274) scale(1,1)"><g><path fill="none" stroke="none"></path><text fill="#000000" stroke="none" font-family="Arial" font-size="13px" font-style="normal" font-weight="bold" text-decoration="none" x="1099.5" y="351.5">:SemanticType</text></g></g><g transform="translate(-554,-274) scale(1,1)"><rect fill="#e2e2e2" stroke="none" x="1091" y="550" width="102" height="24"></rect></g><g transform="translate(-554,-274) scale(1,1)"><path fill="none" stroke="#000000" d="M 1091 550 L 1193 550 L 1193 574 L 1091 574 L 1091 550 Z Z" stroke-miterlimit="10"></path></g><g transform="translate(-554,-274) scale(1,1)"><g><path fill="none" stroke="none"></path><text fill="#000000" stroke="none" font-family="Arial" font-size="13px" font-style="normal" font-weight="bold" text-decoration="none" x="1099.5" y="569.5">:SemanticRole</text></g></g><g transform="translate(-554,-274) scale(1,1)"><rect fill="#ffffff" stroke="none" x="743" y="406" width="104" height="24"></rect></g><g transform="translate(-554,-274) scale(1,1)"><path fill="none" stroke="#000000" d="M 743 406 L 847 406 L 847 430 L 743 430 L 743 406 Z Z" stroke-miterlimit="10"></path></g><g transform="translate(-554,-274) scale(1,1)"><g><path fill="none" stroke="none"></path><text fill="#000000" stroke="none" font-family="Arial" font-size="13px" font-style="normal" font-weight="bold" text-decoration="none" x="752" y="425.5">ol:LexicalEntry</text></g></g><g transform="translate(-554,-274) scale(1,1)"><rect fill="#ffffff" stroke="none" x="743" y="562" width="111" height="24"></rect></g><g transform="translate(-554,-274) scale(1,1)"><path fill="none" stroke="#000000" d="M 743 562 L 854 562 L 854 586 L 743 586 L 743 562 Z Z" stroke-miterlimit="10"></path></g><g transform="translate(-554,-274) scale(1,1)"><g><path fill="none" stroke="none"></path><text fill="#000000" stroke="none" font-family="Arial" font-size="13px" font-style="normal" font-weight="bold" text-decoration="none" x="752.5" y="581.5">ol:LexicalSense</text></g></g><g transform="translate(-554,-274) scale(1,1)"><rect fill="#ffffff" stroke="none" x="564" y="406" width="127" height="24"></rect></g><g transform="translate(-554,-274) scale(1,1)"><path fill="none" stroke="#000000" d="M 564 406 L 691 406 L 691 430 L 564 430 L 564 406 Z Z" stroke-miterlimit="10"></path></g><g transform="translate(-554,-274) scale(1,1)"><g><path fill="none" stroke="none"></path><text fill="#000000" stroke="none" font-family="Arial" font-size="13px" font-style="normal" font-weight="bold" text-decoration="none" x="572.5" y="425.5">ss:SyntacticFrame</text></g></g><g transform="translate(-554,-274) scale(1,1)"><rect fill="#ffffff" stroke="none" x="564" y="478" width="150" height="24"></rect></g><g transform="translate(-554,-274) scale(1,1)"><path fill="none" stroke="#000000" d="M 564 478 L 714 478 L 714 502 L 564 502 L 564 478 Z Z" stroke-miterlimit="10"></path></g><g transform="translate(-554,-274) scale(1,1)"><g><path fill="none" stroke="none"></path><text fill="#000000" stroke="none" font-family="Arial" font-size="13px" font-style="normal" font-weight="bold" text-decoration="none" x="574.5" y="497.5">ss:SyntacticArgument</text></g></g><g transform="translate(-554,-274) scale(1,1)"><rect fill="#ffffff" stroke="none" x="564" y="562" width="85" height="24"></rect></g><g transform="translate(-554,-274) scale(1,1)"><path fill="none" stroke="#000000" d="M 564 562 L 649 562 L 649 586 L 564 586 L 564 562 Z Z" stroke-miterlimit="10"></path></g><g transform="translate(-554,-274) scale(1,1)"><g><path fill="none" stroke="none"></path><text fill="#000000" stroke="none" font-family="Arial" font-size="13px" font-style="normal" font-weight="bold" text-decoration="none" x="571" y="581.5">ss:OntoMap</text></g></g><g transform="translate(-554,-274) scale(1,1)"><rect fill="#ffffff" stroke="none" x="716" y="628" width="83" height="24"></rect></g><g transform="translate(-554,-274) scale(1,1)"><path fill="none" stroke="#000000" d="M 716 628 L 799 628 L 799 652 L 716 652 L 716 628 Z Z" stroke-miterlimit="10"></path></g><g transform="translate(-554,-274) scale(1,1)"><g><path fill="none" stroke="none"></path><text fill="#000000" stroke="none" font-family="Arial" font-size="13px" font-style="normal" font-weight="bold" text-decoration="none" x="724" y="647.5">frame class</text></g></g><g transform="translate(-554,-274) scale(1,1)"><rect fill="#ffffff" stroke="none" x="608" y="628" width="105" height="24"></rect></g><g transform="translate(-554,-274) scale(1,1)"><path fill="none" stroke="#000000" d="M 608 628 L 713 628 L 713 652 L 608 652 L 608 628 Z Z" stroke-miterlimit="10"></path></g><g transform="translate(-554,-274) scale(1,1)"><g><path fill="none" stroke="none"></path><text fill="#000000" stroke="none" font-family="Arial" font-size="13px" font-style="normal" font-weight="bold" text-decoration="none" x="619" y="647.5">frame property</text></g></g><g transform="translate(-554,-274) scale(1,1)"><path fill="none" stroke="#000000" d="M 1140 356 L 1140 406" stroke-miterlimit="10"></path></g><g transform="translate(-554,-274) scale(1,1)"><path fill="none" stroke="#000000" d="M 1144.2095177560159 366.16267485762415 L 1140 356 L 1135.7904822439841 366.16267485762415" stroke-miterlimit="10"></path></g><g transform="translate(-554,-274) scale(1,1)"><g><path fill="none" stroke="none"></path><text fill="#000000" stroke="none" font-family="Arial" font-size="13px" font-style="normal" font-weight="normal" text-decoration="none" x="1079" y="389">:semType</text></g></g><g transform="translate(-554,-274) scale(1,1)"><path fill="none" stroke="#000000" d="M 1195 340 L 1228 340 L 1228 484 L 1211 484" stroke-miterlimit="10"></path></g><g transform="translate(-554,-274) scale(1,1)"><path fill="none" stroke="#000000" d="M 1205.162674857624 335.790482243984 L 1195 340 L 1205.162674857624 344.209517756016" stroke-miterlimit="10"></path></g><g transform="translate(-554,-274) scale(1,1)"><g><path fill="none" stroke="none"></path><text fill="#000000" stroke="none" font-family="Arial" font-size="13px" font-style="normal" font-weight="normal" text-decoration="none" x="1168" y="398">:semType</text></g></g><g transform="translate(-554,-274) scale(1,1)"><path fill="none" stroke="#000000" d="M 1140 430 L 1140 480" stroke-miterlimit="10"></path></g><g transform="translate(-554,-274) scale(1,1)"><path fill="none" stroke="#000000" d="M 1135.7904822439841 469.83732514237585 L 1140 480 L 1144.2095177560159 469.83732514237585" stroke-miterlimit="10"></path></g><g transform="translate(-554,-274) scale(1,1)"><g><path fill="none" stroke="none"></path><text fill="#000000" stroke="none" font-family="Arial" font-size="13px" font-style="normal" font-weight="normal" text-decoration="none" x="1087" y="460">:semArg</text></g></g><g transform="translate(-554,-274) scale(1,1)"><path fill="none" stroke="#000000" d="M 1140 504 L 1140 550" stroke-miterlimit="10"></path></g><g transform="translate(-554,-274) scale(1,1)"><path fill="none" stroke="#000000" d="M 1135.7904822439841 539.8373251423759 L 1140 550 L 1144.2095177560159 539.8373251423759" stroke-miterlimit="10"></path></g><g transform="translate(-554,-274) scale(1,1)"><g><path fill="none" stroke="none"></path><text fill="#000000" stroke="none" font-family="Arial" font-size="13px" font-style="normal" font-weight="normal" text-decoration="none" x="1111" y="525">:role</text></g></g><g transform="translate(-554,-274) scale(1,1)"><g><path fill="none" stroke="none"></path><text fill="#000000" stroke="none" font-family="Arial" font-size="13px" font-style="normal" font-weight="normal" text-decoration="none" x="1114" y="538">0..1</text></g></g><g transform="translate(-554,-274) scale(1,1)"><path fill="none" stroke="#000000" d="M 1196 504 L 1196 512 L 1228 512 L 1228 496 L 1211 496" stroke-miterlimit="10"></path></g><g transform="translate(-554,-274) scale(1,1)"><path fill="none" stroke="#000000" d="M 1221.162674857624 491.790482243984 L 1211 496 L 1221.162674857624 500.209517756016" stroke-miterlimit="10"></path></g><g transform="translate(-554,-274) scale(1,1)"><g><path fill="none" stroke="none"></path><text fill="#000000" stroke="none" font-family="Arial" font-size="13px" font-style="normal" font-weight="normal" text-decoration="none" x="1152" y="525">:argumentRel</text></g></g><g transform="translate(-554,-274) scale(1,1)"><path fill="none" stroke="#000000" d="M 1188 430 L 1188 442 L 1220 442 L 1220 424 L 1200 424" stroke-miterlimit="10"></path></g><g transform="translate(-554,-274) scale(1,1)"><path fill="none" stroke="#000000" d="M 1210.162674857624 419.790482243984 L 1200 424 L 1210.162674857624 428.209517756016" stroke-miterlimit="10"></path></g><g transform="translate(-554,-274) scale(1,1)"><g><path fill="none" stroke="none"></path><text fill="#000000" stroke="none" font-family="Arial" font-size="13px" font-style="normal" font-weight="normal" text-decoration="none" x="1147" y="453">:predicateRel</text></g></g><g transform="translate(-554,-274) scale(1,1)"><path fill="none" stroke="#000000" d="M 992 430 L 992 574 L 854 574" stroke-miterlimit="10"></path></g><g transform="translate(-554,-274) scale(1,1)"><path fill="none" stroke="#000000" d="M 864.1626748576241 569.790482243984 L 854 574 L 864.1626748576241 578.209517756016" stroke-miterlimit="10"></path></g><g transform="translate(-554,-274) scale(1,1)"><g><path fill="none" stroke="none"></path><text fill="#000000" stroke="none" font-family="Arial" font-size="13px" font-style="normal" font-weight="normal" text-decoration="none" x="881" y="589">ol:lexicalizedSense</text></g></g><g transform="translate(-554,-274) scale(1,1)"><path fill="none" stroke="#000000" d="M 908 424 L 847 424" stroke-miterlimit="10"></path></g><g transform="translate(-554,-274) scale(1,1)"><path fill="none" stroke="#000000" d="M 897.8373251423759 428.209517756016 L 908 424 L 897.8373251423758 419.790482243984" stroke-miterlimit="10"></path></g><g transform="translate(-554,-274) scale(1,1)"><g><path fill="none" stroke="none"></path><text fill="#000000" stroke="none" font-family="Arial" font-size="13px" font-style="normal" font-weight="normal" text-decoration="none" x="851" y="421">ol:evokes</text></g></g><g transform="translate(-554,-274) scale(1,1)"><path fill="none" stroke="#000000" d="M 797 430 L 797 562" stroke-miterlimit="10"></path></g><g transform="translate(-554,-274) scale(1,1)"><path fill="none" stroke="#000000" d="M 792.790482243984 551.8373251423759 L 797 562 L 801.209517756016 551.8373251423759" stroke-miterlimit="10"></path></g><g transform="translate(-554,-274) scale(1,1)"><g><path fill="none" stroke="none"></path><text fill="#000000" stroke="none" font-family="Arial" font-size="13px" font-style="normal" font-weight="normal" text-decoration="none" x="710" y="528">ontolex:sense</text></g></g><g transform="translate(-554,-274) scale(1,1)"><g><path fill="none" stroke="none"></path><text fill="#000000" stroke="none" font-family="Arial" font-size="13px" font-style="normal" font-weight="normal" text-decoration="none" x="803" y="447">1</text></g></g><g transform="translate(-554,-274) scale(1,1)"><path fill="none" stroke="#000000" d="M 797 586 L 797 628" stroke-miterlimit="10"></path></g><g transform="translate(-554,-274) scale(1,1)"><path fill="none" stroke="#000000" d="M 792.790482243984 617.8373251423759 L 797 628 L 801.209517756016 617.8373251423759" stroke-miterlimit="10"></path></g><g transform="translate(-554,-274) scale(1,1)"><g><path fill="none" stroke="none"></path><text fill="#000000" stroke="none" font-family="Arial" font-size="13px" font-style="normal" font-weight="normal" text-decoration="none" x="803" y="605">ol:reference</text></g></g><g transform="translate(-554,-274) scale(1,1)"><g><path fill="none" stroke="none"></path><text fill="#000000" stroke="none" font-family="Arial" font-size="13px" font-style="normal" font-weight="normal" text-decoration="none" x="803" y="617">1</text></g></g><g transform="translate(-554,-274) scale(1,1)"><path fill="none" stroke="#000000" d="M 743 424 L 691 424" stroke-miterlimit="10"></path></g><g transform="translate(-554,-274) scale(1,1)"><path fill="none" stroke="#000000" d="M 701.1626748576241 419.790482243984 L 691 424 L 701.1626748576241 428.209517756016" stroke-miterlimit="10"></path></g><g transform="translate(-554,-274) scale(1,1)"><g><path fill="none" stroke="none"></path><text fill="#000000" stroke="none" font-family="Arial" font-size="13px" font-style="normal" font-weight="normal" text-decoration="none" x="631" y="445">ss:synBehavior</text></g></g><g transform="translate(-554,-274) scale(1,1)"><path fill="none" stroke="#000000" d="M 609 430 L 609 478" stroke-miterlimit="10"></path></g><g transform="translate(-554,-274) scale(1,1)"><path fill="none" stroke="#000000" d="M 604.790482243984 467.83732514237585 L 609 478 L 613.209517756016 467.83732514237585" stroke-miterlimit="10"></path></g><g transform="translate(-554,-274) scale(1,1)"><g><path fill="none" stroke="none"></path><text fill="#000000" stroke="none" font-family="Arial" font-size="13px" font-style="normal" font-weight="normal" text-decoration="none" x="615" y="469">ss:synArg</text></g></g><g transform="translate(-554,-274) scale(1,1)"><path fill="none" stroke="#000000" d="M 609 502 L 609 562" stroke-miterlimit="10"></path></g><g transform="translate(-554,-274) scale(1,1)"><path fill="none" stroke="#000000" d="M 613.209517756016 512.1626748576241 L 609 502 L 604.790482243984 512.1626748576241" stroke-miterlimit="10"></path></g><g transform="translate(-554,-274) scale(1,1)"><g><path fill="none" stroke="none"></path><text fill="#000000" stroke="none" font-family="Arial" font-size="13px" font-style="normal" font-weight="normal" text-decoration="none" x="612" y="529">ss:objOfProp</text></g></g><g transform="translate(-554,-274) scale(1,1)"><path fill="none" stroke="#000000" d="M 650 574 L 742 574" stroke-miterlimit="10"></path></g><g transform="translate(-554,-274) scale(1,1)"><path fill="none" stroke="#000000" d="M 660.1626748576241 569.790482243984 L 650 574 L 660.1626748576241 578.209517756016" stroke-miterlimit="10"></path></g><g transform="translate(-554,-274) scale(1,1)"><g><path fill="none" stroke="none"></path><text fill="#000000" stroke="none" font-family="Arial" font-size="13px" font-style="normal" font-weight="normal" text-decoration="none" x="655" y="566">ss:submap</text></g></g><g transform="translate(-554,-274) scale(1,1)"><g><path fill="none" stroke="none"></path><text fill="#000000" stroke="none" font-family="Arial" font-size="13px" font-style="normal" font-weight="normal" text-decoration="none" x="733" y="568">1</text></g></g><g transform="translate(-554,-274) scale(1,1)"><path fill="none" stroke="#000000" d="M 609 586 L 609 628" stroke-miterlimit="10"></path></g><g transform="translate(-554,-274) scale(1,1)"><path fill="none" stroke="#000000" d="M 604.790482243984 617.8373251423759 L 609 628 L 613.209517756016 617.8373251423759" stroke-miterlimit="10"></path></g><g transform="translate(-554,-274) scale(1,1)"><g><path fill="none" stroke="none"></path><text fill="#000000" stroke="none" font-family="Arial" font-size="13px" font-style="normal" font-weight="normal" text-decoration="none" x="612" y="605">ol:reference</text></g></g><g transform="translate(-554,-274) scale(1,1)"><g><path fill="none" stroke="none"></path><text fill="#000000" stroke="none" font-family="Arial" font-size="13px" font-style="normal" font-weight="normal" text-decoration="none" x="612" y="616">1</text></g></g><g transform="translate(-554,-274) scale(1,1)"><rect fill="#ffffff" stroke="none" x="724" y="332" width="58" height="24"></rect></g><g transform="translate(-554,-274) scale(1,1)"><path fill="none" stroke="#000000" d="M 724 332 L 782 332 L 782 356 L 724 356 L 724 332 Z Z" stroke-miterlimit="10"></path></g><g transform="translate(-554,-274) scale(1,1)"><g><path fill="none" stroke="none"></path><text fill="#000000" stroke="none" font-family="Arial" font-size="13px" font-style="normal" font-weight="bold" text-decoration="none" x="731" y="351.5">ol:Form</text></g></g><g transform="translate(-554,-274) scale(1,1)"><path fill="none" stroke="#000000" d="M 756 406 L 756 356" stroke-miterlimit="10"></path></g><g transform="translate(-554,-274) scale(1,1)"><path fill="none" stroke="#000000" d="M 760.209517756016 366.16267485762415 L 756 356 L 751.790482243984 366.16267485762415" stroke-miterlimit="10"></path></g><g transform="translate(-554,-274) scale(1,1)"><g><path fill="none" stroke="none"></path><text fill="#000000" stroke="none" font-family="Arial" font-size="13px" font-style="normal" font-weight="normal" text-decoration="none" x="651" y="385">ol:canonicalForm</text></g></g><g transform="translate(-554,-274) scale(1,1)"><g><path fill="none" stroke="none"></path><text fill="#000000" stroke="none" font-family="Arial" font-size="13px" font-style="normal" font-weight="normal" text-decoration="none" x="760" y="401">1</text></g></g><g transform="translate(-554,-274) scale(1,1)"><g><path fill="none" stroke="none"></path><text fill="#000000" stroke="none" font-family="Arial" font-size="13px" font-style="normal" font-weight="normal" text-decoration="none" x="744" y="374">1</text></g></g><g transform="translate(-554,-274) scale(1,1)"><rect fill="#ffffff" stroke="none" x="800" y="332" width="76" height="24"></rect></g><g transform="translate(-554,-274) scale(1,1)"><path fill="none" stroke="#000000" d="M 800 332 L 876 332 L 876 356 L 800 356 L 800 332 Z Z" stroke-miterlimit="10"></path></g><g transform="translate(-554,-274) scale(1,1)"><g><path fill="none" stroke="none"></path><text fill="#000000" stroke="none" font-family="Arial" font-size="13px" font-style="normal" font-weight="bold" text-decoration="none" x="808.5" y="351.5">ol:Lexicon</text></g></g><g transform="translate(-554,-274) scale(1,1)"><path fill="none" stroke="#000000" d="M 820 356 L 820 406" stroke-miterlimit="10"></path></g><g transform="translate(-554,-274) scale(1,1)"><path fill="none" stroke="#000000" d="M 815.790482243984 395.83732514237585 L 820 406 L 824.209517756016 395.83732514237585" stroke-miterlimit="10"></path></g><g transform="translate(-554,-274) scale(1,1)"><g><path fill="none" stroke="none"></path><text fill="#000000" stroke="none" font-family="Arial" font-size="13px" font-style="normal" font-weight="normal" text-decoration="none" x="776" y="384">ol:entry</text></g></g><g transform="translate(-554,-274) scale(1,1)"><path fill="none" stroke="#000000" d="M 1008 430 L 1008 640 L 849 640" stroke-miterlimit="10"></path></g><g transform="translate(-554,-274) scale(1,1)"><path fill="none" stroke="#000000" d="M 859.1626748576241 635.790482243984 L 849 640 L 859.1626748576241 644.209517756016" stroke-miterlimit="10"></path></g><g transform="translate(-554,-274) scale(1,1)"><g><path fill="none" stroke="none"></path><text fill="#000000" stroke="none" font-family="Arial" font-size="13px" font-style="normal" font-weight="normal" text-decoration="none" x="924" y="653">ol:isConceptOf</text></g></g><g transform="translate(-554,-274) scale(1,1)"><path fill="none" stroke="#000000" d="M 714 640 L 715 640" stroke-miterlimit="10"></path></g><g transform="translate(-554,-274) scale(1,1)"><path fill="none" stroke="#000000" d="M 704.8373251423759 644.209517756016 L 715 640 L 704.8373251423758 635.790482243984" stroke-miterlimit="10"></path></g><g transform="translate(-554,-274) scale(1,1)"><g><path fill="none" stroke="none"></path><text fill="#000000" stroke="none" font-family="Arial" font-size="13px" font-style="normal" font-weight="normal" text-decoration="none" x="682" y="647">rdfs:domain</text></g></g><g transform="translate(-554,-274) scale(1,1)"><g><path fill="none" stroke="none"></path><text fill="#000000" stroke="none" font-family="Arial" font-size="13px" font-style="normal" font-weight="normal" text-decoration="none" x="733" y="659">*</text></g></g><g transform="translate(-554,-274) scale(1,1)"><g><path fill="none" stroke="none"></path><text fill="#000000" stroke="none" font-family="Arial" font-size="13px" font-style="normal" font-weight="normal" text-decoration="none" x="691" y="659">*</text></g></g><g transform="translate(-554,-274) scale(1,1)"><path fill="none" stroke="#000000" d="M 844 406 L 844 388 L 832 388 L 832 406" stroke-miterlimit="10"></path></g><g transform="translate(-554,-274) scale(1,1)"><path fill="none" stroke="#000000" d="M 839.790482243984 395.83732514237585 L 844 406 L 848.209517756016 395.83732514237585" stroke-miterlimit="10"></path></g><g transform="translate(-554,-274) scale(1,1)"><g><path fill="none" stroke="none"></path><text fill="#000000" stroke="none" font-family="Arial" font-size="13px" font-style="normal" font-weight="normal" text-decoration="none" x="832" y="385">de:subterm</text></g></g><g transform="translate(-554,-274) scale(1,1)"><rect fill="#ffffff" stroke="none" x="908" y="406" width="124" height="24"></rect></g><g transform="translate(-554,-274) scale(1,1)"><path fill="none" stroke="#000000" d="M 908 406 L 1032 406 L 1032 430 L 908 430 L 908 406 Z Z" stroke-miterlimit="10"></path></g><g transform="translate(-554,-274) scale(1,1)"><g><path fill="none" stroke="none"></path><text fill="#000000" stroke="none" font-family="Arial" font-size="13px" font-style="normal" font-weight="bold" text-decoration="none" x="918.5" y="425.5">ol:LexicalConcept</text></g></g><g transform="translate(-554,-274) scale(1,1)"><path fill="none" stroke="#000000" d="M 1085 412 L 1032 412" stroke-miterlimit="10"></path></g><g transform="translate(-554,-274) scale(1,1)"><path fill="#FFFFFF" stroke="none" d="M 1052.3253497152482 403.580964487968 L 1032 412 L 1052.3253497152482 420.419035512032"></path></g><g transform="translate(-554,-274) scale(1,1)"><path fill="none" stroke="#000000" d="M 1052.3253497152482 403.580964487968 L 1032 412 L 1052.3253497152482 420.419035512032 L 1052.3253497152482 403.580964487968" stroke-miterlimit="10"></path></g><g transform="translate(-554,-274) scale(1,1)"><path fill="none" stroke="#000000" d="M 1180 356 L 1180 366 L 1212 366 L 1212 350 L 1195 350" stroke-miterlimit="10"></path></g><g transform="translate(-554,-274) scale(1,1)"><path fill="none" stroke="#000000" d="M 1205.162674857624 345.790482243984 L 1195 350 L 1205.162674857624 354.209517756016" stroke-miterlimit="10"></path></g><g transform="translate(-554,-274) scale(1,1)"><g><path fill="none" stroke="none"></path><text fill="#000000" stroke="none" font-family="Arial" font-size="13px" font-style="normal" font-weight="normal" text-decoration="none" x="1163" y="379">:typeRel</text></g></g><g transform="translate(-554,-274) scale(1,1)"><rect fill="#ffffff" stroke="none" x="932" y="332" width="99" height="24"></rect></g><g transform="translate(-554,-274) scale(1,1)"><path fill="none" stroke="#000000" d="M 932 332 L 1031 332 L 1031 356 L 932 356 L 932 332 Z Z" stroke-miterlimit="10"></path></g><g transform="translate(-554,-274) scale(1,1)"><g><path fill="none" stroke="none"></path><text fill="#000000" stroke="none" font-family="Arial" font-size="13px" font-style="normal" font-weight="bold" text-decoration="none" x="940.5" y="351.5">ol:ConceptSet</text></g></g><g transform="translate(-554,-274) scale(1,1)"><path fill="none" stroke="#000000" d="M 1008 406 L 1008 356" stroke-miterlimit="10"></path></g><g transform="translate(-554,-274) scale(1,1)"><path fill="none" stroke="#000000" d="M 1012.209517756016 366.16267485762415 L 1008 356 L 1003.790482243984 366.16267485762415" stroke-miterlimit="10"></path></g><g transform="translate(-554,-274) scale(1,1)"><g><path fill="none" stroke="none"></path><text fill="#000000" stroke="none" font-family="Arial" font-size="13px" font-style="normal" font-weight="normal" text-decoration="none" x="912" y="384">skos:inScheme</text></g></g><g transform="translate(-554,-274) scale(1,1)"><path fill="none" stroke="#000000" d="M 1091 346 L 1068 346 L 1068 412 L 1032 412" stroke-miterlimit="10"></path></g><g transform="translate(-554,-274) scale(1,1)"><path fill="#FFFFFF" stroke="none" d="M 1052.3253497152482 403.580964487968 L 1032 412 L 1052.3253497152482 420.419035512032"></path></g><g transform="translate(-554,-274) scale(1,1)"><path fill="none" stroke="#000000" d="M 1052.3253497152482 403.580964487968 L 1032 412 L 1052.3253497152482 420.419035512032 L 1052.3253497152482 403.580964487968" stroke-miterlimit="10"></path></g><g transform="translate(-554,-274) scale(1,1)"><path fill="none" stroke="#000000" d="M 1073 490 L 1068 490 L 1068 412 L 1032 412" stroke-miterlimit="10"></path></g><g transform="translate(-554,-274) scale(1,1)"><path fill="#FFFFFF" stroke="none" d="M 1052.3253497152482 403.580964487968 L 1032 412 L 1052.3253497152482 420.419035512032"></path></g><g transform="translate(-554,-274) scale(1,1)"><path fill="none" stroke="#000000" d="M 1052.3253497152482 403.580964487968 L 1032 412 L 1052.3253497152482 420.419035512032 L 1052.3253497152482 403.580964487968" stroke-miterlimit="10"></path></g><g transform="translate(-554,-274) scale(1,1)"><rect fill="#e2e2e2" stroke="none" x="832" y="478" width="128" height="24"></rect></g><g transform="translate(-554,-274) scale(1,1)"><path fill="none" stroke="#000000" d="M 832 478 L 960 478 L 960 502 L 832 502 L 832 478 Z Z" stroke-miterlimit="10"></path></g><g transform="translate(-554,-274) scale(1,1)"><g><path fill="none" stroke="none"></path><text fill="#000000" stroke="none" font-family="Arial" font-size="13px" font-style="normal" font-weight="bold" text-decoration="none" x="842.5" y="497.5">:Conceptualization</text></g></g><g transform="translate(-554,-274) scale(1,1)"><path fill="none" stroke="#000000" d="M 960 488 L 967 488 L 967 430" stroke-miterlimit="10"></path></g><g transform="translate(-554,-274) scale(1,1)"><path fill="none" stroke="#000000" d="M 971.209517756016 440.16267485762415 L 967 430 L 962.790482243984 440.16267485762415" stroke-miterlimit="10"></path></g><g transform="translate(-554,-274) scale(1,1)"><g><path fill="none" stroke="none"></path><text fill="#000000" stroke="none" font-family="Arial" font-size="13px" font-style="normal" font-weight="normal" text-decoration="none" x="870" y="445">:evokedConcept</text></g></g><g transform="translate(-554,-274) scale(1,1)"><g><path fill="none" stroke="none"></path><text fill="#000000" stroke="none" font-family="Arial" font-size="13px" font-style="normal" font-weight="normal" text-decoration="none" x="956" y="460">1</text></g></g><g transform="translate(-554,-274) scale(1,1)"><path fill="none" stroke="#000000" d="M 832 490 L 824 490 L 824 430" stroke-miterlimit="10"></path></g><g transform="translate(-554,-274) scale(1,1)"><path fill="none" stroke="#000000" d="M 828.209517756016 440.16267485762415 L 824 430 L 819.790482243984 440.16267485762415" stroke-miterlimit="10"></path></g><g transform="translate(-554,-274) scale(1,1)"><g><path fill="none" stroke="none"></path><text fill="#000000" stroke="none" font-family="Arial" font-size="13px" font-style="normal" font-weight="normal" text-decoration="none" x="830" y="466">:evokingEntry</text></g></g><g transform="translate(-554,-274) scale(1,1)"><g><path fill="none" stroke="none"></path><text fill="#000000" stroke="none" font-family="Arial" font-size="13px" font-style="normal" font-weight="normal" text-decoration="none" x="828" y="453">1</text></g></g><g transform="translate(-554,-274) scale(1,1)"><path fill="none" stroke="#000000" d="M 868 502 L 868 514 L 892 514 L 892 502" stroke-miterlimit="10"></path></g><g transform="translate(-554,-274) scale(1,1)"><path fill="none" stroke="#000000" d="M 896.209517756016 512.1626748576241 L 892 502 L 887.790482243984 512.1626748576241" stroke-miterlimit="10"></path></g><g transform="translate(-554,-274) scale(1,1)"><g><path fill="none" stroke="none"></path><text fill="#000000" stroke="none" font-family="Arial" font-size="13px" font-style="normal" font-weight="normal" text-decoration="none" x="831" y="526">skos:exactMatch</text></g></g><g transform="translate(-554,-274) scale(1,1)"><g><path fill="none" stroke="none"></path><text fill="#000000" stroke="none" font-family="Arial" font-size="13px" font-style="normal" font-weight="normal" text-decoration="none" x="841" y="538">/ skos:closeMatch</text></g></g><g transform="translate(-554,-274) scale(1,1)"><path fill="#ffffff" stroke="none" d="M 564 642 C 564 632.0588736 628.4709888 624 708 624 C 787.5290112 624 852 632.0588736 852 642 C 852 651.9411264 787.5290112 660 708 660 C 628.4709888 660 564 651.9411264 564 642 Z"></path></g><g transform="translate(-554,-274) scale(1,1)"><path fill="none" stroke="#000000" d="M 564 642 C 564 632.0588736 628.4709888 624 708 624 C 787.5290112 624 852 632.0588736 852 642 C 852 651.9411264 787.5290112 660 708 660 C 628.4709888 660 564 651.9411264 564 642 Z" stroke-miterlimit="10"></path></g><g transform="translate(-554,-274) scale(1,1)"><g><path fill="none" stroke="none"></path><text fill="#000000" stroke="none" font-family="Arial" font-size="13px" font-style="normal" font-weight="normal" text-decoration="none" x="657" y="646">ontological entity</text></g></g><g transform="translate(-554,-274) scale(1,1)"><rect fill="#e2e2e2" stroke="none" x="1160" y="616" width="69" height="24"></rect></g><g transform="translate(-554,-274) scale(1,1)"><path fill="none" stroke="#000000" d="M 1160 616 L 1229 616 L 1229 640 L 1160 640 L 1160 616 Z Z" stroke-miterlimit="10"></path></g><g transform="translate(-554,-274) scale(1,1)"><g><path fill="none" stroke="none"></path><text fill="#000000" stroke="none" font-family="Arial" font-size="13px" font-style="normal" font-weight="bold" text-decoration="none" x="1167" y="635.5">:Example</text></g></g><g transform="translate(-554,-274) scale(1,1)"><rect fill="#e2e2e2" stroke="none" x="1052" y="616" width="72" height="24"></rect></g><g transform="translate(-554,-274) scale(1,1)"><path fill="none" stroke="#000000" d="M 1052 616 L 1124 616 L 1124 640 L 1052 640 L 1052 616 Z Z" stroke-miterlimit="10"></path></g><g transform="translate(-554,-274) scale(1,1)"><g><path fill="none" stroke="none"></path><text fill="#000000" stroke="none" font-family="Arial" font-size="13px" font-style="normal" font-weight="bold" text-decoration="none" x="1059.5" y="635.5">:Markable</text></g></g><g transform="translate(-554,-274) scale(1,1)"><path fill="none" stroke="#000000" d="M 1124 628 L 1160 628" stroke-miterlimit="10"></path></g><g transform="translate(-554,-274) scale(1,1)"><path fill="none" stroke="#000000" d="M 1149.837325142376 632.209517756016 L 1160 628 L 1149.837325142376 623.790482243984" stroke-miterlimit="10"></path></g><g transform="translate(-554,-274) scale(1,1)"><g><path fill="none" stroke="none"></path><text fill="#000000" stroke="none" font-family="Arial" font-size="13px" font-style="normal" font-weight="normal" text-decoration="none" x="1092" y="656">nif:referenceContext</text></g></g><g transform="translate(-554,-274) scale(1,1)"><g><path fill="none" stroke="none"></path><text fill="#000000" stroke="none" font-family="Arial" font-size="13px" font-style="normal" font-weight="normal" text-decoration="none" x="1152" y="645">1</text></g></g><g transform="translate(-554,-274) scale(1,1)"><path fill="none" stroke="#000000" d="M 1056 616 L 1056 504 L 1073 504" stroke-miterlimit="10"></path></g><g transform="translate(-554,-274) scale(1,1)"><path fill="none" stroke="#000000" d="M 1062.837325142376 508.209517756016 L 1073 504 L 1062.837325142376 499.790482243984" stroke-miterlimit="10"></path></g><g transform="translate(-554,-274) scale(1,1)"><path fill="none" stroke="#000000" d="M 1056 616 L 1056 430 L 1085 430" stroke-miterlimit="10"></path></g><g transform="translate(-554,-274) scale(1,1)"><path fill="none" stroke="#000000" d="M 1074.837325142376 434.209517756016 L 1085 430 L 1074.837325142376 425.790482243984" stroke-miterlimit="10"></path></g><g transform="translate(-554,-274) scale(1,1)"><g><path fill="none" stroke="none"></path><text fill="#000000" stroke="none" font-family="Arial" font-size="13px" font-style="normal" font-weight="normal" text-decoration="none" x="1060" y="600">nif:annotation</text></g></g><g transform="translate(-554,-274) scale(1,1)"><rect fill="#ffffff" stroke="none" x="836" y="284" width="157" height="24"></rect></g><g transform="translate(-554,-274) scale(1,1)"><path fill="none" stroke="#000000" d="M 836 284 L 993 284 L 993 308 L 836 308 L 836 284 Z Z" stroke-miterlimit="10"></path></g><g transform="translate(-554,-274) scale(1,1)"><g><path fill="none" stroke="none"></path><text fill="#000000" stroke="none" font-family="Arial" font-size="13px" font-style="normal" font-weight="bold" text-decoration="none" x="848" y="303.5">li:ConceptualizationSet</text></g></g><g transform="translate(-554,-274) scale(1,1)"><path fill="none" stroke="#000000" d="M 836 296 L 820 296 L 820 332" stroke-miterlimit="10"></path></g><g transform="translate(-554,-274) scale(1,1)"><path fill="none" stroke="#000000" d="M 815.790482243984 321.83732514237585 L 820 332 L 824.209517756016 321.83732514237585" stroke-miterlimit="10"></path></g><g transform="translate(-554,-274) scale(1,1)"><g><path fill="none" stroke="none"></path><text fill="#000000" stroke="none" font-family="Arial" font-size="13px" font-style="normal" font-weight="normal" text-decoration="none" x="718" y="315">li:lexiconDataset</text></g></g><g transform="translate(-554,-274) scale(1,1)"><g><path fill="none" stroke="none"></path><text fill="#000000" stroke="none" font-family="Arial" font-size="13px" font-style="normal" font-weight="normal" text-decoration="none" x="826" y="325">1</text></g></g><g transform="translate(-554,-274) scale(1,1)"><path fill="none" stroke="#000000" d="M 993 296 L 1008 296 L 1008 332" stroke-miterlimit="10"></path></g><g transform="translate(-554,-274) scale(1,1)"><path fill="none" stroke="#000000" d="M 1003.790482243984 321.83732514237585 L 1008 332 L 1012.209517756016 321.83732514237585" stroke-miterlimit="10"></path></g><g transform="translate(-554,-274) scale(1,1)"><g><path fill="none" stroke="none"></path><text fill="#000000" stroke="none" font-family="Arial" font-size="13px" font-style="normal" font-weight="normal" text-decoration="none" x="882" y="327">li:conceptualDataset</text></g></g><g transform="translate(-554,-274) scale(1,1)"><g><path fill="none" stroke="none"></path><text fill="#000000" stroke="none" font-family="Arial" font-size="13px" font-style="normal" font-weight="normal" text-decoration="none" x="1012" y="325">1</text></g></g></g></svg>