<svg version="1.1" xmlns="http://www.w3.org/2000/svg" xmlns:xlink="http://www.w3.org/1999/xlink" width="838" height="300"><defs/><g><g transform="translate(2,-6) scale(1,1)"><rect fill="#99ffcc" stroke="none" x="584" y="88" width="136" height="24"/></g><g transform="translate(2,-6) scale(1,1)"><path fill="none" stroke="#000000" d="M 584 88 L 720 88 L 720 112 L 584 112 L 584 88 Z Z" stroke-miterlimit="10"/></g><g transform="translate(2,-6) scale(1,1)"><g><path fill="none" stroke="none"/><text fill="#000000" stroke="none" font-family="Arial" font-size="13px" font-style="normal" font-weight="bold" text-decoration="none" x="597" y="107.5">pmo:SemanticRole</text></g></g><g transform="translate(2,-6) scale(1,1)"><rect fill="#ffffff" stroke="none" x="152" y="40" width="144.52587890625" height="77"/></g><g transform="translate(2,-6) scale(1,1)"><path fill="none" stroke="#000000" d="M 152 40 L 296.52587890625 40 L 296.52587890625 117 L 152 117 L 152 40 Z Z" stroke-miterlimit="10"/></g><g transform="translate(2,-6) scale(1,1)"><path fill="none" stroke="#000000" d="M 152 65 L 296.52587890625 65" stroke-miterlimit="10"/></g><g transform="translate(2,-6) scale(1,1)"><g><path fill="none" stroke="none"/><text fill="#000000" stroke="none" font-family="Arial" font-size="13px" font-style="normal" font-weight="bold" text-decoration="none" x="165.262939453125" y="59.5">ontolex:LexicalEntry</text></g></g><g transform="translate(2,-6) scale(1,1)"><g><path fill="none" stroke="none"/><text fill="#000000" stroke="none" font-family="Arial" font-size="13px" font-style="normal" font-weight="normal" text-decoration="none" x="157" y="82.5">rdfs:label</text></g></g><g transform="translate(2,-6) scale(1,1)"><g><path fill="none" stroke="none"/><text fill="#000000" stroke="none" font-family="Arial" font-size="13px" font-style="normal" font-weight="normal" text-decoration="none" x="157" y="97.5">lexinfo:partOfSpeech</text></g></g><g transform="translate(2,-6) scale(1,1)"><g><path fill="none" stroke="none"/><text fill="#000000" stroke="none" font-family="Arial" font-size="13px" font-style="normal" font-weight="normal" text-decoration="none" x="157" y="112.5">ontolex:language</text></g></g><g transform="translate(2,-6) scale(1,1)"><rect fill="#ffffff" stroke="none" x="48" y="176" width="147.97265625" height="24"/></g><g transform="translate(2,-6) scale(1,1)"><path fill="none" stroke="#000000" d="M 48 176 L 195.97265625 176 L 195.97265625 200 L 48 200 L 48 176 Z Z" stroke-miterlimit="10"/></g><g transform="translate(2,-6) scale(1,1)"><g><path fill="none" stroke="none"/><text fill="#000000" stroke="none" font-family="Arial" font-size="13px" font-style="normal" font-weight="bold" text-decoration="none" x="59.986328125" y="195.5">ontolex:LexicalSense</text></g></g><g transform="translate(2,-6) scale(1,1)"><rect fill="#C0C0C0" stroke="none" x="127" y="255" width="9" height="24" opacity="0.2"/></g><g transform="translate(2,-6) scale(1,1)"><rect fill="#ffffff" stroke="none" x="120" y="248" width="9" height="24"/></g><g transform="translate(2,-6) scale(1,1)"><path fill="none" stroke="#000000" d="M 120 248 L 129 248 L 129 272 L 120 272 L 120 248 Z Z" stroke-miterlimit="10"/></g><g transform="translate(2,-6) scale(1,1)"><g><path fill="none" stroke="none"/><text fill="#000000" stroke="none" font-family="Arial" font-size="13px" font-style="normal" font-weight="bold" text-decoration="none" x="124.5" y="267.5"></text></g></g><g transform="translate(2,-6) scale(1,1)"><path fill="none" stroke="#000000" d="M 704 88 L 704 80 L 736 80 L 736 96 L 720 96" stroke-miterlimit="10"/></g><g transform="translate(2,-6) scale(1,1)"><path fill="none" stroke="#000000" d="M 730.1626748576241 91.79048224398402 L 720 96 L 730.1626748576241 100.20951775601598" stroke-miterlimit="10"/></g><g transform="translate(2,-6) scale(1,1)"><g><path fill="none" stroke="none"/><text fill="#000000" stroke="none" font-family="Arial" font-size="13px" font-style="normal" font-weight="normal" text-decoration="none" x="743" y="93">pmo:roleRel</text></g></g><g transform="translate(2,-6) scale(1,1)"><path fill="none" stroke="#000000" d="M 152 117 L 152 176" stroke-miterlimit="10"/></g><g transform="translate(2,-6) scale(1,1)"><path fill="none" stroke="#000000" d="M 147.790482243984 165.83732514237585 L 152 176 L 156.209517756016 165.83732514237585" stroke-miterlimit="10"/></g><g transform="translate(2,-6) scale(1,1)"><g><path fill="none" stroke="none"/><text fill="#000000" stroke="none" font-family="Arial" font-size="13px" font-style="normal" font-weight="normal" text-decoration="none" x="151" y="153">ontolex:sense</text></g></g><g transform="translate(2,-6) scale(1,1)"><g><path fill="none" stroke="none"/><text fill="#000000" stroke="none" font-family="Arial" font-size="13px" font-style="normal" font-weight="normal" text-decoration="none" x="158" y="131">1</text></g></g><g transform="translate(2,-6) scale(1,1)"><path fill="none" stroke="#000000" d="M 128 200 L 128 248" stroke-miterlimit="10"/></g><g transform="translate(2,-6) scale(1,1)"><path fill="none" stroke="#000000" d="M 123.79048224398402 237.83732514237585 L 128 248 L 132.209517756016 237.83732514237585" stroke-miterlimit="10"/></g><g transform="translate(2,-6) scale(1,1)"><g><path fill="none" stroke="none"/><text fill="#000000" stroke="none" font-family="Arial" font-size="13px" font-style="normal" font-weight="normal" text-decoration="none" x="23" y="212">ontolex:reference</text></g></g><g transform="translate(2,-6) scale(1,1)"><g><path fill="none" stroke="none"/><text fill="#000000" stroke="none" font-family="Arial" font-size="13px" font-style="normal" font-weight="normal" text-decoration="none" x="132" y="237">1</text></g></g><g transform="translate(2,-6) scale(1,1)"><rect fill="#ffffff" stroke="none" x="24" y="136" width="97.83251953125" height="24"/></g><g transform="translate(2,-6) scale(1,1)"><path fill="none" stroke="#000000" d="M 24 136 L 121.83251953125 136 L 121.83251953125 160 L 24 160 L 24 136 Z Z" stroke-miterlimit="10"/></g><g transform="translate(2,-6) scale(1,1)"><g><path fill="none" stroke="none"/><text fill="#000000" stroke="none" font-family="Arial" font-size="13px" font-style="normal" font-weight="bold" text-decoration="none" x="34.916259765625" y="155.5">ontolex:Form</text></g></g><g transform="translate(2,-6) scale(1,1)"><path fill="none" stroke="#000000" d="M 152 112 L 48 112 L 48 136" stroke-miterlimit="10"/></g><g transform="translate(2,-6) scale(1,1)"><path fill="none" stroke="#000000" d="M 43.790482243984016 125.83732514237585 L 48 136 L 52.20951775601599 125.83732514237585" stroke-miterlimit="10"/></g><g transform="translate(2,-6) scale(1,1)"><g><path fill="none" stroke="none"/><text fill="#000000" stroke="none" font-family="Arial" font-size="13px" font-style="normal" font-weight="normal" text-decoration="none" x="16" y="109">ontolex:canonicalForm</text></g></g><g transform="translate(2,-6) scale(1,1)"><g><path fill="none" stroke="none"/><text fill="#000000" stroke="none" font-family="Arial" font-size="13px" font-style="normal" font-weight="normal" text-decoration="none" x="144" y="125">1</text></g></g><g transform="translate(2,-6) scale(1,1)"><g><path fill="none" stroke="none"/><text fill="#000000" stroke="none" font-family="Arial" font-size="13px" font-style="normal" font-weight="normal" text-decoration="none" x="32" y="132">1</text></g></g><g transform="translate(2,-6) scale(1,1)"><rect fill="#ffffff" stroke="none" x="24" y="48" width="114.3935546875" height="24"/></g><g transform="translate(2,-6) scale(1,1)"><path fill="none" stroke="#000000" d="M 24 48 L 138.3935546875 48 L 138.3935546875 72 L 24 72 L 24 48 Z Z" stroke-miterlimit="10"/></g><g transform="translate(2,-6) scale(1,1)"><g><path fill="none" stroke="none"/><text fill="#000000" stroke="none" font-family="Arial" font-size="13px" font-style="normal" font-weight="bold" text-decoration="none" x="35.69677734375" y="67.5">ontolex:Lexicon</text></g></g><g transform="translate(2,-6) scale(1,1)"><path fill="none" stroke="#000000" d="M 40 72 L 40 80 L 152 80" stroke-miterlimit="10"/></g><g transform="translate(2,-6) scale(1,1)"><path fill="none" stroke="#000000" d="M 141.83732514237585 84.20951775601598 L 152 80 L 141.83732514237585 75.79048224398402" stroke-miterlimit="10"/></g><g transform="translate(2,-6) scale(1,1)"><g><path fill="none" stroke="none"/><text fill="#000000" stroke="none" font-family="Arial" font-size="13px" font-style="normal" font-weight="normal" text-decoration="none" x="32" y="94">ontolex:entry</text></g></g><g transform="translate(2,-6) scale(1,1)"><path fill="none" stroke="#000000" d="M 297 50 L 312 50 L 312 24 L 192 24 L 192 40" stroke-miterlimit="10"/></g><g transform="translate(2,-6) scale(1,1)"><path fill="none" stroke="#000000" d="M 307.16267485762415 45.790482243984016 L 297 50 L 307.16267485762415 54.209517756015984" stroke-miterlimit="10"/></g><g transform="translate(2,-6) scale(1,1)"><g><path fill="none" stroke="none"/><text fill="#000000" stroke="none" font-family="Arial" font-size="13px" font-style="normal" font-weight="normal" text-decoration="none" x="208" y="36">decomp:subterm</text></g></g><g transform="translate(2,-6) scale(1,1)"><rect fill="#ffffff" stroke="none" x="392" y="32" width="163.943359375" height="62"/></g><g transform="translate(2,-6) scale(1,1)"><path fill="none" stroke="#000000" d="M 392 32 L 555.943359375 32 L 555.943359375 94 L 392 94 L 392 32 Z Z" stroke-miterlimit="10"/></g><g transform="translate(2,-6) scale(1,1)"><path fill="none" stroke="#000000" d="M 392 57 L 555.943359375 57" stroke-miterlimit="10"/></g><g transform="translate(2,-6) scale(1,1)"><g><path fill="none" stroke="none"/><text fill="#000000" stroke="none" font-family="Arial" font-size="13px" font-style="normal" font-weight="bold" text-decoration="none" x="406.4716796875" y="51.5">ontolex:LexicalConcept</text></g></g><g transform="translate(2,-6) scale(1,1)"><g><path fill="none" stroke="none"/><text fill="#000000" stroke="none" font-family="Arial" font-size="13px" font-style="normal" font-weight="normal" text-decoration="none" x="397" y="74.5">skos:definition</text></g></g><g transform="translate(2,-6) scale(1,1)"><g><path fill="none" stroke="none"/><text fill="#000000" stroke="none" font-family="Arial" font-size="13px" font-style="normal" font-weight="normal" text-decoration="none" x="397" y="89.5">rdfs:label</text></g></g><g transform="translate(2,-6) scale(1,1)"><path fill="none" stroke="#000000" d="M 584 104 L 536 104 L 536 160" stroke-miterlimit="10"/></g><g transform="translate(2,-6) scale(1,1)"><path fill="#FFFFFF" stroke="none" d="M 527.580964487968 139.6746502847517 L 536 160 L 544.419035512032 139.6746502847517"/></g><g transform="translate(2,-6) scale(1,1)"><path fill="none" stroke="#000000" d="M 527.580964487968 139.6746502847517 L 536 160 L 544.419035512032 139.6746502847517 L 527.580964487968 139.6746502847517" stroke-miterlimit="10"/></g><g transform="translate(2,-6) scale(1,1)"><rect fill="#ffcccc" stroke="none" x="344" y="120" width="171.94970703125" height="24"/></g><g transform="translate(2,-6) scale(1,1)"><path fill="none" stroke="#000000" d="M 344 120 L 515.94970703125 120 L 515.94970703125 144 L 344 144 L 344 120 Z Z" stroke-miterlimit="10"/></g><g transform="translate(2,-6) scale(1,1)"><g><path fill="none" stroke="none"/><text fill="#000000" stroke="none" font-family="Arial" font-size="13px" font-style="normal" font-weight="bold" text-decoration="none" x="363.974853515625" y="139.5">pmo:Conceptualization</text></g></g><g transform="translate(2,-6) scale(1,1)"><path fill="none" stroke="#000000" d="M 400 120 L 400 94" stroke-miterlimit="10"/></g><g transform="translate(2,-6) scale(1,1)"><path fill="none" stroke="#000000" d="M 404.209517756016 104.16267485762415 L 400 94 L 395.790482243984 104.16267485762415" stroke-miterlimit="10"/></g><g transform="translate(2,-6) scale(1,1)"><g><path fill="none" stroke="none"/><text fill="#000000" stroke="none" font-family="Arial" font-size="13px" font-style="normal" font-weight="normal" text-decoration="none" x="407" y="107">pmo:evokedConcept</text></g></g><g transform="translate(2,-6) scale(1,1)"><g><path fill="none" stroke="none"/><text fill="#000000" stroke="none" font-family="Arial" font-size="13px" font-style="normal" font-weight="normal" text-decoration="none" x="391" y="109">1</text></g></g><g transform="translate(2,-6) scale(1,1)"><path fill="none" stroke="#000000" d="M 344 136 L 224 136 L 224 117" stroke-miterlimit="10"/></g><g transform="translate(2,-6) scale(1,1)"><path fill="none" stroke="#000000" d="M 228.209517756016 127.16267485762415 L 224 117 L 219.790482243984 127.16267485762415" stroke-miterlimit="10"/></g><g transform="translate(2,-6) scale(1,1)"><g><path fill="none" stroke="none"/><text fill="#000000" stroke="none" font-family="Arial" font-size="13px" font-style="normal" font-weight="normal" text-decoration="none" x="231" y="132">pmo:evokingEntry</text></g></g><g transform="translate(2,-6) scale(1,1)"><g><path fill="none" stroke="none"/><text fill="#000000" stroke="none" font-family="Arial" font-size="13px" font-style="normal" font-weight="normal" text-decoration="none" x="207" y="131">1</text></g></g><g transform="translate(2,-6) scale(1,1)"><path fill="#ffffff" stroke="none" d="M 32 264 C 32 255.1634432 69.60807679999999 248 116 248 C 162.3919232 248 200 255.1634432 200 264 C 200 272.8365568 162.3919232 280 116 280 C 69.60807679999999 280 32 272.8365568 32 264 Z"/></g><g transform="translate(2,-6) scale(1,1)"><path fill="none" stroke="#000000" d="M 32 264 C 32 255.1634432 69.60807679999999 248 116 248 C 162.3919232 248 200 255.1634432 200 264 C 200 272.8365568 162.3919232 280 116 280 C 69.60807679999999 280 32 272.8365568 32 264 Z" stroke-miterlimit="10"/></g><g transform="translate(2,-6) scale(1,1)"><g><path fill="none" stroke="none"/><text fill="#000000" stroke="none" font-family="Arial" font-size="13px" font-style="normal" font-weight="normal" text-decoration="none" x="69" y="266">ontological entity</text></g></g><g transform="translate(2,-6) scale(1,1)"><rect fill="#99ffcc" stroke="none" x="584" y="32" width="139.212890625" height="24"/></g><g transform="translate(2,-6) scale(1,1)"><path fill="none" stroke="#000000" d="M 584 32 L 723.212890625 32 L 723.212890625 56 L 584 56 L 584 32 Z Z" stroke-miterlimit="10"/></g><g transform="translate(2,-6) scale(1,1)"><g><path fill="none" stroke="none"/><text fill="#000000" stroke="none" font-family="Arial" font-size="13px" font-style="normal" font-weight="bold" text-decoration="none" x="595.1064453125" y="51.5">pmo:SemanticClass</text></g></g><g transform="translate(2,-6) scale(1,1)"><path fill="none" stroke="#000000" d="M 584 40 L 556 40" stroke-miterlimit="10"/></g><g transform="translate(2,-6) scale(1,1)"><path fill="#FFFFFF" stroke="none" d="M 576.3253497152483 31.580964487968025 L 556 40 L 576.3253497152483 48.419035512031975"/></g><g transform="translate(2,-6) scale(1,1)"><path fill="none" stroke="#000000" d="M 576.3253497152483 31.580964487968025 L 556 40 L 576.3253497152483 48.419035512031975 L 576.3253497152483 31.580964487968025" stroke-miterlimit="10"/></g><g transform="translate(2,-6) scale(1,1)"><path fill="none" stroke="#000000" d="M 592 56 L 592 88" stroke-miterlimit="10"/></g><g transform="translate(2,-6) scale(1,1)"><path fill="none" stroke="#000000" d="M 587.790482243984 77.83732514237585 L 592 88 L 596.209517756016 77.83732514237585" stroke-miterlimit="10"/></g><g transform="translate(2,-6) scale(1,1)"><g><path fill="none" stroke="none"/><text fill="#000000" stroke="none" font-family="Arial" font-size="13px" font-style="normal" font-weight="normal" text-decoration="none" x="598" y="81">pmo:semRole</text></g></g><g transform="translate(2,-6) scale(1,1)"><g><path fill="none" stroke="none"/><text fill="#000000" stroke="none" font-family="Arial" font-size="13px" font-style="normal" font-weight="normal" text-decoration="none" x="592" y="68">1</text></g></g><g transform="translate(2,-6) scale(1,1)"><path fill="none" stroke="#000000" d="M 696 32 L 696 24 L 736 24 L 736 40 L 723 40" stroke-miterlimit="10"/></g><g transform="translate(2,-6) scale(1,1)"><path fill="none" stroke="#000000" d="M 733.1626748576241 35.790482243984016 L 723 40 L 733.1626748576241 44.209517756015984" stroke-miterlimit="10"/></g><g transform="translate(2,-6) scale(1,1)"><g><path fill="none" stroke="none"/><text fill="#000000" stroke="none" font-family="Arial" font-size="13px" font-style="normal" font-weight="normal" text-decoration="none" x="743" y="37">pmo:classRel</text></g></g><g transform="translate(2,-6) scale(1,1)"><path fill="none" stroke="#000000" d="M 297 64 L 392 64" stroke-miterlimit="10"/></g><g transform="translate(2,-6) scale(1,1)"><path fill="none" stroke="#000000" d="M 381.83732514237585 68.20951775601598 L 392 64 L 381.83732514237585 59.790482243984016" stroke-miterlimit="10"/></g><g transform="translate(2,-6) scale(1,1)"><g><path fill="none" stroke="none"/><text fill="#000000" stroke="none" font-family="Arial" font-size="13px" font-style="normal" font-weight="normal" text-decoration="none" x="301" y="84">ontolex:evokes</text></g></g><g transform="translate(2,-6) scale(1,1)"><rect fill="#ffcccc" stroke="none" x="248" y="152" width="101.14599609375" height="24"/></g><g transform="translate(2,-6) scale(1,1)"><path fill="none" stroke="#000000" d="M 248 152 L 349.14599609375 152 L 349.14599609375 176 L 248 176 L 248 152 Z Z" stroke-miterlimit="10"/></g><g transform="translate(2,-6) scale(1,1)"><g><path fill="none" stroke="none"/><text fill="#000000" stroke="none" font-family="Arial" font-size="13px" font-style="normal" font-weight="bold" text-decoration="none" x="259.572998046875" y="171.5">pmo:Mapping</text></g></g><g transform="translate(2,-6) scale(1,1)"><rect fill="#ffffff" stroke="none" x="448" y="160" width="99.3623046875" height="24"/></g><g transform="translate(2,-6) scale(1,1)"><path fill="none" stroke="#000000" d="M 448 160 L 547.3623046875 160 L 547.3623046875 184 L 448 184 L 448 160 Z Z" stroke-miterlimit="10"/></g><g transform="translate(2,-6) scale(1,1)"><g><path fill="none" stroke="none"/><text fill="#000000" stroke="none" font-family="Arial" font-size="13px" font-style="normal" font-weight="bold" text-decoration="none" x="457.68115234375" y="179.5">skos:Concept</text></g></g><g transform="translate(2,-6) scale(1,1)"><path fill="none" stroke="#000000" d="M 536 94 L 536 160" stroke-miterlimit="10"/></g><g transform="translate(2,-6) scale(1,1)"><path fill="#FFFFFF" stroke="none" d="M 527.580964487968 139.6746502847517 L 536 160 L 544.419035512032 139.6746502847517"/></g><g transform="translate(2,-6) scale(1,1)"><path fill="none" stroke="#000000" d="M 527.580964487968 139.6746502847517 L 536 160 L 544.419035512032 139.6746502847517 L 527.580964487968 139.6746502847517" stroke-miterlimit="10"/></g><g transform="translate(2,-6) scale(1,1)"><path fill="none" stroke="#000000" d="M 516 128 L 536 128 L 536 160" stroke-miterlimit="10"/></g><g transform="translate(2,-6) scale(1,1)"><path fill="#FFFFFF" stroke="none" d="M 527.580964487968 139.6746502847517 L 536 160 L 544.419035512032 139.6746502847517"/></g><g transform="translate(2,-6) scale(1,1)"><path fill="none" stroke="#000000" d="M 527.580964487968 139.6746502847517 L 536 160 L 544.419035512032 139.6746502847517 L 527.580964487968 139.6746502847517" stroke-miterlimit="10"/></g><g transform="translate(2,-6) scale(1,1)"><path fill="none" stroke="#000000" d="M 349 168 L 448 168" stroke-miterlimit="10"/></g><g transform="translate(2,-6) scale(1,1)"><path fill="none" stroke="#000000" d="M 437.83732514237585 172.209517756016 L 448 168 L 437.83732514237585 163.790482243984" stroke-miterlimit="10"/></g><g transform="translate(2,-6) scale(1,1)"><g><path fill="none" stroke="none"/><text fill="#000000" stroke="none" font-family="Arial" font-size="13px" font-style="normal" font-weight="normal" text-decoration="none" x="371" y="180">pmo:item</text></g></g><g transform="translate(2,-6) scale(1,1)"><g><path fill="none" stroke="none"/><text fill="#000000" stroke="none" font-family="Arial" font-size="13px" font-style="normal" font-weight="normal" text-decoration="none" x="399" y="165">2..*</text></g></g><g transform="translate(2,-6) scale(1,1)"><rect fill="#ffffcc" stroke="none" x="568" y="120" width="137.64501953125" height="24"/></g><g transform="translate(2,-6) scale(1,1)"><path fill="none" stroke="#000000" d="M 568 120 L 705.64501953125 120 L 705.64501953125 144 L 568 144 L 568 120 Z Z" stroke-miterlimit="10"/></g><g transform="translate(2,-6) scale(1,1)"><g><path fill="none" stroke="none"/><text fill="#000000" stroke="none" font-family="Arial" font-size="13px" font-style="normal" font-weight="bold" text-decoration="none" x="581.322509765625" y="139.5">pmo:AnnotationSet</text></g></g><g transform="translate(2,-6) scale(1,1)"><rect fill="#ffffcc" stroke="none" x="584" y="176" width="105.9638671875" height="24"/></g><g transform="translate(2,-6) scale(1,1)"><path fill="none" stroke="#000000" d="M 584 176 L 689.9638671875 176 L 689.9638671875 200 L 584 200 L 584 176 Z Z" stroke-miterlimit="10"/></g><g transform="translate(2,-6) scale(1,1)"><g><path fill="none" stroke="none"/><text fill="#000000" stroke="none" font-family="Arial" font-size="13px" font-style="normal" font-weight="bold" text-decoration="none" x="596.98193359375" y="195.5">nif:Annotation</text></g></g><g transform="translate(2,-6) scale(1,1)"><path fill="none" stroke="#000000" d="M 616 144 L 616 176" stroke-miterlimit="10"/></g><g transform="translate(2,-6) scale(1,1)"><path fill="none" stroke="#000000" d="M 611.790482243984 165.83732514237585 L 616 176 L 620.209517756016 165.83732514237585" stroke-miterlimit="10"/></g><g transform="translate(2,-6) scale(1,1)"><g><path fill="none" stroke="none"/><text fill="#000000" stroke="none" font-family="Arial" font-size="13px" font-style="normal" font-weight="normal" text-decoration="none" x="558" y="164">pmo:item</text></g></g><g transform="translate(2,-6) scale(1,1)"><g><path fill="none" stroke="none"/><text fill="#000000" stroke="none" font-family="Arial" font-size="13px" font-style="normal" font-weight="normal" text-decoration="none" x="623" y="172">1..*</text></g></g><g transform="translate(2,-6) scale(1,1)"><g><path fill="none" stroke="none"/><text fill="#000000" stroke="none" font-family="Arial" font-size="13px" font-style="normal" font-weight="normal" text-decoration="none" x="624" y="157">1</text></g></g><g transform="translate(2,-6) scale(1,1)"><path fill="none" stroke="#000000" d="M 584 200 L 496 200 L 496 184" stroke-miterlimit="10"/></g><g transform="translate(2,-6) scale(1,1)"><path fill="none" stroke="#000000" d="M 500.209517756016 194.16267485762415 L 496 184 L 491.790482243984 194.16267485762415" stroke-miterlimit="10"/></g><g transform="translate(2,-6) scale(1,1)"><g><path fill="none" stroke="none"/><text fill="#000000" stroke="none" font-family="Arial" font-size="13px" font-style="normal" font-weight="normal" text-decoration="none" x="495" y="212">pmo:valueObj</text></g></g><g transform="translate(2,-6) scale(1,1)"><g><path fill="none" stroke="none"/><text fill="#000000" stroke="none" font-family="Arial" font-size="13px" font-style="normal" font-weight="normal" text-decoration="none" x="503" y="196">0..1</text></g></g><g transform="translate(2,-6) scale(1,1)"><rect fill="#ffffcc" stroke="none" x="720" y="248" width="104.81494140625" height="24"/></g><g transform="translate(2,-6) scale(1,1)"><path fill="none" stroke="#000000" d="M 720 248 L 824.81494140625 248 L 824.81494140625 272 L 720 272 L 720 248 Z Z" stroke-miterlimit="10"/></g><g transform="translate(2,-6) scale(1,1)"><g><path fill="none" stroke="none"/><text fill="#000000" stroke="none" font-family="Arial" font-size="13px" font-style="normal" font-weight="bold" text-decoration="none" x="731.407470703125" y="267.5">pmo:Markable</text></g></g><g transform="translate(2,-6) scale(1,1)"><rect fill="#ffffcc" stroke="none" x="496" y="224" width="99.33056640625" height="62"/></g><g transform="translate(2,-6) scale(1,1)"><path fill="none" stroke="#000000" d="M 496 224 L 595.33056640625 224 L 595.33056640625 286 L 496 286 L 496 224 Z Z" stroke-miterlimit="10"/></g><g transform="translate(2,-6) scale(1,1)"><path fill="none" stroke="#000000" d="M 496 249 L 595.33056640625 249" stroke-miterlimit="10"/></g><g transform="translate(2,-6) scale(1,1)"><g><path fill="none" stroke="none"/><text fill="#000000" stroke="none" font-family="Arial" font-size="13px" font-style="normal" font-weight="bold" text-decoration="none" x="505.665283203125" y="243.5">pmo:Example</text></g></g><g transform="translate(2,-6) scale(1,1)"><g><path fill="none" stroke="none"/><text fill="#000000" stroke="none" font-family="Arial" font-size="13px" font-style="normal" font-weight="normal" text-decoration="none" x="501" y="266.5">rdfs:comment</text></g></g><g transform="translate(2,-6) scale(1,1)"><g><path fill="none" stroke="none"/><text fill="#000000" stroke="none" font-family="Arial" font-size="13px" font-style="normal" font-weight="normal" text-decoration="none" x="501" y="281.5">dct:source</text></g></g><g transform="translate(2,-6) scale(1,1)"><path fill="none" stroke="#000000" d="M 736 176 L 690 176" stroke-miterlimit="10"/></g><g transform="translate(2,-6) scale(1,1)"><path fill="none" stroke="#000000" d="M 700.1626748576241 171.790482243984 L 690 176 L 700.1626748576241 180.209517756016" stroke-miterlimit="10"/></g><g transform="translate(2,-6) scale(1,1)"><g><path fill="none" stroke="none"/><text fill="#000000" stroke="none" font-family="Arial" font-size="13px" font-style="normal" font-weight="normal" text-decoration="none" x="655" y="171">nif:annotation</text></g></g><g transform="translate(2,-6) scale(1,1)"><g><path fill="none" stroke="none"/><text fill="#000000" stroke="none" font-family="Arial" font-size="13px" font-style="normal" font-weight="normal" text-decoration="none" x="728" y="189">1</text></g></g><g transform="translate(2,-6) scale(1,1)"><path fill="none" stroke="#000000" d="M 800 189 L 800 224 L 663 224 L 663 240" stroke-miterlimit="10"/></g><g transform="translate(2,-6) scale(1,1)"><path fill="none" stroke="#000000" d="M 658.790482243984 229.83732514237585 L 663 240 L 667.209517756016 229.83732514237585" stroke-miterlimit="10"/></g><g transform="translate(2,-6) scale(1,1)"><g><path fill="none" stroke="none"/><text fill="#000000" stroke="none" font-family="Arial" font-size="13px" font-style="normal" font-weight="normal" text-decoration="none" x="680" y="220">nif:referenceContext</text></g></g><g transform="translate(2,-6) scale(1,1)"><g><path fill="none" stroke="none"/><text fill="#000000" stroke="none" font-family="Arial" font-size="13px" font-style="normal" font-weight="normal" text-decoration="none" x="646" y="236">1</text></g></g><g transform="translate(2,-6) scale(1,1)"><rect fill="#ffffcc" stroke="none" x="736" y="112" width="90" height="77"/></g><g transform="translate(2,-6) scale(1,1)"><path fill="none" stroke="#000000" d="M 736 112 L 826 112 L 826 189 L 736 189 L 736 112 Z Z" stroke-miterlimit="10"/></g><g transform="translate(2,-6) scale(1,1)"><path fill="none" stroke="#000000" d="M 736 137 L 826 137" stroke-miterlimit="10"/></g><g transform="translate(2,-6) scale(1,1)"><g><path fill="none" stroke="none"/><text fill="#000000" stroke="none" font-family="Arial" font-size="13px" font-style="normal" font-weight="bold" text-decoration="none" x="755" y="131.5">nif:String</text></g></g><g transform="translate(2,-6) scale(1,1)"><g><path fill="none" stroke="none"/><text fill="#000000" stroke="none" font-family="Arial" font-size="13px" font-style="normal" font-weight="normal" text-decoration="none" x="741" y="154.5">nif:beginIndex</text></g></g><g transform="translate(2,-6) scale(1,1)"><g><path fill="none" stroke="none"/><text fill="#000000" stroke="none" font-family="Arial" font-size="13px" font-style="normal" font-weight="normal" text-decoration="none" x="741" y="169.5">nif:endIndex</text></g></g><g transform="translate(2,-6) scale(1,1)"><g><path fill="none" stroke="none"/><text fill="#000000" stroke="none" font-family="Arial" font-size="13px" font-style="normal" font-weight="normal" text-decoration="none" x="741" y="184.5">nif:anchorOf</text></g></g><g transform="translate(2,-6) scale(1,1)"><rect fill="#ffffcc" stroke="none" x="624" y="240" width="83.70263671875" height="47"/></g><g transform="translate(2,-6) scale(1,1)"><path fill="none" stroke="#000000" d="M 624 240 L 707.70263671875 240 L 707.70263671875 287 L 624 287 L 624 240 Z Z" stroke-miterlimit="10"/></g><g transform="translate(2,-6) scale(1,1)"><path fill="none" stroke="#000000" d="M 624 265 L 707.70263671875 265" stroke-miterlimit="10"/></g><g transform="translate(2,-6) scale(1,1)"><g><path fill="none" stroke="none"/><text fill="#000000" stroke="none" font-family="Arial" font-size="13px" font-style="normal" font-weight="bold" text-decoration="none" x="634.351318359375" y="259.5">nif:Context</text></g></g><g transform="translate(2,-6) scale(1,1)"><g><path fill="none" stroke="none"/><text fill="#000000" stroke="none" font-family="Arial" font-size="13px" font-style="normal" font-weight="normal" text-decoration="none" x="629" y="282.5">nif:isString</text></g></g><g transform="translate(2,-6) scale(1,1)"><path fill="none" stroke="#000000" d="M 816 248 L 816 189" stroke-miterlimit="10"/></g><g transform="translate(2,-6) scale(1,1)"><path fill="#FFFFFF" stroke="none" d="M 824.419035512032 209.3253497152483 L 816 189 L 807.580964487968 209.3253497152483"/></g><g transform="translate(2,-6) scale(1,1)"><path fill="none" stroke="#000000" d="M 824.419035512032 209.3253497152483 L 816 189 L 807.580964487968 209.3253497152483 L 824.419035512032 209.3253497152483" stroke-miterlimit="10"/></g><g transform="translate(2,-6) scale(1,1)"><path fill="none" stroke="#000000" d="M 681 240 L 681 232 L 816 232 L 816 189" stroke-miterlimit="10"/></g><g transform="translate(2,-6) scale(1,1)"><path fill="#FFFFFF" stroke="none" d="M 824.419035512032 209.3253497152483 L 816 189 L 807.580964487968 209.3253497152483"/></g><g transform="translate(2,-6) scale(1,1)"><path fill="none" stroke="#000000" d="M 824.419035512032 209.3253497152483 L 816 189 L 807.580964487968 209.3253497152483 L 824.419035512032 209.3253497152483" stroke-miterlimit="10"/></g><g transform="translate(2,-6) scale(1,1)"><path fill="none" stroke="#000000" d="M 595 256 L 624 256" stroke-miterlimit="10"/></g><g transform="translate(2,-6) scale(1,1)"><path fill="#FFFFFF" stroke="none" d="M 603.6746502847517 264.419035512032 L 624 256 L 603.6746502847517 247.58096448796803"/></g><g transform="translate(2,-6) scale(1,1)"><path fill="none" stroke="#000000" d="M 603.6746502847517 264.419035512032 L 624 256 L 603.6746502847517 247.58096448796803 L 603.6746502847517 264.419035512032" stroke-miterlimit="10"/></g><g transform="translate(2,-6) scale(1,1)"><rect fill="#ffcccc" stroke="none" x="240" y="192" width="216" height="24"/></g><g transform="translate(2,-6) scale(1,1)"><path fill="none" stroke="#000000" d="M 240 192 L 456 192 L 456 216 L 240 216 L 240 192 Z Z" stroke-miterlimit="10"/></g><g transform="translate(2,-6) scale(1,1)"><g><path fill="none" stroke="none"/><text fill="#000000" stroke="none" font-family="Arial" font-size="13px" font-style="normal" font-weight="bold" text-decoration="none" x="268.5" y="211.5">pmo:SemanticRoleMapping</text></g></g><g transform="translate(2,-6) scale(1,1)"><rect fill="#ffcccc" stroke="none" x="240" y="240" width="216" height="24"/></g><g transform="translate(2,-6) scale(1,1)"><path fill="none" stroke="#000000" d="M 240 240 L 456 240 L 456 264 L 240 264 L 240 240 Z Z" stroke-miterlimit="10"/></g><g transform="translate(2,-6) scale(1,1)"><g><path fill="none" stroke="none"/><text fill="#000000" stroke="none" font-family="Arial" font-size="13px" font-style="normal" font-weight="bold" text-decoration="none" x="265" y="259.5">pmo:SemanticClassMapping</text></g></g><g transform="translate(2,-6) scale(1,1)"><path fill="none" stroke="#000000" d="M 240 208 L 216 208 L 216 168 L 248 168" stroke-miterlimit="10"/></g><g transform="translate(2,-6) scale(1,1)"><path fill="#FFFFFF" stroke="none" d="M 227.6746502847517 176.41903551203197 L 248 168 L 227.6746502847517 159.58096448796803"/></g><g transform="translate(2,-6) scale(1,1)"><path fill="none" stroke="#000000" d="M 227.6746502847517 176.41903551203197 L 248 168 L 227.6746502847517 159.58096448796803 L 227.6746502847517 176.41903551203197" stroke-miterlimit="10"/></g><g transform="translate(2,-6) scale(1,1)"><path fill="none" stroke="#000000" d="M 240 260 L 216 260 L 216 168 L 248 168" stroke-miterlimit="10"/></g><g transform="translate(2,-6) scale(1,1)"><path fill="#FFFFFF" stroke="none" d="M 227.6746502847517 176.41903551203197 L 248 168 L 227.6746502847517 159.58096448796803"/></g><g transform="translate(2,-6) scale(1,1)"><path fill="none" stroke="#000000" d="M 227.6746502847517 176.41903551203197 L 248 168 L 227.6746502847517 159.58096448796803 L 227.6746502847517 176.41903551203197" stroke-miterlimit="10"/></g><g transform="translate(2,-6) scale(1,1)"><rect fill="#ffcccc" stroke="none" x="240" y="272" width="221.9609375" height="24"/></g><g transform="translate(2,-6) scale(1,1)"><path fill="none" stroke="#000000" d="M 240 272 L 461.9609375 272 L 461.9609375 296 L 240 296 L 240 272 Z Z" stroke-miterlimit="10"/></g><g transform="translate(2,-6) scale(1,1)"><g><path fill="none" stroke="none"/><text fill="#000000" stroke="none" font-family="Arial" font-size="13px" font-style="normal" font-weight="bold" text-decoration="none" x="260.48046875" y="291.5">pmo:ConceptualizationMapping</text></g></g><g transform="translate(2,-6) scale(1,1)"><path fill="none" stroke="#000000" d="M 240 292 L 216 292 L 216 168 L 248 168" stroke-miterlimit="10"/></g><g transform="translate(2,-6) scale(1,1)"><path fill="#FFFFFF" stroke="none" d="M 227.6746502847517 176.41903551203197 L 248 168 L 227.6746502847517 159.58096448796803"/></g><g transform="translate(2,-6) scale(1,1)"><path fill="none" stroke="#000000" d="M 227.6746502847517 176.41903551203197 L 248 168 L 227.6746502847517 159.58096448796803 L 227.6746502847517 176.41903551203197" stroke-miterlimit="10"/></g><g transform="translate(2,-6) scale(1,1)"><path fill="none" stroke="#000000" d="M 456 256 L 472 256 L 472 200 L 456 200" stroke-miterlimit="10"/></g><g transform="translate(2,-6) scale(1,1)"><path fill="none" stroke="#000000" d="M 466.16267485762415 195.790482243984 L 456 200 L 466.16267485762415 204.209517756016" stroke-miterlimit="10"/></g><g transform="translate(2,-6) scale(1,1)"><path fill="none" stroke="#000000" d="M 462 288 L 472 288 L 472 200 L 456 200" stroke-miterlimit="10"/></g><g transform="translate(2,-6) scale(1,1)"><path fill="none" stroke="#000000" d="M 466.16267485762415 195.790482243984 L 456 200 L 466.16267485762415 204.209517756016" stroke-miterlimit="10"/></g><g transform="translate(2,-6) scale(1,1)"><g><path fill="none" stroke="none"/><text fill="#000000" stroke="none" font-family="Arial" font-size="13px" font-style="normal" font-weight="normal" text-decoration="none" x="335" y="233">pmo:semRoleMapping</text></g></g><g transform="translate(2,-6) scale(1,1)"><path fill="none" stroke="#000000" d="M 465 32 L 465 16 L 8 16 L 8 224 L 120 224 L 120 248" stroke-miterlimit="10"/></g><g transform="translate(2,-6) scale(1,1)"><path fill="none" stroke="#000000" d="M 115.79048224398402 237.83732514237585 L 120 248 L 124.20951775601598 237.83732514237585" stroke-miterlimit="10"/></g><g transform="translate(2,-6) scale(1,1)"><g><path fill="none" stroke="none"/><text fill="#000000" stroke="none" font-family="Arial" font-size="13px" font-style="normal" font-weight="normal" text-decoration="none" x="15" y="29">ontolex:isConceptOf</text></g></g></g></svg>