<svg version="1.1" xmlns="http://www.w3.org/2000/svg" xmlns:xlink="http://www.w3.org/1999/xlink" width="812" height="269"><defs/><g><g transform="translate(2,-6) scale(1,1)"><rect fill="#99ffcc" stroke="none" x="512" y="16" width="124" height="80"/></g><g transform="translate(2,-6) scale(1,1)"><path fill="none" stroke="#000000" d="M 512 16 L 636 16 L 636 96 L 512 96 L 512 16 Z Z" stroke-miterlimit="10"/></g><g transform="translate(2,-6) scale(1,1)"><path fill="none" stroke="#000000" d="M 512 41 L 636 41" stroke-miterlimit="10"/></g><g transform="translate(2,-6) scale(1,1)"><g><path fill="none" stroke="none"/><text fill="#000000" stroke="none" font-family="Arial" font-size="13px" font-style="normal" font-weight="bold" text-decoration="none" x="535.5" y="35.5">pmofn:Frame</text></g></g><g transform="translate(2,-6) scale(1,1)"><g><path fill="none" stroke="none"/><text fill="#000000" stroke="none" font-family="Arial" font-size="13px" font-style="normal" font-weight="normal" text-decoration="none" x="517" y="58.5">dct:creator[1]</text></g></g><g transform="translate(2,-6) scale(1,1)"><g><path fill="none" stroke="none"/><text fill="#000000" stroke="none" font-family="Arial" font-size="13px" font-style="normal" font-weight="normal" text-decoration="none" x="517" y="73.5">dct:created[1]</text></g></g><g transform="translate(2,-6) scale(1,1)"><g><path fill="none" stroke="none"/><text fill="#000000" stroke="none" font-family="Arial" font-size="13px" font-style="normal" font-weight="normal" text-decoration="none" x="517" y="88.5">dct:identifier[1]</text></g></g><g transform="translate(2,-6) scale(1,1)"><rect fill="#99ffcc" stroke="none" x="336" y="160" width="152" height="92"/></g><g transform="translate(2,-6) scale(1,1)"><path fill="none" stroke="#000000" d="M 336 160 L 488 160 L 488 252 L 336 252 L 336 160 Z Z" stroke-miterlimit="10"/></g><g transform="translate(2,-6) scale(1,1)"><path fill="none" stroke="#000000" d="M 336 185 L 488 185" stroke-miterlimit="10"/></g><g transform="translate(2,-6) scale(1,1)"><g><path fill="none" stroke="none"/><text fill="#000000" stroke="none" font-family="Arial" font-size="13px" font-style="normal" font-weight="bold" text-decoration="none" x="349.5" y="179.5">pmofn:FrameElement</text></g></g><g transform="translate(2,-6) scale(1,1)"><g><path fill="none" stroke="none"/><text fill="#000000" stroke="none" font-family="Arial" font-size="13px" font-style="normal" font-weight="normal" text-decoration="none" x="341" y="202.5">dct:creator[1]</text></g></g><g transform="translate(2,-6) scale(1,1)"><g><path fill="none" stroke="none"/><text fill="#000000" stroke="none" font-family="Arial" font-size="13px" font-style="normal" font-weight="normal" text-decoration="none" x="341" y="217.5">dct:created[1]</text></g></g><g transform="translate(2,-6) scale(1,1)"><g><path fill="none" stroke="none"/><text fill="#000000" stroke="none" font-family="Arial" font-size="13px" font-style="normal" font-weight="normal" text-decoration="none" x="341" y="232.5">dct:identifier[1]</text></g></g><g transform="translate(2,-6) scale(1,1)"><g><path fill="none" stroke="none"/><text fill="#000000" stroke="none" font-family="Arial" font-size="13px" font-style="normal" font-weight="normal" text-decoration="none" x="341" y="247.5">pmo:abbreviation[1]</text></g></g><g transform="translate(2,-6) scale(1,1)"><rect fill="#99ffcc" stroke="none" x="528" y="118" width="272" height="24"/></g><g transform="translate(2,-6) scale(1,1)"><path fill="none" stroke="#000000" d="M 528 118 L 800 118 L 800 142 L 528 142 L 528 118 Z Z" stroke-miterlimit="10"/></g><g transform="translate(2,-6) scale(1,1)"><g><path fill="none" stroke="none"/><text fill="#000000" stroke="none" font-family="Arial" font-size="13px" font-style="normal" font-weight="bold" text-decoration="none" x="588" y="137.5">pmofn:CoreFrameElement</text></g></g><g transform="translate(2,-6) scale(1,1)"><rect fill="#99ffcc" stroke="none" x="528" y="152" width="272" height="24"/></g><g transform="translate(2,-6) scale(1,1)"><path fill="none" stroke="#000000" d="M 528 152 L 800 152 L 800 176 L 528 176 L 528 152 Z Z" stroke-miterlimit="10"/></g><g transform="translate(2,-6) scale(1,1)"><g><path fill="none" stroke="none"/><text fill="#000000" stroke="none" font-family="Arial" font-size="13px" font-style="normal" font-weight="bold" text-decoration="none" x="559" y="171.5">pmofn:ExtraThematicFrameElement</text></g></g><g transform="translate(2,-6) scale(1,1)"><rect fill="#99ffcc" stroke="none" x="528" y="184" width="272" height="24"/></g><g transform="translate(2,-6) scale(1,1)"><path fill="none" stroke="#000000" d="M 528 184 L 800 184 L 800 208 L 528 208 L 528 184 Z Z" stroke-miterlimit="10"/></g><g transform="translate(2,-6) scale(1,1)"><g><path fill="none" stroke="none"/><text fill="#000000" stroke="none" font-family="Arial" font-size="13px" font-style="normal" font-weight="bold" text-decoration="none" x="572.5" y="203.5">pmofn:PeripheralFrameElement</text></g></g><g transform="translate(2,-6) scale(1,1)"><rect fill="#99ffcc" stroke="none" x="528" y="216" width="272" height="24"/></g><g transform="translate(2,-6) scale(1,1)"><path fill="none" stroke="#000000" d="M 528 216 L 800 216 L 800 240 L 528 240 L 528 216 Z Z" stroke-miterlimit="10"/></g><g transform="translate(2,-6) scale(1,1)"><g><path fill="none" stroke="none"/><text fill="#000000" stroke="none" font-family="Arial" font-size="13px" font-style="normal" font-weight="bold" text-decoration="none" x="550" y="235.5">pmofn:CoreUnexpressedFrameElement</text></g></g><g transform="translate(2,-6) scale(1,1)"><path fill="none" stroke="#000000" d="M 528 138 L 520 138 L 520 184 L 488 184" stroke-miterlimit="10"/></g><g transform="translate(2,-6) scale(1,1)"><path fill="#FFFFFF" stroke="none" d="M 508.3253497152483 175.58096448796803 L 488 184 L 508.3253497152483 192.41903551203197"/></g><g transform="translate(2,-6) scale(1,1)"><path fill="none" stroke="#000000" d="M 508.3253497152483 175.58096448796803 L 488 184 L 508.3253497152483 192.41903551203197 L 508.3253497152483 175.58096448796803" stroke-miterlimit="10"/></g><g transform="translate(2,-6) scale(1,1)"><path fill="none" stroke="#000000" d="M 528 204 L 520 204 L 520 184 L 488 184" stroke-miterlimit="10"/></g><g transform="translate(2,-6) scale(1,1)"><path fill="#FFFFFF" stroke="none" d="M 508.3253497152483 175.58096448796803 L 488 184 L 508.3253497152483 192.41903551203197"/></g><g transform="translate(2,-6) scale(1,1)"><path fill="none" stroke="#000000" d="M 508.3253497152483 175.58096448796803 L 488 184 L 508.3253497152483 192.41903551203197 L 508.3253497152483 175.58096448796803" stroke-miterlimit="10"/></g><g transform="translate(2,-6) scale(1,1)"><path fill="none" stroke="#000000" d="M 528 172 L 520 172 L 520 184 L 488 184" stroke-miterlimit="10"/></g><g transform="translate(2,-6) scale(1,1)"><path fill="#FFFFFF" stroke="none" d="M 508.3253497152483 175.58096448796803 L 488 184 L 508.3253497152483 192.41903551203197"/></g><g transform="translate(2,-6) scale(1,1)"><path fill="none" stroke="#000000" d="M 508.3253497152483 175.58096448796803 L 488 184 L 508.3253497152483 192.41903551203197 L 508.3253497152483 175.58096448796803" stroke-miterlimit="10"/></g><g transform="translate(2,-6) scale(1,1)"><path fill="none" stroke="#000000" d="M 528 236 L 520 236 L 520 184 L 488 184" stroke-miterlimit="10"/></g><g transform="translate(2,-6) scale(1,1)"><path fill="#FFFFFF" stroke="none" d="M 508.3253497152483 175.58096448796803 L 488 184 L 508.3253497152483 192.41903551203197"/></g><g transform="translate(2,-6) scale(1,1)"><path fill="none" stroke="#000000" d="M 508.3253497152483 175.58096448796803 L 488 184 L 508.3253497152483 192.41903551203197 L 508.3253497152483 175.58096448796803" stroke-miterlimit="10"/></g><g transform="translate(2,-6) scale(1,1)"><rect fill="#ffcccc" stroke="none" x="160" y="200" width="146" height="24"/></g><g transform="translate(2,-6) scale(1,1)"><path fill="none" stroke="#000000" d="M 160 200 L 306 200 L 306 224 L 160 224 L 160 200 Z Z" stroke-miterlimit="10"/></g><g transform="translate(2,-6) scale(1,1)"><g><path fill="none" stroke="none"/><text fill="#000000" stroke="none" font-family="Arial" font-size="13px" font-style="normal" font-weight="bold" text-decoration="none" x="181" y="219.5">pmofn:LexicalUnit</text></g></g><g transform="translate(2,-6) scale(1,1)"><rect fill="#e6e6ff" stroke="none" x="8" y="16" width="124" height="64"/></g><g transform="translate(2,-6) scale(1,1)"><path fill="none" stroke="#000000" d="M 8 16 L 132 16 L 132 80 L 8 80 L 8 16 Z Z" stroke-miterlimit="10"/></g><g transform="translate(2,-6) scale(1,1)"><path fill="none" stroke="#000000" d="M 8 41 L 132 41" stroke-miterlimit="10"/></g><g transform="translate(2,-6) scale(1,1)"><g><path fill="none" stroke="none"/><text fill="#000000" stroke="none" font-family="Arial" font-size="13px" font-style="normal" font-weight="bold" text-decoration="none" x="22" y="35.5">pmofn:SemType</text></g></g><g transform="translate(2,-6) scale(1,1)"><g><path fill="none" stroke="none"/><text fill="#000000" stroke="none" font-family="Arial" font-size="13px" font-style="normal" font-weight="normal" text-decoration="none" x="13" y="58.5">dct:identifier[1]</text></g></g><g transform="translate(2,-6) scale(1,1)"><g><path fill="none" stroke="none"/><text fill="#000000" stroke="none" font-family="Arial" font-size="13px" font-style="normal" font-weight="normal" text-decoration="none" x="13" y="73.5">pmo:abbreviation[1]</text></g></g><g transform="translate(2,-6) scale(1,1)"><path fill="none" stroke="#000000" d="M 132 56 L 152 56 L 152 40 L 132 40" stroke-miterlimit="10"/></g><g transform="translate(2,-6) scale(1,1)"><path fill="none" stroke="#000000" d="M 142.16267485762415 35.790482243984016 L 132 40 L 142.16267485762415 44.209517756015984" stroke-miterlimit="10"/></g><g transform="translate(2,-6) scale(1,1)"><g><path fill="none" stroke="none"/><text fill="#000000" stroke="none" font-family="Arial" font-size="13px" font-style="normal" font-weight="normal" text-decoration="none" x="157.5" y="51.5">pmofn:subTypeOf</text></g></g><g transform="translate(2,-6) scale(1,1)"><path fill="none" stroke="#000000" d="M 512 24 L 132 24" stroke-miterlimit="10"/></g><g transform="translate(2,-6) scale(1,1)"><path fill="none" stroke="#000000" d="M 142.16267485762415 19.790482243984012 L 132 24 L 142.16267485762415 28.209517756015988" stroke-miterlimit="10"/></g><g transform="translate(2,-6) scale(1,1)"><g><path fill="none" stroke="none"/><text fill="#000000" stroke="none" font-family="Arial" font-size="13px" font-style="normal" font-weight="normal" text-decoration="none" x="297.5" y="35.5">pmofn:semType</text></g></g><g transform="translate(2,-6) scale(1,1)"><path fill="none" stroke="#000000" d="M 336 240 L 328 240 L 328 264 L 16 264 L 16 80" stroke-miterlimit="10"/></g><g transform="translate(2,-6) scale(1,1)"><path fill="none" stroke="#000000" d="M 20.209517756015988 90.16267485762415 L 16 80 L 11.790482243984012 90.16267485762415" stroke-miterlimit="10"/></g><g transform="translate(2,-6) scale(1,1)"><g><path fill="none" stroke="none"/><text fill="#000000" stroke="none" font-family="Arial" font-size="13px" font-style="normal" font-weight="normal" text-decoration="none" x="46.5" y="163.5">pmofn:semType</text></g></g><g transform="translate(2,-6) scale(1,1)"><path fill="none" stroke="#000000" d="M 208 224 L 208 264 L 16 264 L 16 80" stroke-miterlimit="10"/></g><g transform="translate(2,-6) scale(1,1)"><path fill="none" stroke="#000000" d="M 20.209517756015988 90.16267485762415 L 16 80 L 11.790482243984012 90.16267485762415" stroke-miterlimit="10"/></g><g transform="translate(2,-6) scale(1,1)"><path fill="none" stroke="#000000" d="M 636 32 L 656 32 L 656 48 L 636 48" stroke-miterlimit="10"/></g><g transform="translate(2,-6) scale(1,1)"><path fill="none" stroke="#000000" d="M 646.1626748576241 43.790482243984016 L 636 48 L 646.1626748576241 52.209517756015984" stroke-miterlimit="10"/></g><g transform="translate(2,-6) scale(1,1)"><g><path fill="none" stroke="none"/><text fill="#000000" stroke="none" font-family="Arial" font-size="13px" font-style="normal" font-weight="normal" text-decoration="none" x="638.5" y="28.5">pmofn:frameRelation</text></g></g><g transform="translate(2,-6) scale(1,1)"><path fill="none" stroke="#000000" d="M 480 252 L 480 264 L 504 264 L 504 248 L 488 248" stroke-miterlimit="10"/></g><g transform="translate(2,-6) scale(1,1)"><path fill="none" stroke="#000000" d="M 498.16267485762415 243.790482243984 L 488 248 L 498.16267485762415 252.209517756016" stroke-miterlimit="10"/></g><g transform="translate(2,-6) scale(1,1)"><g><path fill="none" stroke="none"/><text fill="#000000" stroke="none" font-family="Arial" font-size="13px" font-style="normal" font-weight="normal" text-decoration="none" x="507.5" y="259.5">pmofn:frameElementRelation</text></g></g><g transform="translate(2,-6) scale(1,1)"><rect fill="#e6e6ff" stroke="none" x="656" y="80" width="128" height="24"/></g><g transform="translate(2,-6) scale(1,1)"><path fill="none" stroke="#000000" d="M 656 80 L 784 80 L 784 104 L 656 104 L 656 80 Z Z" stroke-miterlimit="10"/></g><g transform="translate(2,-6) scale(1,1)"><g><path fill="none" stroke="none"/><text fill="#000000" stroke="none" font-family="Arial" font-size="13px" font-style="normal" font-weight="bold" text-decoration="none" x="668" y="99.5">pmofn:FECoreSet</text></g></g><g transform="translate(2,-6) scale(1,1)"><path fill="none" stroke="#000000" d="M 656 104 L 480 104 L 480 160" stroke-miterlimit="10"/></g><g transform="translate(2,-6) scale(1,1)"><path fill="none" stroke="#000000" d="M 475.790482243984 149.83732514237585 L 480 160 L 484.209517756016 149.83732514237585" stroke-miterlimit="10"/></g><g transform="translate(2,-6) scale(1,1)"><g><path fill="none" stroke="none"/><text fill="#000000" stroke="none" font-family="Arial" font-size="13px" font-style="normal" font-weight="normal" text-decoration="none" x="421.5" y="146.5">pmo:item</text></g></g><g transform="translate(2,-6) scale(1,1)"><path fill="none" stroke="#000000" d="M 288 200 L 288 168 L 336 168" stroke-miterlimit="10"/></g><g transform="translate(2,-6) scale(1,1)"><path fill="none" stroke="#000000" d="M 325.83732514237585 172.209517756016 L 336 168 L 325.83732514237585 163.790482243984" stroke-miterlimit="10"/></g><g transform="translate(2,-6) scale(1,1)"><g><path fill="none" stroke="none"/><text fill="#000000" stroke="none" font-family="Arial" font-size="13px" font-style="normal" font-weight="normal" text-decoration="none" x="198.5" y="163.5">pmofn:incorporatedFE</text></g></g><g transform="translate(2,-6) scale(1,1)"><rect fill="#e6e6ff" stroke="none" x="24" y="184" width="116" height="72"/></g><g transform="translate(2,-6) scale(1,1)"><path fill="none" stroke="#000000" d="M 24 184 L 140 184 L 140 256 L 24 256 L 24 184 Z Z" stroke-miterlimit="10"/></g><g transform="translate(2,-6) scale(1,1)"><path fill="none" stroke="#000000" d="M 24 209 L 140 209" stroke-miterlimit="10"/></g><g transform="translate(2,-6) scale(1,1)"><g><path fill="none" stroke="none"/><text fill="#000000" stroke="none" font-family="Arial" font-size="13px" font-style="normal" font-weight="bold" text-decoration="none" x="35" y="203.5">pmofn:LUStatus</text></g></g><g transform="translate(2,-6) scale(1,1)"><g><path fill="none" stroke="none"/><text fill="#000000" stroke="none" font-family="Arial" font-size="13px" font-style="normal" font-weight="normal" text-decoration="none" x="29" y="226.5">rdfs:label</text></g></g><g transform="translate(2,-6) scale(1,1)"><g><path fill="none" stroke="none"/><text fill="#000000" stroke="none" font-family="Arial" font-size="13px" font-style="normal" font-weight="normal" text-decoration="none" x="29" y="241.5">skos:definition</text></g></g><g transform="translate(2,-6) scale(1,1)"><path fill="none" stroke="#000000" d="M 168 200 L 168 168 L 120 168 L 120 184" stroke-miterlimit="10"/></g><g transform="translate(2,-6) scale(1,1)"><path fill="none" stroke="#000000" d="M 115.79048224398402 173.83732514237585 L 120 184 L 124.20951775601598 173.83732514237585" stroke-miterlimit="10"/></g><g transform="translate(2,-6) scale(1,1)"><g><path fill="none" stroke="none"/><text fill="#000000" stroke="none" font-family="Arial" font-size="13px" font-style="normal" font-weight="normal" text-decoration="none" x="36.5" y="99.5">pmofn:status</text></g></g><g transform="translate(2,-6) scale(1,1)"><rect fill="#99ffcc" stroke="none" x="256" y="104" width="175" height="24"/></g><g transform="translate(2,-6) scale(1,1)"><path fill="none" stroke="#000000" d="M 256 104 L 431 104 L 431 128 L 256 128 L 256 104 Z Z" stroke-miterlimit="10"/></g><g transform="translate(2,-6) scale(1,1)"><g><path fill="none" stroke="none"/><text fill="#000000" stroke="none" font-family="Arial" font-size="13px" font-style="normal" font-weight="bold" text-decoration="none" x="288.5" y="123.5">pmo:SemanticRole</text></g></g><g transform="translate(2,-6) scale(1,1)"><rect fill="#ffcccc" stroke="none" x="24" y="104" width="176" height="24"/></g><g transform="translate(2,-6) scale(1,1)"><path fill="none" stroke="#000000" d="M 24 104 L 200 104 L 200 128 L 24 128 L 24 104 Z Z" stroke-miterlimit="10"/></g><g transform="translate(2,-6) scale(1,1)"><g><path fill="none" stroke="none"/><text fill="#000000" stroke="none" font-family="Arial" font-size="13px" font-style="normal" font-weight="bold" text-decoration="none" x="46" y="123.5">pmo:Conceptualization</text></g></g><g transform="translate(2,-6) scale(1,1)"><rect fill="#99ffcc" stroke="none" x="296" y="56" width="143" height="24"/></g><g transform="translate(2,-6) scale(1,1)"><path fill="none" stroke="#000000" d="M 296 56 L 439 56 L 439 80 L 296 80 L 296 56 Z Z" stroke-miterlimit="10"/></g><g transform="translate(2,-6) scale(1,1)"><g><path fill="none" stroke="none"/><text fill="#000000" stroke="none" font-family="Arial" font-size="13px" font-style="normal" font-weight="bold" text-decoration="none" x="309" y="75.5">pmo:SemanticClass</text></g></g><g transform="translate(2,-6) scale(1,1)"><path fill="none" stroke="#000000" d="M 304 80 L 304 104" stroke-miterlimit="10"/></g><g transform="translate(2,-6) scale(1,1)"><path fill="none" stroke="#000000" d="M 299.790482243984 93.83732514237585 L 304 104 L 308.209517756016 93.83732514237585" stroke-miterlimit="10"/></g><g transform="translate(2,-6) scale(1,1)"><g><path fill="none" stroke="none"/><text fill="#000000" stroke="none" font-family="Arial" font-size="13px" font-style="normal" font-weight="normal" text-decoration="none" x="214.5" y="94.5">pmo:semRole</text></g></g><g transform="translate(2,-6) scale(1,1)"><g><path fill="none" stroke="none"/><text fill="#000000" stroke="none" font-family="Arial" font-size="13px" font-style="normal" font-weight="normal" text-decoration="none" x="311.5" y="99.5">1</text></g></g><g transform="translate(2,-6) scale(1,1)"><path fill="none" stroke="#000000" d="M 184 200 L 184 128" stroke-miterlimit="10"/></g><g transform="translate(2,-6) scale(1,1)"><path fill="#FFFFFF" stroke="none" d="M 192.41903551203197 148.3253497152483 L 184 128 L 175.58096448796803 148.3253497152483"/></g><g transform="translate(2,-6) scale(1,1)"><path fill="none" stroke="#000000" d="M 192.41903551203197 148.3253497152483 L 184 128 L 175.58096448796803 148.3253497152483 L 192.41903551203197 148.3253497152483" stroke-miterlimit="10"/></g><g transform="translate(2,-6) scale(1,1)"><path fill="none" stroke="#000000" d="M 636 64 L 672 64 L 672 80" stroke-miterlimit="10"/></g><g transform="translate(2,-6) scale(1,1)"><path fill="none" stroke="#000000" d="M 667.790482243984 69.83732514237585 L 672 80 L 676.209517756016 69.83732514237585" stroke-miterlimit="10"/></g><g transform="translate(2,-6) scale(1,1)"><g><path fill="none" stroke="none"/><text fill="#000000" stroke="none" font-family="Arial" font-size="13px" font-style="normal" font-weight="normal" text-decoration="none" x="677.5" y="76.5">pmofn:feCoreSet</text></g></g><g transform="translate(2,-6) scale(1,1)"><g><path fill="none" stroke="none"/><text fill="#000000" stroke="none" font-family="Arial" font-size="13px" font-style="normal" font-weight="normal" text-decoration="none" x="637.5" y="75.5">1</text></g></g><g transform="translate(2,-6) scale(1,1)"><path fill="none" stroke="#000000" d="M 512 64 L 439 64" stroke-miterlimit="10"/></g><g transform="translate(2,-6) scale(1,1)"><path fill="#FFFFFF" stroke="none" d="M 459.3253497152483 55.580964487968025 L 439 64 L 459.3253497152483 72.41903551203197"/></g><g transform="translate(2,-6) scale(1,1)"><path fill="none" stroke="#000000" d="M 459.3253497152483 55.580964487968025 L 439 64 L 459.3253497152483 72.41903551203197 L 459.3253497152483 55.580964487968025" stroke-miterlimit="10"/></g><g transform="translate(2,-6) scale(1,1)"><path fill="none" stroke="#000000" d="M 360 160 L 360 128" stroke-miterlimit="10"/></g><g transform="translate(2,-6) scale(1,1)"><path fill="#FFFFFF" stroke="none" d="M 368.419035512032 148.3253497152483 L 360 128 L 351.580964487968 148.3253497152483"/></g><g transform="translate(2,-6) scale(1,1)"><path fill="none" stroke="#000000" d="M 368.419035512032 148.3253497152483 L 360 128 L 351.580964487968 148.3253497152483 L 368.419035512032 148.3253497152483" stroke-miterlimit="10"/></g></g></svg>