<svg version="1.1" xmlns="http://www.w3.org/2000/svg" xmlns:xlink="http://www.w3.org/1999/xlink" width="690" height="397"><defs></defs><g><g transform="translate(-336,-334) scale(1,1)"><path fill="none" stroke="#000000" d="M 798 492 L 798 532" stroke-miterlimit="10"></path></g><g transform="translate(-336,-334) scale(1,1)"><path fill="none" stroke="#000000" d="M 793.790482243984 521.8373251423759 L 798 532 L 802.209517756016 521.8373251423759" stroke-miterlimit="10"></path></g><g transform="translate(-336,-334) scale(1,1)"><g><path fill="none" stroke="none"></path><text fill="#000000" stroke="none" font-family="Arial" font-size="13px" font-style="normal" font-weight="normal" text-decoration="none" x="802" y="513">:role</text></g></g><g transform="translate(-336,-334) scale(1,1)"><g><path fill="none" stroke="none"></path><text fill="#000000" stroke="none" font-family="Arial" font-size="13px" font-style="normal" font-weight="normal" text-decoration="none" x="801" y="524">0..1</text></g></g><g transform="translate(-336,-334) scale(1,1)"><rect fill="#ffffff" stroke="none" x="754" y="344" width="74" height="56"></rect></g><g transform="translate(-336,-334) scale(1,1)"><path fill="none" stroke="#000000" d="M 754 344 L 828 344 L 828 400 L 754 400 L 754 344 Z Z" stroke-miterlimit="10"></path></g><g transform="translate(-336,-334) scale(1,1)"><g><path fill="none" stroke="none"></path><text fill="#000000" stroke="none" font-family="Arial" font-size="13px" font-style="normal" font-weight="bold" text-decoration="none" x="761.5" y="363.5">:Predicate</text></g></g><g transform="translate(-336,-334) scale(1,1)"><rect fill="#ffffff" stroke="none" x="724" y="436" width="138" height="56"></rect></g><g transform="translate(-336,-334) scale(1,1)"><path fill="none" stroke="#000000" d="M 724 436 L 862 436 L 862 492 L 724 492 L 724 436 Z Z" stroke-miterlimit="10"></path></g><g transform="translate(-336,-334) scale(1,1)"><g><path fill="none" stroke="none"></path><text fill="#000000" stroke="none" font-family="Arial" font-size="13px" font-style="normal" font-weight="bold" text-decoration="none" x="735.5" y="455.5">:SemanticArgument</text></g></g><g transform="translate(-336,-334) scale(1,1)"><rect fill="#ffffff" stroke="none" x="748" y="532" width="102" height="24"></rect></g><g transform="translate(-336,-334) scale(1,1)"><path fill="none" stroke="#000000" d="M 748 532 L 850 532 L 850 556 L 748 556 L 748 532 Z Z" stroke-miterlimit="10"></path></g><g transform="translate(-336,-334) scale(1,1)"><g><path fill="none" stroke="none"></path><text fill="#000000" stroke="none" font-family="Arial" font-size="13px" font-style="normal" font-weight="bold" text-decoration="none" x="756.5" y="551.5">:SemanticRole</text></g></g><g transform="translate(-336,-334) scale(1,1)"><rect fill="#ffffff" stroke="none" x="381" y="467" width="112" height="77"></rect></g><g transform="translate(-336,-334) scale(1,1)"><path fill="none" stroke="#000000" d="M 381 467 L 493 467 L 493 544 L 381 544 L 381 467 Z Z" stroke-miterlimit="10"></path></g><g transform="translate(-336,-334) scale(1,1)"><path fill="none" stroke="#000000" d="M 381 492 L 493 492" stroke-miterlimit="10"></path></g><g transform="translate(-336,-334) scale(1,1)"><g><path fill="none" stroke="none"></path><text fill="#000000" stroke="none" font-family="Arial" font-size="13px" font-style="normal" font-weight="bold" text-decoration="none" x="394" y="486.5">ol:LexicalEntry</text></g></g><g transform="translate(-336,-334) scale(1,1)"><g><path fill="none" stroke="none"></path><text fill="#000000" stroke="none" font-family="Arial" font-size="13px" font-style="normal" font-weight="normal" text-decoration="none" x="386" y="509.5">le:partOfSpeech</text></g></g><g transform="translate(-336,-334) scale(1,1)"><g><path fill="none" stroke="none"></path><text fill="#000000" stroke="none" font-family="Arial" font-size="13px" font-style="normal" font-weight="normal" text-decoration="none" x="386" y="524.5">rdfs:label</text></g></g><g transform="translate(-336,-334) scale(1,1)"><g><path fill="none" stroke="none"></path><text fill="#000000" stroke="none" font-family="Arial" font-size="13px" font-style="normal" font-weight="normal" text-decoration="none" x="386" y="539.5">ol:language</text></g></g><g transform="translate(-336,-334) scale(1,1)"><path fill="none" stroke="#000000" d="M 798 400 L 798 436" stroke-miterlimit="10"></path></g><g transform="translate(-336,-334) scale(1,1)"><path fill="none" stroke="#000000" d="M 793.790482243984 425.83732514237585 L 798 436 L 802.209517756016 425.83732514237585" stroke-miterlimit="10"></path></g><g transform="translate(-336,-334) scale(1,1)"><g><path fill="none" stroke="none"></path><text fill="#000000" stroke="none" font-family="Arial" font-size="13px" font-style="normal" font-weight="normal" text-decoration="none" x="746" y="424">:semArg</text></g></g><g transform="translate(-336,-334) scale(1,1)"><path fill="none" stroke="#000000" d="M 546 485 L 493 485" stroke-miterlimit="10"></path></g><g transform="translate(-336,-334) scale(1,1)"><path fill="none" stroke="#000000" d="M 535.8373251423759 489.209517756016 L 546 485 L 535.8373251423758 480.790482243984" stroke-miterlimit="10"></path></g><g transform="translate(-336,-334) scale(1,1)"><g><path fill="none" stroke="none"></path><text fill="#000000" stroke="none" font-family="Arial" font-size="13px" font-style="normal" font-weight="normal" text-decoration="none" x="493" y="482">ol:evokes</text></g></g><g transform="translate(-336,-334) scale(1,1)"><rect fill="#ffffff" stroke="none" x="346" y="384" width="91" height="47"></rect></g><g transform="translate(-336,-334) scale(1,1)"><path fill="none" stroke="#000000" d="M 346 384 L 437 384 L 437 431 L 346 431 L 346 384 Z Z" stroke-miterlimit="10"></path></g><g transform="translate(-336,-334) scale(1,1)"><path fill="none" stroke="#000000" d="M 346 409 L 437 409" stroke-miterlimit="10"></path></g><g transform="translate(-336,-334) scale(1,1)"><g><path fill="none" stroke="none"></path><text fill="#000000" stroke="none" font-family="Arial" font-size="13px" font-style="normal" font-weight="bold" text-decoration="none" x="369.5" y="403.5">ol:Form</text></g></g><g transform="translate(-336,-334) scale(1,1)"><g><path fill="none" stroke="none"></path><text fill="#000000" stroke="none" font-family="Arial" font-size="13px" font-style="normal" font-weight="normal" text-decoration="none" x="351" y="426.5">ol:writtenRep</text></g></g><g transform="translate(-336,-334) scale(1,1)"><path fill="none" stroke="#000000" d="M 381 480 L 358 480 L 358 431" stroke-miterlimit="10"></path></g><g transform="translate(-336,-334) scale(1,1)"><path fill="none" stroke="#000000" d="M 362.209517756016 441.16267485762415 L 358 431 L 353.790482243984 441.16267485762415" stroke-miterlimit="10"></path></g><g transform="translate(-336,-334) scale(1,1)"><g><path fill="none" stroke="none"></path><text fill="#000000" stroke="none" font-family="Arial" font-size="13px" font-style="normal" font-weight="normal" text-decoration="none" x="361" y="460">ol:canonicalForm</text></g></g><g transform="translate(-336,-334) scale(1,1)"><g><path fill="none" stroke="none"></path><text fill="#000000" stroke="none" font-family="Arial" font-size="13px" font-style="normal" font-weight="normal" text-decoration="none" x="370" y="497">1</text></g></g><g transform="translate(-336,-334) scale(1,1)"><g><path fill="none" stroke="none"></path><text fill="#000000" stroke="none" font-family="Arial" font-size="13px" font-style="normal" font-weight="normal" text-decoration="none" x="366" y="446">1</text></g></g><g transform="translate(-336,-334) scale(1,1)"><rect fill="#ffffff" stroke="none" x="446" y="409" width="76" height="24"></rect></g><g transform="translate(-336,-334) scale(1,1)"><path fill="none" stroke="#000000" d="M 446 409 L 522 409 L 522 433 L 446 433 L 446 409 Z Z" stroke-miterlimit="10"></path></g><g transform="translate(-336,-334) scale(1,1)"><g><path fill="none" stroke="none"></path><text fill="#000000" stroke="none" font-family="Arial" font-size="13px" font-style="normal" font-weight="bold" text-decoration="none" x="454.5" y="428.5">ol:Lexicon</text></g></g><g transform="translate(-336,-334) scale(1,1)"><path fill="none" stroke="#000000" d="M 478 433 L 478 467" stroke-miterlimit="10"></path></g><g transform="translate(-336,-334) scale(1,1)"><path fill="none" stroke="#000000" d="M 473.790482243984 456.83732514237585 L 478 467 L 482.209517756016 456.83732514237585" stroke-miterlimit="10"></path></g><g transform="translate(-336,-334) scale(1,1)"><g><path fill="none" stroke="none"></path><text fill="#000000" stroke="none" font-family="Arial" font-size="13px" font-style="normal" font-weight="normal" text-decoration="none" x="481" y="453">ol:entry</text></g></g><g transform="translate(-336,-334) scale(1,1)"><path fill="none" stroke="#000000" d="M 410 544 L 410 564 L 398 564 L 398 544" stroke-miterlimit="10"></path></g><g transform="translate(-336,-334) scale(1,1)"><path fill="none" stroke="#000000" d="M 414.209517756016 554.1626748576241 L 410 544 L 405.790482243984 554.1626748576241" stroke-miterlimit="10"></path></g><g transform="translate(-336,-334) scale(1,1)"><g><path fill="none" stroke="none"></path><text fill="#000000" stroke="none" font-family="Arial" font-size="13px" font-style="normal" font-weight="normal" text-decoration="none" x="374" y="575">de:subterm</text></g></g><g transform="translate(-336,-334) scale(1,1)"><rect fill="#ffffff" stroke="none" x="546" y="467" width="124" height="24"></rect></g><g transform="translate(-336,-334) scale(1,1)"><path fill="none" stroke="#000000" d="M 546 467 L 670 467 L 670 491 L 546 491 L 546 467 Z Z" stroke-miterlimit="10"></path></g><g transform="translate(-336,-334) scale(1,1)"><g><path fill="none" stroke="none"></path><text fill="#000000" stroke="none" font-family="Arial" font-size="13px" font-style="normal" font-weight="bold" text-decoration="none" x="556.5" y="486.5">ol:LexicalConcept</text></g></g><g transform="translate(-336,-334) scale(1,1)"><path fill="none" stroke="#000000" d="M 754 384 L 698 384 L 698 472 L 670 472" stroke-miterlimit="10"></path></g><g transform="translate(-336,-334) scale(1,1)"><path fill="#FFFFFF" stroke="none" d="M 690.3253497152483 463.580964487968 L 670 472 L 690.3253497152483 480.419035512032"></path></g><g transform="translate(-336,-334) scale(1,1)"><path fill="none" stroke="#000000" d="M 690.3253497152483 463.580964487968 L 670 472 L 690.3253497152483 480.419035512032 L 690.3253497152483 463.580964487968" stroke-miterlimit="10"></path></g><g transform="translate(-336,-334) scale(1,1)"><rect fill="#ffffff" stroke="none" x="570" y="409" width="99" height="24"></rect></g><g transform="translate(-336,-334) scale(1,1)"><path fill="none" stroke="#000000" d="M 570 409 L 669 409 L 669 433 L 570 433 L 570 409 Z Z" stroke-miterlimit="10"></path></g><g transform="translate(-336,-334) scale(1,1)"><g><path fill="none" stroke="none"></path><text fill="#000000" stroke="none" font-family="Arial" font-size="13px" font-style="normal" font-weight="bold" text-decoration="none" x="578.5" y="428.5">ol:ConceptSet</text></g></g><g transform="translate(-336,-334) scale(1,1)"><path fill="none" stroke="#000000" d="M 646 467 L 646 433" stroke-miterlimit="10"></path></g><g transform="translate(-336,-334) scale(1,1)"><path fill="none" stroke="#000000" d="M 650.209517756016 443.16267485762415 L 646 433 L 641.790482243984 443.16267485762415" stroke-miterlimit="10"></path></g><g transform="translate(-336,-334) scale(1,1)"><g><path fill="none" stroke="none"></path><text fill="#000000" stroke="none" font-family="Arial" font-size="13px" font-style="normal" font-weight="normal" text-decoration="none" x="550" y="453">skos:inScheme</text></g></g><g transform="translate(-336,-334) scale(1,1)"><path fill="none" stroke="#000000" d="M 724 472 L 670 472" stroke-miterlimit="10"></path></g><g transform="translate(-336,-334) scale(1,1)"><path fill="#FFFFFF" stroke="none" d="M 690.3253497152483 463.580964487968 L 670 472 L 690.3253497152483 480.419035512032"></path></g><g transform="translate(-336,-334) scale(1,1)"><path fill="none" stroke="#000000" d="M 690.3253497152483 463.580964487968 L 670 472 L 690.3253497152483 480.419035512032 L 690.3253497152483 463.580964487968" stroke-miterlimit="10"></path></g><g transform="translate(-336,-334) scale(1,1)"><rect fill="#ffffff" stroke="none" x="482" y="568" width="128" height="24"></rect></g><g transform="translate(-336,-334) scale(1,1)"><path fill="none" stroke="#000000" d="M 482 568 L 610 568 L 610 592 L 482 592 L 482 568 Z Z" stroke-miterlimit="10"></path></g><g transform="translate(-336,-334) scale(1,1)"><g><path fill="none" stroke="none"></path><text fill="#000000" stroke="none" font-family="Arial" font-size="13px" font-style="normal" font-weight="bold" text-decoration="none" x="492.5" y="587.5">:Conceptualization</text></g></g><g transform="translate(-336,-334) scale(1,1)"><path fill="none" stroke="#000000" d="M 610 577 L 622 577 L 622 491" stroke-miterlimit="10"></path></g><g transform="translate(-336,-334) scale(1,1)"><path fill="none" stroke="#000000" d="M 626.209517756016 501.16267485762415 L 622 491 L 617.790482243984 501.16267485762415" stroke-miterlimit="10"></path></g><g transform="translate(-336,-334) scale(1,1)"><g><path fill="none" stroke="none"></path><text fill="#000000" stroke="none" font-family="Arial" font-size="13px" font-style="normal" font-weight="normal" text-decoration="none" x="524" y="537">:evokedConcept</text></g></g><g transform="translate(-336,-334) scale(1,1)"><g><path fill="none" stroke="none"></path><text fill="#000000" stroke="none" font-family="Arial" font-size="13px" font-style="normal" font-weight="normal" text-decoration="none" x="611" y="521">1</text></g></g><g transform="translate(-336,-334) scale(1,1)"><path fill="none" stroke="#000000" d="M 482 579 L 470 579 L 470 544" stroke-miterlimit="10"></path></g><g transform="translate(-336,-334) scale(1,1)"><path fill="none" stroke="#000000" d="M 474.209517756016 554.1626748576241 L 470 544 L 465.790482243984 554.1626748576241" stroke-miterlimit="10"></path></g><g transform="translate(-336,-334) scale(1,1)"><g><path fill="none" stroke="none"></path><text fill="#000000" stroke="none" font-family="Arial" font-size="13px" font-style="normal" font-weight="normal" text-decoration="none" x="484" y="560">:evokingEntry</text></g></g><g transform="translate(-336,-334) scale(1,1)"><g><path fill="none" stroke="none"></path><text fill="#000000" stroke="none" font-family="Arial" font-size="13px" font-style="normal" font-weight="normal" text-decoration="none" x="474" y="567">1</text></g></g><g transform="translate(-336,-334) scale(1,1)"><path fill="none" stroke="#000000" d="M 538 592 L 538 608 L 558 608 L 558 592" stroke-miterlimit="10"></path></g><g transform="translate(-336,-334) scale(1,1)"><path fill="none" stroke="#000000" d="M 562.209517756016 602.1626748576241 L 558 592 L 553.790482243984 602.1626748576241" stroke-miterlimit="10"></path></g><g transform="translate(-336,-334) scale(1,1)"><g><path fill="none" stroke="none"></path><text fill="#000000" stroke="none" font-family="Arial" font-size="13px" font-style="normal" font-weight="normal" text-decoration="none" x="499" y="620">skos:exactMatch</text></g></g><g transform="translate(-336,-334) scale(1,1)"><g><path fill="none" stroke="none"></path><text fill="#000000" stroke="none" font-family="Arial" font-size="13px" font-style="normal" font-weight="normal" text-decoration="none" x="495" y="630">/ skos:closeMatch</text></g></g><g transform="translate(-336,-334) scale(1,1)"><rect fill="#ffffff" stroke="none" x="828" y="644" width="69" height="24"></rect></g><g transform="translate(-336,-334) scale(1,1)"><path fill="none" stroke="#000000" d="M 828 644 L 897 644 L 897 668 L 828 668 L 828 644 Z Z" stroke-miterlimit="10"></path></g><g transform="translate(-336,-334) scale(1,1)"><g><path fill="none" stroke="none"></path><text fill="#000000" stroke="none" font-family="Arial" font-size="13px" font-style="normal" font-weight="bold" text-decoration="none" x="835" y="663.5">:Example</text></g></g><g transform="translate(-336,-334) scale(1,1)"><rect fill="#ffffff" stroke="none" x="704" y="644" width="72" height="24"></rect></g><g transform="translate(-336,-334) scale(1,1)"><path fill="none" stroke="#000000" d="M 704 644 L 776 644 L 776 668 L 704 668 L 704 644 Z Z" stroke-miterlimit="10"></path></g><g transform="translate(-336,-334) scale(1,1)"><g><path fill="none" stroke="none"></path><text fill="#000000" stroke="none" font-family="Arial" font-size="13px" font-style="normal" font-weight="bold" text-decoration="none" x="711.5" y="663.5">:Markable</text></g></g><g transform="translate(-336,-334) scale(1,1)"><path fill="none" stroke="#000000" d="M 776 660 L 828 660" stroke-miterlimit="10"></path></g><g transform="translate(-336,-334) scale(1,1)"><path fill="none" stroke="#000000" d="M 817.8373251423759 664.209517756016 L 828 660 L 817.8373251423758 655.790482243984" stroke-miterlimit="10"></path></g><g transform="translate(-336,-334) scale(1,1)"><g><path fill="none" stroke="none"></path><text fill="#000000" stroke="none" font-family="Arial" font-size="13px" font-style="normal" font-weight="normal" text-decoration="none" x="790" y="641">nif:referenceContext</text></g></g><g transform="translate(-336,-334) scale(1,1)"><g><path fill="none" stroke="none"></path><text fill="#000000" stroke="none" font-family="Arial" font-size="13px" font-style="normal" font-weight="normal" text-decoration="none" x="816" y="652">1</text></g></g><g transform="translate(-336,-334) scale(1,1)"><rect fill="#ffffff" stroke="none" x="474" y="345" width="157" height="24"></rect></g><g transform="translate(-336,-334) scale(1,1)"><path fill="none" stroke="#000000" d="M 474 345 L 631 345 L 631 369 L 474 369 L 474 345 Z Z" stroke-miterlimit="10"></path></g><g transform="translate(-336,-334) scale(1,1)"><g><path fill="none" stroke="none"></path><text fill="#000000" stroke="none" font-family="Arial" font-size="13px" font-style="normal" font-weight="bold" text-decoration="none" x="486" y="364.5">li:ConceptualizationSet</text></g></g><g transform="translate(-336,-334) scale(1,1)"><path fill="none" stroke="#000000" d="M 474 357 L 458 357 L 458 409" stroke-miterlimit="10"></path></g><g transform="translate(-336,-334) scale(1,1)"><path fill="none" stroke="#000000" d="M 453.790482243984 398.83732514237585 L 458 409 L 462.209517756016 398.83732514237585" stroke-miterlimit="10"></path></g><g transform="translate(-336,-334) scale(1,1)"><g><path fill="none" stroke="none"></path><text fill="#000000" stroke="none" font-family="Arial" font-size="13px" font-style="normal" font-weight="normal" text-decoration="none" x="472" y="401">li:lexiconDataset</text></g></g><g transform="translate(-336,-334) scale(1,1)"><g><path fill="none" stroke="none"></path><text fill="#000000" stroke="none" font-family="Arial" font-size="13px" font-style="normal" font-weight="normal" text-decoration="none" x="464" y="402">1</text></g></g><g transform="translate(-336,-334) scale(1,1)"><path fill="none" stroke="#000000" d="M 631 357 L 646 357 L 646 409" stroke-miterlimit="10"></path></g><g transform="translate(-336,-334) scale(1,1)"><path fill="none" stroke="#000000" d="M 641.790482243984 398.83732514237585 L 646 409 L 650.209517756016 398.83732514237585" stroke-miterlimit="10"></path></g><g transform="translate(-336,-334) scale(1,1)"><g><path fill="none" stroke="none"></path><text fill="#000000" stroke="none" font-family="Arial" font-size="13px" font-style="normal" font-weight="normal" text-decoration="none" x="524" y="386">li:conceptualDataset</text></g></g><g transform="translate(-336,-334) scale(1,1)"><g><path fill="none" stroke="none"></path><text fill="#000000" stroke="none" font-family="Arial" font-size="13px" font-style="normal" font-weight="normal" text-decoration="none" x="650" y="402">1</text></g></g><g transform="translate(-336,-334) scale(1,1)"><path fill="none" stroke="#000000" d="M 706 644 L 706 400 L 754 400" stroke-miterlimit="10"></path></g><g transform="translate(-336,-334) scale(1,1)"><path fill="none" stroke="#000000" d="M 743.8373251423759 404.209517756016 L 754 400 L 743.8373251423758 395.790482243984" stroke-miterlimit="10"></path></g><g transform="translate(-336,-334) scale(1,1)"><g><path fill="none" stroke="none"></path><text fill="#000000" stroke="none" font-family="Arial" font-size="13px" font-style="normal" font-weight="normal" text-decoration="none" x="710" y="516">nif:annotation</text></g></g><g transform="translate(-336,-334) scale(1,1)"><path fill="none" stroke="#000000" d="M 706 644 L 706 492 L 724 492" stroke-miterlimit="10"></path></g><g transform="translate(-336,-334) scale(1,1)"><path fill="none" stroke="#000000" d="M 713.8373251423759 496.209517756016 L 724 492 L 713.8373251423758 487.790482243984" stroke-miterlimit="10"></path></g><g transform="translate(-336,-334) scale(1,1)"><rect fill="#e2e2e2" stroke="none" x="752" y="344" width="92" height="62"></rect></g><g transform="translate(-336,-334) scale(1,1)"><path fill="none" stroke="#000000" d="M 752 344 L 844 344 L 844 406 L 752 406 L 752 344 Z Z" stroke-miterlimit="10"></path></g><g transform="translate(-336,-334) scale(1,1)"><path fill="none" stroke="#000000" d="M 752 369 L 844 369" stroke-miterlimit="10"></path></g><g transform="translate(-336,-334) scale(1,1)"><g><path fill="none" stroke="none"></path><text fill="#000000" stroke="none" font-family="Arial" font-size="13px" font-style="normal" font-weight="bold" text-decoration="none" x="761.5" y="363.5">nb:Predicate</text></g></g><g transform="translate(-336,-334) scale(1,1)"><g><path fill="none" stroke="none"></path><text fill="#000000" stroke="none" font-family="Arial" font-size="13px" font-style="normal" font-weight="normal" text-decoration="none" x="757" y="386.5">rdfs:label</text></g></g><g transform="translate(-336,-334) scale(1,1)"><g><path fill="none" stroke="none"></path><text fill="#000000" stroke="none" font-family="Arial" font-size="13px" font-style="normal" font-weight="normal" text-decoration="none" x="757" y="401.5">skos:definition</text></g></g><g transform="translate(-336,-334) scale(1,1)"><rect fill="#e2e2e2" stroke="none" x="740" y="532" width="118" height="77"></rect></g><g transform="translate(-336,-334) scale(1,1)"><path fill="none" stroke="#000000" d="M 740 532 L 858 532 L 858 609 L 740 609 L 740 532 Z Z" stroke-miterlimit="10"></path></g><g transform="translate(-336,-334) scale(1,1)"><path fill="none" stroke="#000000" d="M 740 557 L 858 557" stroke-miterlimit="10"></path></g><g transform="translate(-336,-334) scale(1,1)"><g><path fill="none" stroke="none"></path><text fill="#000000" stroke="none" font-family="Arial" font-size="13px" font-style="normal" font-weight="bold" text-decoration="none" x="749.5" y="551.5">nb:SemanticRole</text></g></g><g transform="translate(-336,-334) scale(1,1)"><g><path fill="none" stroke="none"></path><text fill="#000000" stroke="none" font-family="Arial" font-size="13px" font-style="normal" font-weight="normal" text-decoration="none" x="745" y="574.5">rdfs:label</text></g></g><g transform="translate(-336,-334) scale(1,1)"><g><path fill="none" stroke="none"></path><text fill="#000000" stroke="none" font-family="Arial" font-size="13px" font-style="normal" font-weight="normal" text-decoration="none" x="745" y="589.5">skos:definition</text></g></g><g transform="translate(-336,-334) scale(1,1)"><g><path fill="none" stroke="none"></path><text fill="#000000" stroke="none" font-family="Arial" font-size="13px" font-style="normal" font-weight="normal" text-decoration="none" x="745" y="604.5">rdfs:comment</text></g></g><g transform="translate(-336,-334) scale(1,1)"><rect fill="#e2e2e2" stroke="none" x="724" y="436" width="151" height="62"></rect></g><g transform="translate(-336,-334) scale(1,1)"><path fill="none" stroke="#000000" d="M 724 436 L 875 436 L 875 498 L 724 498 L 724 436 Z Z" stroke-miterlimit="10"></path></g><g transform="translate(-336,-334) scale(1,1)"><path fill="none" stroke="#000000" d="M 724 461 L 875 461" stroke-miterlimit="10"></path></g><g transform="translate(-336,-334) scale(1,1)"><g><path fill="none" stroke="none"></path><text fill="#000000" stroke="none" font-family="Arial" font-size="13px" font-style="normal" font-weight="bold" text-decoration="none" x="735" y="455.5">nb:SemanticArgument</text></g></g><g transform="translate(-336,-334) scale(1,1)"><g><path fill="none" stroke="none"></path><text fill="#000000" stroke="none" font-family="Arial" font-size="13px" font-style="normal" font-weight="normal" text-decoration="none" x="729" y="478.5">skos:definition</text></g></g><g transform="translate(-336,-334) scale(1,1)"><g><path fill="none" stroke="none"></path><text fill="#000000" stroke="none" font-family="Arial" font-size="13px" font-style="normal" font-weight="normal" text-decoration="none" x="729" y="493.5">:core</text></g></g><g transform="translate(-336,-334) scale(1,1)"><rect fill="#e2e2e2" stroke="none" x="892" y="532" width="124" height="24"></rect></g><g transform="translate(-336,-334) scale(1,1)"><path fill="none" stroke="#000000" d="M 892 532 L 1016 532 L 1016 556 L 892 556 L 892 532 Z Z" stroke-miterlimit="10"></path></g><g transform="translate(-336,-334) scale(1,1)"><g><path fill="none" stroke="none"></path><text fill="#000000" stroke="none" font-family="Arial" font-size="13px" font-style="normal" font-weight="bold" text-decoration="none" x="902.5" y="551.5">nb:NumberedRole</text></g></g><g transform="translate(-336,-334) scale(1,1)"><rect fill="#e2e2e2" stroke="none" x="892" y="564" width="110" height="24"></rect></g><g transform="translate(-336,-334) scale(1,1)"><path fill="none" stroke="#000000" d="M 892 564 L 1002 564 L 1002 588 L 892 588 L 892 564 Z Z" stroke-miterlimit="10"></path></g><g transform="translate(-336,-334) scale(1,1)"><g><path fill="none" stroke="none"></path><text fill="#000000" stroke="none" font-family="Arial" font-size="13px" font-style="normal" font-weight="bold" text-decoration="none" x="902.5" y="583.5">nb:ModifierRole</text></g></g><g transform="translate(-336,-334) scale(1,1)"><rect fill="#e2e2e2" stroke="none" x="612" y="644" width="53" height="24"></rect></g><g transform="translate(-336,-334) scale(1,1)"><path fill="none" stroke="#000000" d="M 612 644 L 665 644 L 665 668 L 612 668 L 612 644 Z Z" stroke-miterlimit="10"></path></g><g transform="translate(-336,-334) scale(1,1)"><g><path fill="none" stroke="none"></path><text fill="#000000" stroke="none" font-family="Arial" font-size="13px" font-style="normal" font-weight="bold" text-decoration="none" x="619" y="663.5">nb:Tag</text></g></g><g transform="translate(-336,-334) scale(1,1)"><rect fill="#e2e2e2" stroke="none" x="704" y="644" width="88" height="77"></rect></g><g transform="translate(-336,-334) scale(1,1)"><path fill="none" stroke="#000000" d="M 704 644 L 792 644 L 792 721 L 704 721 L 704 644 Z Z" stroke-miterlimit="10"></path></g><g transform="translate(-336,-334) scale(1,1)"><path fill="none" stroke="#000000" d="M 704 669 L 792 669" stroke-miterlimit="10"></path></g><g transform="translate(-336,-334) scale(1,1)"><g><path fill="none" stroke="none"></path><text fill="#000000" stroke="none" font-family="Arial" font-size="13px" font-style="normal" font-weight="bold" text-decoration="none" x="712.5" y="663.5">nb:Markable</text></g></g><g transform="translate(-336,-334) scale(1,1)"><g><path fill="none" stroke="none"></path><text fill="#000000" stroke="none" font-family="Arial" font-size="13px" font-style="normal" font-weight="normal" text-decoration="none" x="709" y="686.5">nif:beginIndex</text></g></g><g transform="translate(-336,-334) scale(1,1)"><g><path fill="none" stroke="none"></path><text fill="#000000" stroke="none" font-family="Arial" font-size="13px" font-style="normal" font-weight="normal" text-decoration="none" x="709" y="701.5">nif:endIndex</text></g></g><g transform="translate(-336,-334) scale(1,1)"><g><path fill="none" stroke="none"></path><text fill="#000000" stroke="none" font-family="Arial" font-size="13px" font-style="normal" font-weight="normal" text-decoration="none" x="709" y="716.5">nif:anchorOf</text></g></g><g transform="translate(-336,-334) scale(1,1)"><rect fill="#e2e2e2" stroke="none" x="828" y="644" width="88" height="62"></rect></g><g transform="translate(-336,-334) scale(1,1)"><path fill="none" stroke="#000000" d="M 828 644 L 916 644 L 916 706 L 828 706 L 828 644 Z Z" stroke-miterlimit="10"></path></g><g transform="translate(-336,-334) scale(1,1)"><path fill="none" stroke="#000000" d="M 828 669 L 916 669" stroke-miterlimit="10"></path></g><g transform="translate(-336,-334) scale(1,1)"><g><path fill="none" stroke="none"></path><text fill="#000000" stroke="none" font-family="Arial" font-size="13px" font-style="normal" font-weight="bold" text-decoration="none" x="837.5" y="663.5">nb:Example</text></g></g><g transform="translate(-336,-334) scale(1,1)"><g><path fill="none" stroke="none"></path><text fill="#000000" stroke="none" font-family="Arial" font-size="13px" font-style="normal" font-weight="normal" text-decoration="none" x="833" y="686.5">rdfs:comment</text></g></g><g transform="translate(-336,-334) scale(1,1)"><g><path fill="none" stroke="none"></path><text fill="#000000" stroke="none" font-family="Arial" font-size="13px" font-style="normal" font-weight="normal" text-decoration="none" x="833" y="701.5">nif:isString</text></g></g><g transform="translate(-336,-334) scale(1,1)"><path fill="none" stroke="#000000" d="M 892 544 L 858 544" stroke-miterlimit="10"></path></g><g transform="translate(-336,-334) scale(1,1)"><path fill="#FFFFFF" stroke="none" d="M 878.3253497152483 535.580964487968 L 858 544 L 878.3253497152483 552.419035512032"></path></g><g transform="translate(-336,-334) scale(1,1)"><path fill="none" stroke="#000000" d="M 878.3253497152483 535.580964487968 L 858 544 L 878.3253497152483 552.419035512032 L 878.3253497152483 535.580964487968" stroke-miterlimit="10"></path></g><g transform="translate(-336,-334) scale(1,1)"><path fill="none" stroke="#000000" d="M 892 576 L 884 576 L 884 544 L 858 544" stroke-miterlimit="10"></path></g><g transform="translate(-336,-334) scale(1,1)"><path fill="#FFFFFF" stroke="none" d="M 878.3253497152483 535.580964487968 L 858 544 L 878.3253497152483 552.419035512032"></path></g><g transform="translate(-336,-334) scale(1,1)"><path fill="none" stroke="#000000" d="M 878.3253497152483 535.580964487968 L 858 544 L 878.3253497152483 552.419035512032 L 878.3253497152483 535.580964487968" stroke-miterlimit="10"></path></g><g transform="translate(-336,-334) scale(1,1)"><path fill="none" stroke="#000000" d="M 704 660 L 665 660" stroke-miterlimit="10"></path></g><g transform="translate(-336,-334) scale(1,1)"><path fill="none" stroke="#000000" d="M 675.1626748576241 655.790482243984 L 665 660 L 675.1626748576241 664.209517756016" stroke-miterlimit="10"></path></g><g transform="translate(-336,-334) scale(1,1)"><g><path fill="none" stroke="none"></path><text fill="#000000" stroke="none" font-family="Arial" font-size="13px" font-style="normal" font-weight="normal" text-decoration="none" x="667" y="640">tag</text></g></g><g transform="translate(-336,-334) scale(1,1)"><g><path fill="none" stroke="none"></path><text fill="#000000" stroke="none" font-family="Arial" font-size="13px" font-style="normal" font-weight="normal" text-decoration="none" x="667" y="654">0..1</text></g></g></g></svg>