<svg version="1.1" xmlns="http://www.w3.org/2000/svg" xmlns:xlink="http://www.w3.org/1999/xlink" width="588" height="164"><defs/><g><g transform="translate(-22,-22) scale(1,1)"><rect fill="#99ffcc" stroke="none" x="256" y="32" width="115" height="24"/></g><g transform="translate(-22,-22) scale(1,1)"><path fill="none" stroke="#000000" d="M 256 32 L 371 32 L 371 56 L 256 56 L 256 32 Z Z" stroke-miterlimit="10"/></g><g transform="translate(-22,-22) scale(1,1)"><g><path fill="none" stroke="none"/><text fill="#000000" stroke="none" font-family="Arial" font-size="13px" font-style="normal" font-weight="bold" text-decoration="none" x="269" y="51.5">pmonb:RoleSet</text></g></g><g transform="translate(-22,-22) scale(1,1)"><rect fill="#e6e6ff" stroke="none" x="256" y="152" width="156" height="24"/></g><g transform="translate(-22,-22) scale(1,1)"><path fill="none" stroke="#000000" d="M 256 152 L 412 152 L 412 176 L 256 176 L 256 152 Z Z" stroke-miterlimit="10"/></g><g transform="translate(-22,-22) scale(1,1)"><g><path fill="none" stroke="none"/><text fill="#000000" stroke="none" font-family="Arial" font-size="13px" font-style="normal" font-weight="bold" text-decoration="none" x="284.5" y="171.5">pmonb:Argument</text></g></g><g transform="translate(-22,-22) scale(1,1)"><rect fill="#99ffcc" stroke="none" x="240" y="80" width="176" height="47"/></g><g transform="translate(-22,-22) scale(1,1)"><path fill="none" stroke="#000000" d="M 240 80 L 416 80 L 416 127 L 240 127 L 240 80 Z Z" stroke-miterlimit="10"/></g><g transform="translate(-22,-22) scale(1,1)"><path fill="none" stroke="#000000" d="M 240 105 L 416 105" stroke-miterlimit="10"/></g><g transform="translate(-22,-22) scale(1,1)"><g><path fill="none" stroke="none"/><text fill="#000000" stroke="none" font-family="Arial" font-size="13px" font-style="normal" font-weight="bold" text-decoration="none" x="266" y="99.5">pmonb:SemanticRole</text></g></g><g transform="translate(-22,-22) scale(1,1)"><g><path fill="none" stroke="none"/><text fill="#000000" stroke="none" font-family="Arial" font-size="13px" font-style="normal" font-weight="normal" text-decoration="none" x="245" y="122.5">pmopn: core</text></g></g><g transform="translate(-22,-22) scale(1,1)"><rect fill="#e6e6ff" stroke="none" x="32" y="152" width="196.41796875" height="24"/></g><g transform="translate(-22,-22) scale(1,1)"><path fill="none" stroke="#000000" d="M 32 152 L 228.41796875 152 L 228.41796875 176 L 32 176 L 32 152 Z Z" stroke-miterlimit="10"/></g><g transform="translate(-22,-22) scale(1,1)"><g><path fill="none" stroke="none"/><text fill="#000000" stroke="none" font-family="Arial" font-size="13px" font-style="normal" font-weight="bold" text-decoration="none" x="51.208984375" y="171.5">pmonb:NumberedArgument</text></g></g><g transform="translate(-22,-22) scale(1,1)"><rect fill="#e6e6ff" stroke="none" x="440" y="152" width="160" height="24"/></g><g transform="translate(-22,-22) scale(1,1)"><path fill="none" stroke="#000000" d="M 440 152 L 600 152 L 600 176 L 440 176 L 440 152 Z Z" stroke-miterlimit="10"/></g><g transform="translate(-22,-22) scale(1,1)"><g><path fill="none" stroke="none"/><text fill="#000000" stroke="none" font-family="Arial" font-size="13px" font-style="normal" font-weight="bold" text-decoration="none" x="475.5" y="171.5">pmonb:Modifier</text></g></g><g transform="translate(-22,-22) scale(1,1)"><path fill="none" stroke="#000000" d="M 228 164 L 256 164" stroke-miterlimit="10"/></g><g transform="translate(-22,-22) scale(1,1)"><path fill="#FFFFFF" stroke="none" d="M 235.6746502847517 172.41903551203197 L 256 164 L 235.6746502847517 155.58096448796803"/></g><g transform="translate(-22,-22) scale(1,1)"><path fill="none" stroke="#000000" d="M 235.6746502847517 172.41903551203197 L 256 164 L 235.6746502847517 155.58096448796803 L 235.6746502847517 172.41903551203197" stroke-miterlimit="10"/></g><g transform="translate(-22,-22) scale(1,1)"><path fill="none" stroke="#000000" d="M 440 164 L 412 164" stroke-miterlimit="10"/></g><g transform="translate(-22,-22) scale(1,1)"><path fill="#FFFFFF" stroke="none" d="M 432.3253497152483 155.58096448796803 L 412 164 L 432.3253497152483 172.41903551203197"/></g><g transform="translate(-22,-22) scale(1,1)"><path fill="none" stroke="#000000" d="M 432.3253497152483 155.58096448796803 L 412 164 L 432.3253497152483 172.41903551203197 L 432.3253497152483 155.58096448796803" stroke-miterlimit="10"/></g><g transform="translate(-22,-22) scale(1,1)"><rect fill="#99ffcc" stroke="none" x="57" y="112" width="135" height="24"/></g><g transform="translate(-22,-22) scale(1,1)"><path fill="none" stroke="#000000" d="M 57 112 L 192 112 L 192 136 L 57 136 L 57 112 Z Z" stroke-miterlimit="10"/></g><g transform="translate(-22,-22) scale(1,1)"><g><path fill="none" stroke="none"/><text fill="#000000" stroke="none" font-family="Arial" font-size="13px" font-style="normal" font-weight="bold" text-decoration="none" x="69.5" y="131.5">pmo:SemanticRole</text></g></g><g transform="translate(-22,-22) scale(1,1)"><rect fill="#99ffcc" stroke="none" x="56" y="56" width="139.212890625" height="24"/></g><g transform="translate(-22,-22) scale(1,1)"><path fill="none" stroke="#000000" d="M 56 56 L 195.212890625 56 L 195.212890625 80 L 56 80 L 56 56 Z Z" stroke-miterlimit="10"/></g><g transform="translate(-22,-22) scale(1,1)"><g><path fill="none" stroke="none"/><text fill="#000000" stroke="none" font-family="Arial" font-size="13px" font-style="normal" font-weight="bold" text-decoration="none" x="67.1064453125" y="75.5">pmo:SemanticClass</text></g></g><g transform="translate(-22,-22) scale(1,1)"><path fill="none" stroke="#000000" d="M 73 80 L 73 112" stroke-miterlimit="10"/></g><g transform="translate(-22,-22) scale(1,1)"><path fill="none" stroke="#000000" d="M 68.79048224398402 101.83732514237585 L 73 112 L 77.20951775601598 101.83732514237585" stroke-miterlimit="10"/></g><g transform="translate(-22,-22) scale(1,1)"><g><path fill="none" stroke="none"/><text fill="#000000" stroke="none" font-family="Arial" font-size="13px" font-style="normal" font-weight="normal" text-decoration="none" x="76" y="93">pmo:semRole</text></g></g><g transform="translate(-22,-22) scale(1,1)"><g><path fill="none" stroke="none"/><text fill="#000000" stroke="none" font-family="Arial" font-size="13px" font-style="normal" font-weight="normal" text-decoration="none" x="80" y="108">1</text></g></g><g transform="translate(-22,-22) scale(1,1)"><path fill="none" stroke="#000000" d="M 256 48 L 232 48 L 232 72 L 195 72" stroke-miterlimit="10"/></g><g transform="translate(-22,-22) scale(1,1)"><path fill="#FFFFFF" stroke="none" d="M 215.3253497152483 63.580964487968025 L 195 72 L 215.3253497152483 80.41903551203197"/></g><g transform="translate(-22,-22) scale(1,1)"><path fill="none" stroke="#000000" d="M 215.3253497152483 63.580964487968025 L 195 72 L 215.3253497152483 80.41903551203197 L 215.3253497152483 63.580964487968025" stroke-miterlimit="10"/></g><g transform="translate(-22,-22) scale(1,1)"><path fill="none" stroke="#000000" d="M 240 112 L 224 112 L 224 128 L 192 128" stroke-miterlimit="10"/></g><g transform="translate(-22,-22) scale(1,1)"><path fill="#FFFFFF" stroke="none" d="M 212.3253497152483 119.58096448796803 L 192 128 L 212.3253497152483 136.41903551203197"/></g><g transform="translate(-22,-22) scale(1,1)"><path fill="none" stroke="#000000" d="M 212.3253497152483 119.58096448796803 L 192 128 L 212.3253497152483 136.41903551203197 L 212.3253497152483 119.58096448796803" stroke-miterlimit="10"/></g><g transform="translate(-22,-22) scale(1,1)"><path fill="none" stroke="#000000" d="M 296 127 L 296 152" stroke-miterlimit="10"/></g><g transform="translate(-22,-22) scale(1,1)"><path fill="none" stroke="#000000" d="M 291.790482243984 141.83732514237585 L 296 152 L 300.209517756016 141.83732514237585" stroke-miterlimit="10"/></g><g transform="translate(-22,-22) scale(1,1)"><g><path fill="none" stroke="none"/><text fill="#000000" stroke="none" font-family="Arial" font-size="13px" font-style="normal" font-weight="normal" text-decoration="none" x="311" y="148">pmonb:argument</text></g></g><g transform="translate(-22,-22) scale(1,1)"><g><path fill="none" stroke="none"/><text fill="#000000" stroke="none" font-family="Arial" font-size="13px" font-style="normal" font-weight="normal" text-decoration="none" x="280" y="149">1</text></g></g><g transform="translate(-22,-22) scale(1,1)"><rect fill="#e6e6ff" stroke="none" x="480" y="72" width="93" height="62"/></g><g transform="translate(-22,-22) scale(1,1)"><path fill="none" stroke="#000000" d="M 480 72 L 573 72 L 573 134 L 480 134 L 480 72 Z Z" stroke-miterlimit="10"/></g><g transform="translate(-22,-22) scale(1,1)"><path fill="none" stroke="#000000" d="M 480 97 L 573 97" stroke-miterlimit="10"/></g><g transform="translate(-22,-22) scale(1,1)"><g><path fill="none" stroke="none"/><text fill="#000000" stroke="none" font-family="Arial" font-size="13px" font-style="normal" font-weight="bold" text-decoration="none" x="494" y="91.5">pmonb:Tag</text></g></g><g transform="translate(-22,-22) scale(1,1)"><g><path fill="none" stroke="none"/><text fill="#000000" stroke="none" font-family="Arial" font-size="13px" font-style="normal" font-weight="normal" text-decoration="none" x="485" y="114.5">rdfs:label</text></g></g><g transform="translate(-22,-22) scale(1,1)"><g><path fill="none" stroke="none"/><text fill="#000000" stroke="none" font-family="Arial" font-size="13px" font-style="normal" font-weight="normal" text-decoration="none" x="485" y="129.5">skos:definition</text></g></g><g transform="translate(-22,-22) scale(1,1)"><rect fill="#ffffcc" stroke="none" x="392" y="32" width="105.9638671875" height="24"/></g><g transform="translate(-22,-22) scale(1,1)"><path fill="none" stroke="#000000" d="M 392 32 L 497.9638671875 32 L 497.9638671875 56 L 392 56 L 392 32 Z Z" stroke-miterlimit="10"/></g><g transform="translate(-22,-22) scale(1,1)"><g><path fill="none" stroke="none"/><text fill="#000000" stroke="none" font-family="Arial" font-size="13px" font-style="normal" font-weight="bold" text-decoration="none" x="404.98193359375" y="51.5">nif:Annotation</text></g></g><g transform="translate(-22,-22) scale(1,1)"><path fill="none" stroke="#000000" d="M 498 48 L 528 48 L 528 72" stroke-miterlimit="10"/></g><g transform="translate(-22,-22) scale(1,1)"><path fill="none" stroke="#000000" d="M 523.790482243984 61.837325142375846 L 528 72 L 532.209517756016 61.837325142375846" stroke-miterlimit="10"/></g><g transform="translate(-22,-22) scale(1,1)"><g><path fill="none" stroke="none"/><text fill="#000000" stroke="none" font-family="Arial" font-size="13px" font-style="normal" font-weight="normal" text-decoration="none" x="504" y="45">pmonb:tag</text></g></g><g transform="translate(-22,-22) scale(1,1)"><g><path fill="none" stroke="none"/><text fill="#000000" stroke="none" font-family="Arial" font-size="13px" font-style="normal" font-weight="normal" text-decoration="none" x="535" y="66">0..1</text></g></g></g></svg>