<svg version="1.1" xmlns="http://www.w3.org/2000/svg" xmlns:xlink="http://www.w3.org/1999/xlink" width="718" height="480"><defs></defs><g><g transform="translate(-70,-54) scale(1,1)"><path fill="none" stroke="#000000" d="M 532 212 L 532 252" stroke-miterlimit="10"></path></g><g transform="translate(-70,-54) scale(1,1)"><path fill="none" stroke="#000000" d="M 527.790482243984 241.83732514237585 L 532 252 L 536.209517756016 241.83732514237585" stroke-miterlimit="10"></path></g><g transform="translate(-70,-54) scale(1,1)"><g><path fill="none" stroke="none"></path><text fill="#000000" stroke="none" font-family="Arial" font-size="13px" font-style="normal" font-weight="normal" text-decoration="none" x="536" y="233">:role</text></g></g><g transform="translate(-70,-54) scale(1,1)"><g><path fill="none" stroke="none"></path><text fill="#000000" stroke="none" font-family="Arial" font-size="13px" font-style="normal" font-weight="normal" text-decoration="none" x="535" y="244">0..1</text></g></g><g transform="translate(-70,-54) scale(1,1)"><rect fill="#ffffff" stroke="none" x="488" y="64" width="74" height="56"></rect></g><g transform="translate(-70,-54) scale(1,1)"><path fill="none" stroke="#000000" d="M 488 64 L 562 64 L 562 120 L 488 120 L 488 64 Z Z" stroke-miterlimit="10"></path></g><g transform="translate(-70,-54) scale(1,1)"><g><path fill="none" stroke="none"></path><text fill="#000000" stroke="none" font-family="Arial" font-size="13px" font-style="normal" font-weight="bold" text-decoration="none" x="495.5" y="83.5">:Predicate</text></g></g><g transform="translate(-70,-54) scale(1,1)"><rect fill="#ffffff" stroke="none" x="456" y="156" width="138" height="56"></rect></g><g transform="translate(-70,-54) scale(1,1)"><path fill="none" stroke="#000000" d="M 456 156 L 594 156 L 594 212 L 456 212 L 456 156 Z Z" stroke-miterlimit="10"></path></g><g transform="translate(-70,-54) scale(1,1)"><g><path fill="none" stroke="none"></path><text fill="#000000" stroke="none" font-family="Arial" font-size="13px" font-style="normal" font-weight="bold" text-decoration="none" x="467.5" y="175.5">:SemanticArgument</text></g></g><g transform="translate(-70,-54) scale(1,1)"><rect fill="#ffffff" stroke="none" x="484" y="252" width="102" height="24"></rect></g><g transform="translate(-70,-54) scale(1,1)"><path fill="none" stroke="#000000" d="M 484 252 L 586 252 L 586 276 L 484 276 L 484 252 Z Z" stroke-miterlimit="10"></path></g><g transform="translate(-70,-54) scale(1,1)"><g><path fill="none" stroke="none"></path><text fill="#000000" stroke="none" font-family="Arial" font-size="13px" font-style="normal" font-weight="bold" text-decoration="none" x="492.5" y="271.5">:SemanticRole</text></g></g><g transform="translate(-70,-54) scale(1,1)"><rect fill="#ffffff" stroke="none" x="115" y="187" width="112" height="77"></rect></g><g transform="translate(-70,-54) scale(1,1)"><path fill="none" stroke="#000000" d="M 115 187 L 227 187 L 227 264 L 115 264 L 115 187 Z Z" stroke-miterlimit="10"></path></g><g transform="translate(-70,-54) scale(1,1)"><path fill="none" stroke="#000000" d="M 115 212 L 227 212" stroke-miterlimit="10"></path></g><g transform="translate(-70,-54) scale(1,1)"><g><path fill="none" stroke="none"></path><text fill="#000000" stroke="none" font-family="Arial" font-size="13px" font-style="normal" font-weight="bold" text-decoration="none" x="128" y="206.5">ol:LexicalEntry</text></g></g><g transform="translate(-70,-54) scale(1,1)"><g><path fill="none" stroke="none"></path><text fill="#000000" stroke="none" font-family="Arial" font-size="13px" font-style="normal" font-weight="normal" text-decoration="none" x="120" y="229.5">le:partOfSpeech</text></g></g><g transform="translate(-70,-54) scale(1,1)"><g><path fill="none" stroke="none"></path><text fill="#000000" stroke="none" font-family="Arial" font-size="13px" font-style="normal" font-weight="normal" text-decoration="none" x="120" y="244.5">rdfs:label</text></g></g><g transform="translate(-70,-54) scale(1,1)"><g><path fill="none" stroke="none"></path><text fill="#000000" stroke="none" font-family="Arial" font-size="13px" font-style="normal" font-weight="normal" text-decoration="none" x="120" y="259.5">ol:language</text></g></g><g transform="translate(-70,-54) scale(1,1)"><path fill="none" stroke="#000000" d="M 532 120 L 532 156" stroke-miterlimit="10"></path></g><g transform="translate(-70,-54) scale(1,1)"><path fill="none" stroke="#000000" d="M 527.790482243984 145.83732514237585 L 532 156 L 536.209517756016 145.83732514237585" stroke-miterlimit="10"></path></g><g transform="translate(-70,-54) scale(1,1)"><g><path fill="none" stroke="none"></path><text fill="#000000" stroke="none" font-family="Arial" font-size="13px" font-style="normal" font-weight="normal" text-decoration="none" x="480" y="144">:semArg</text></g></g><g transform="translate(-70,-54) scale(1,1)"><path fill="none" stroke="#000000" d="M 280 205 L 227 205" stroke-miterlimit="10"></path></g><g transform="translate(-70,-54) scale(1,1)"><path fill="none" stroke="#000000" d="M 269.83732514237585 209.209517756016 L 280 205 L 269.83732514237585 200.790482243984" stroke-miterlimit="10"></path></g><g transform="translate(-70,-54) scale(1,1)"><g><path fill="none" stroke="none"></path><text fill="#000000" stroke="none" font-family="Arial" font-size="13px" font-style="normal" font-weight="normal" text-decoration="none" x="227" y="202">ol:evokes</text></g></g><g transform="translate(-70,-54) scale(1,1)"><rect fill="#ffffff" stroke="none" x="80" y="104" width="84" height="47"></rect></g><g transform="translate(-70,-54) scale(1,1)"><path fill="none" stroke="#000000" d="M 80 104 L 164 104 L 164 151 L 80 151 L 80 104 Z Z" stroke-miterlimit="10"></path></g><g transform="translate(-70,-54) scale(1,1)"><path fill="none" stroke="#000000" d="M 80 129 L 164 129" stroke-miterlimit="10"></path></g><g transform="translate(-70,-54) scale(1,1)"><g><path fill="none" stroke="none"></path><text fill="#000000" stroke="none" font-family="Arial" font-size="13px" font-style="normal" font-weight="bold" text-decoration="none" x="100" y="123.5">ol:Form</text></g></g><g transform="translate(-70,-54) scale(1,1)"><g><path fill="none" stroke="none"></path><text fill="#000000" stroke="none" font-family="Arial" font-size="13px" font-style="normal" font-weight="normal" text-decoration="none" x="85" y="146.5">ol:writtenRep</text></g></g><g transform="translate(-70,-54) scale(1,1)"><path fill="none" stroke="#000000" d="M 115 200 L 92 200 L 92 151" stroke-miterlimit="10"></path></g><g transform="translate(-70,-54) scale(1,1)"><path fill="none" stroke="#000000" d="M 96.20951775601598 161.16267485762415 L 92 151 L 87.79048224398402 161.16267485762415" stroke-miterlimit="10"></path></g><g transform="translate(-70,-54) scale(1,1)"><g><path fill="none" stroke="none"></path><text fill="#000000" stroke="none" font-family="Arial" font-size="13px" font-style="normal" font-weight="normal" text-decoration="none" x="95" y="180">ol:canonicalForm</text></g></g><g transform="translate(-70,-54) scale(1,1)"><g><path fill="none" stroke="none"></path><text fill="#000000" stroke="none" font-family="Arial" font-size="13px" font-style="normal" font-weight="normal" text-decoration="none" x="104" y="217">1</text></g></g><g transform="translate(-70,-54) scale(1,1)"><g><path fill="none" stroke="none"></path><text fill="#000000" stroke="none" font-family="Arial" font-size="13px" font-style="normal" font-weight="normal" text-decoration="none" x="100" y="166">1</text></g></g><g transform="translate(-70,-54) scale(1,1)"><rect fill="#ffffff" stroke="none" x="180" y="129" width="76" height="24"></rect></g><g transform="translate(-70,-54) scale(1,1)"><path fill="none" stroke="#000000" d="M 180 129 L 256 129 L 256 153 L 180 153 L 180 129 Z Z" stroke-miterlimit="10"></path></g><g transform="translate(-70,-54) scale(1,1)"><g><path fill="none" stroke="none"></path><text fill="#000000" stroke="none" font-family="Arial" font-size="13px" font-style="normal" font-weight="bold" text-decoration="none" x="188.5" y="148.5">ol:Lexicon</text></g></g><g transform="translate(-70,-54) scale(1,1)"><path fill="none" stroke="#000000" d="M 212 153 L 212 187" stroke-miterlimit="10"></path></g><g transform="translate(-70,-54) scale(1,1)"><path fill="none" stroke="#000000" d="M 207.790482243984 176.83732514237585 L 212 187 L 216.209517756016 176.83732514237585" stroke-miterlimit="10"></path></g><g transform="translate(-70,-54) scale(1,1)"><g><path fill="none" stroke="none"></path><text fill="#000000" stroke="none" font-family="Arial" font-size="13px" font-style="normal" font-weight="normal" text-decoration="none" x="215" y="173">ol:entry</text></g></g><g transform="translate(-70,-54) scale(1,1)"><path fill="none" stroke="#000000" d="M 144 264 L 144 284 L 132 284 L 132 264" stroke-miterlimit="10"></path></g><g transform="translate(-70,-54) scale(1,1)"><path fill="none" stroke="#000000" d="M 148.209517756016 274.16267485762415 L 144 264 L 139.790482243984 274.16267485762415" stroke-miterlimit="10"></path></g><g transform="translate(-70,-54) scale(1,1)"><g><path fill="none" stroke="none"></path><text fill="#000000" stroke="none" font-family="Arial" font-size="13px" font-style="normal" font-weight="normal" text-decoration="none" x="108" y="295">de:subterm</text></g></g><g transform="translate(-70,-54) scale(1,1)"><rect fill="#ffffff" stroke="none" x="280" y="187" width="124" height="24"></rect></g><g transform="translate(-70,-54) scale(1,1)"><path fill="none" stroke="#000000" d="M 280 187 L 404 187 L 404 211 L 280 211 L 280 187 Z Z" stroke-miterlimit="10"></path></g><g transform="translate(-70,-54) scale(1,1)"><g><path fill="none" stroke="none"></path><text fill="#000000" stroke="none" font-family="Arial" font-size="13px" font-style="normal" font-weight="bold" text-decoration="none" x="290.5" y="206.5">ol:LexicalConcept</text></g></g><g transform="translate(-70,-54) scale(1,1)"><path fill="none" stroke="#000000" d="M 488 104 L 432 104 L 432 192 L 404 192" stroke-miterlimit="10"></path></g><g transform="translate(-70,-54) scale(1,1)"><path fill="#FFFFFF" stroke="none" d="M 424.3253497152483 183.58096448796803 L 404 192 L 424.3253497152483 200.41903551203197"></path></g><g transform="translate(-70,-54) scale(1,1)"><path fill="none" stroke="#000000" d="M 424.3253497152483 183.58096448796803 L 404 192 L 424.3253497152483 200.41903551203197 L 424.3253497152483 183.58096448796803" stroke-miterlimit="10"></path></g><g transform="translate(-70,-54) scale(1,1)"><rect fill="#ffffff" stroke="none" x="304" y="129" width="99" height="24"></rect></g><g transform="translate(-70,-54) scale(1,1)"><path fill="none" stroke="#000000" d="M 304 129 L 403 129 L 403 153 L 304 153 L 304 129 Z Z" stroke-miterlimit="10"></path></g><g transform="translate(-70,-54) scale(1,1)"><g><path fill="none" stroke="none"></path><text fill="#000000" stroke="none" font-family="Arial" font-size="13px" font-style="normal" font-weight="bold" text-decoration="none" x="312.5" y="148.5">ol:ConceptSet</text></g></g><g transform="translate(-70,-54) scale(1,1)"><path fill="none" stroke="#000000" d="M 380 187 L 380 153" stroke-miterlimit="10"></path></g><g transform="translate(-70,-54) scale(1,1)"><path fill="none" stroke="#000000" d="M 384.209517756016 163.16267485762415 L 380 153 L 375.790482243984 163.16267485762415" stroke-miterlimit="10"></path></g><g transform="translate(-70,-54) scale(1,1)"><g><path fill="none" stroke="none"></path><text fill="#000000" stroke="none" font-family="Arial" font-size="13px" font-style="normal" font-weight="normal" text-decoration="none" x="284" y="173">skos:inScheme</text></g></g><g transform="translate(-70,-54) scale(1,1)"><path fill="none" stroke="#000000" d="M 456 192 L 404 192" stroke-miterlimit="10"></path></g><g transform="translate(-70,-54) scale(1,1)"><path fill="#FFFFFF" stroke="none" d="M 424.3253497152483 183.58096448796803 L 404 192 L 424.3253497152483 200.41903551203197"></path></g><g transform="translate(-70,-54) scale(1,1)"><path fill="none" stroke="#000000" d="M 424.3253497152483 183.58096448796803 L 404 192 L 424.3253497152483 200.41903551203197 L 424.3253497152483 183.58096448796803" stroke-miterlimit="10"></path></g><g transform="translate(-70,-54) scale(1,1)"><rect fill="#ffffff" stroke="none" x="216" y="288" width="128" height="24"></rect></g><g transform="translate(-70,-54) scale(1,1)"><path fill="none" stroke="#000000" d="M 216 288 L 344 288 L 344 312 L 216 312 L 216 288 Z Z" stroke-miterlimit="10"></path></g><g transform="translate(-70,-54) scale(1,1)"><g><path fill="none" stroke="none"></path><text fill="#000000" stroke="none" font-family="Arial" font-size="13px" font-style="normal" font-weight="bold" text-decoration="none" x="226.5" y="307.5">:Conceptualization</text></g></g><g transform="translate(-70,-54) scale(1,1)"><path fill="none" stroke="#000000" d="M 344 297 L 356 297 L 356 211" stroke-miterlimit="10"></path></g><g transform="translate(-70,-54) scale(1,1)"><path fill="none" stroke="#000000" d="M 360.209517756016 221.16267485762415 L 356 211 L 351.790482243984 221.16267485762415" stroke-miterlimit="10"></path></g><g transform="translate(-70,-54) scale(1,1)"><g><path fill="none" stroke="none"></path><text fill="#000000" stroke="none" font-family="Arial" font-size="13px" font-style="normal" font-weight="normal" text-decoration="none" x="258" y="257">:evokedConcept</text></g></g><g transform="translate(-70,-54) scale(1,1)"><g><path fill="none" stroke="none"></path><text fill="#000000" stroke="none" font-family="Arial" font-size="13px" font-style="normal" font-weight="normal" text-decoration="none" x="345" y="241">1</text></g></g><g transform="translate(-70,-54) scale(1,1)"><path fill="none" stroke="#000000" d="M 216 299 L 204 299 L 204 264" stroke-miterlimit="10"></path></g><g transform="translate(-70,-54) scale(1,1)"><path fill="none" stroke="#000000" d="M 208.209517756016 274.16267485762415 L 204 264 L 199.790482243984 274.16267485762415" stroke-miterlimit="10"></path></g><g transform="translate(-70,-54) scale(1,1)"><g><path fill="none" stroke="none"></path><text fill="#000000" stroke="none" font-family="Arial" font-size="13px" font-style="normal" font-weight="normal" text-decoration="none" x="218" y="280">:evokingEntry</text></g></g><g transform="translate(-70,-54) scale(1,1)"><g><path fill="none" stroke="none"></path><text fill="#000000" stroke="none" font-family="Arial" font-size="13px" font-style="normal" font-weight="normal" text-decoration="none" x="208" y="287">1</text></g></g><g transform="translate(-70,-54) scale(1,1)"><path fill="none" stroke="#000000" d="M 272 312 L 272 328 L 292 328 L 292 312" stroke-miterlimit="10"></path></g><g transform="translate(-70,-54) scale(1,1)"><path fill="none" stroke="#000000" d="M 296.209517756016 322.16267485762415 L 292 312 L 287.790482243984 322.16267485762415" stroke-miterlimit="10"></path></g><g transform="translate(-70,-54) scale(1,1)"><g><path fill="none" stroke="none"></path><text fill="#000000" stroke="none" font-family="Arial" font-size="13px" font-style="normal" font-weight="normal" text-decoration="none" x="233" y="340">skos:exactMatch</text></g></g><g transform="translate(-70,-54) scale(1,1)"><g><path fill="none" stroke="none"></path><text fill="#000000" stroke="none" font-family="Arial" font-size="13px" font-style="normal" font-weight="normal" text-decoration="none" x="229" y="350">/ skos:closeMatch</text></g></g><g transform="translate(-70,-54) scale(1,1)"><rect fill="#ffffff" stroke="none" x="564" y="364" width="69" height="24"></rect></g><g transform="translate(-70,-54) scale(1,1)"><path fill="none" stroke="#000000" d="M 564 364 L 633 364 L 633 388 L 564 388 L 564 364 Z Z" stroke-miterlimit="10"></path></g><g transform="translate(-70,-54) scale(1,1)"><g><path fill="none" stroke="none"></path><text fill="#000000" stroke="none" font-family="Arial" font-size="13px" font-style="normal" font-weight="bold" text-decoration="none" x="571" y="383.5">:Example</text></g></g><g transform="translate(-70,-54) scale(1,1)"><rect fill="#ffffff" stroke="none" x="436" y="364" width="72" height="24"></rect></g><g transform="translate(-70,-54) scale(1,1)"><path fill="none" stroke="#000000" d="M 436 364 L 508 364 L 508 388 L 436 388 L 436 364 Z Z" stroke-miterlimit="10"></path></g><g transform="translate(-70,-54) scale(1,1)"><g><path fill="none" stroke="none"></path><text fill="#000000" stroke="none" font-family="Arial" font-size="13px" font-style="normal" font-weight="bold" text-decoration="none" x="443.5" y="383.5">:Markable</text></g></g><g transform="translate(-70,-54) scale(1,1)"><path fill="none" stroke="#000000" d="M 508 380 L 564 380" stroke-miterlimit="10"></path></g><g transform="translate(-70,-54) scale(1,1)"><path fill="none" stroke="#000000" d="M 553.8373251423759 384.209517756016 L 564 380 L 553.8373251423758 375.790482243984" stroke-miterlimit="10"></path></g><g transform="translate(-70,-54) scale(1,1)"><g><path fill="none" stroke="none"></path><text fill="#000000" stroke="none" font-family="Arial" font-size="13px" font-style="normal" font-weight="normal" text-decoration="none" x="524" y="361">nif:referenceContext</text></g></g><g transform="translate(-70,-54) scale(1,1)"><g><path fill="none" stroke="none"></path><text fill="#000000" stroke="none" font-family="Arial" font-size="13px" font-style="normal" font-weight="normal" text-decoration="none" x="552" y="372">1</text></g></g><g transform="translate(-70,-54) scale(1,1)"><rect fill="#ffffff" stroke="none" x="208" y="65" width="157" height="24"></rect></g><g transform="translate(-70,-54) scale(1,1)"><path fill="none" stroke="#000000" d="M 208 65 L 365 65 L 365 89 L 208 89 L 208 65 Z Z" stroke-miterlimit="10"></path></g><g transform="translate(-70,-54) scale(1,1)"><g><path fill="none" stroke="none"></path><text fill="#000000" stroke="none" font-family="Arial" font-size="13px" font-style="normal" font-weight="bold" text-decoration="none" x="220" y="84.5">li:ConceptualizationSet</text></g></g><g transform="translate(-70,-54) scale(1,1)"><path fill="none" stroke="#000000" d="M 208 77 L 192 77 L 192 129" stroke-miterlimit="10"></path></g><g transform="translate(-70,-54) scale(1,1)"><path fill="none" stroke="#000000" d="M 187.790482243984 118.83732514237585 L 192 129 L 196.209517756016 118.83732514237585" stroke-miterlimit="10"></path></g><g transform="translate(-70,-54) scale(1,1)"><g><path fill="none" stroke="none"></path><text fill="#000000" stroke="none" font-family="Arial" font-size="13px" font-style="normal" font-weight="normal" text-decoration="none" x="206" y="121">li:lexiconDataset</text></g></g><g transform="translate(-70,-54) scale(1,1)"><g><path fill="none" stroke="none"></path><text fill="#000000" stroke="none" font-family="Arial" font-size="13px" font-style="normal" font-weight="normal" text-decoration="none" x="198" y="122">1</text></g></g><g transform="translate(-70,-54) scale(1,1)"><path fill="none" stroke="#000000" d="M 365 77 L 380 77 L 380 129" stroke-miterlimit="10"></path></g><g transform="translate(-70,-54) scale(1,1)"><path fill="none" stroke="#000000" d="M 375.790482243984 118.83732514237585 L 380 129 L 384.209517756016 118.83732514237585" stroke-miterlimit="10"></path></g><g transform="translate(-70,-54) scale(1,1)"><g><path fill="none" stroke="none"></path><text fill="#000000" stroke="none" font-family="Arial" font-size="13px" font-style="normal" font-weight="normal" text-decoration="none" x="258" y="106">li:conceptualDataset</text></g></g><g transform="translate(-70,-54) scale(1,1)"><g><path fill="none" stroke="none"></path><text fill="#000000" stroke="none" font-family="Arial" font-size="13px" font-style="normal" font-weight="normal" text-decoration="none" x="384" y="122">1</text></g></g><g transform="translate(-70,-54) scale(1,1)"><rect fill="#e2e2e2" stroke="none" x="488" y="64" width="100" height="62"></rect></g><g transform="translate(-70,-54) scale(1,1)"><path fill="none" stroke="#000000" d="M 488 64 L 588 64 L 588 126 L 488 126 L 488 64 Z Z" stroke-miterlimit="10"></path></g><g transform="translate(-70,-54) scale(1,1)"><path fill="none" stroke="#000000" d="M 488 89 L 588 89" stroke-miterlimit="10"></path></g><g transform="translate(-70,-54) scale(1,1)"><g><path fill="none" stroke="none"></path><text fill="#000000" stroke="none" font-family="Arial" font-size="13px" font-style="normal" font-weight="bold" text-decoration="none" x="501.5" y="83.5">pb:Predicate</text></g></g><g transform="translate(-70,-54) scale(1,1)"><g><path fill="none" stroke="none"></path><text fill="#000000" stroke="none" font-family="Arial" font-size="13px" font-style="normal" font-weight="normal" text-decoration="none" x="493" y="106.5">rdfs:label</text></g></g><g transform="translate(-70,-54) scale(1,1)"><g><path fill="none" stroke="none"></path><text fill="#000000" stroke="none" font-family="Arial" font-size="13px" font-style="normal" font-weight="normal" text-decoration="none" x="493" y="121.5">skos:definition</text></g></g><g transform="translate(-70,-54) scale(1,1)"><rect fill="#e2e2e2" stroke="none" x="456" y="156" width="154" height="62"></rect></g><g transform="translate(-70,-54) scale(1,1)"><path fill="none" stroke="#000000" d="M 456 156 L 610 156 L 610 218 L 456 218 L 456 156 Z Z" stroke-miterlimit="10"></path></g><g transform="translate(-70,-54) scale(1,1)"><path fill="none" stroke="#000000" d="M 456 181 L 610 181" stroke-miterlimit="10"></path></g><g transform="translate(-70,-54) scale(1,1)"><g><path fill="none" stroke="none"></path><text fill="#000000" stroke="none" font-family="Arial" font-size="13px" font-style="normal" font-weight="bold" text-decoration="none" x="468.5" y="175.5">pb:SemanticArgument</text></g></g><g transform="translate(-70,-54) scale(1,1)"><g><path fill="none" stroke="none"></path><text fill="#000000" stroke="none" font-family="Arial" font-size="13px" font-style="normal" font-weight="normal" text-decoration="none" x="461" y="198.5">skos:definition</text></g></g><g transform="translate(-70,-54) scale(1,1)"><g><path fill="none" stroke="none"></path><text fill="#000000" stroke="none" font-family="Arial" font-size="13px" font-style="normal" font-weight="normal" text-decoration="none" x="461" y="213.5">:core</text></g></g><g transform="translate(-70,-54) scale(1,1)"><rect fill="#e2e2e2" stroke="none" x="476" y="252" width="118" height="77"></rect></g><g transform="translate(-70,-54) scale(1,1)"><path fill="none" stroke="#000000" d="M 476 252 L 594 252 L 594 329 L 476 329 L 476 252 Z Z" stroke-miterlimit="10"></path></g><g transform="translate(-70,-54) scale(1,1)"><path fill="none" stroke="#000000" d="M 476 277 L 594 277" stroke-miterlimit="10"></path></g><g transform="translate(-70,-54) scale(1,1)"><g><path fill="none" stroke="none"></path><text fill="#000000" stroke="none" font-family="Arial" font-size="13px" font-style="normal" font-weight="bold" text-decoration="none" x="485.5" y="271.5">pb:SemanticRole</text></g></g><g transform="translate(-70,-54) scale(1,1)"><g><path fill="none" stroke="none"></path><text fill="#000000" stroke="none" font-family="Arial" font-size="13px" font-style="normal" font-weight="normal" text-decoration="none" x="481" y="294.5">rdfs:label</text></g></g><g transform="translate(-70,-54) scale(1,1)"><g><path fill="none" stroke="none"></path><text fill="#000000" stroke="none" font-family="Arial" font-size="13px" font-style="normal" font-weight="normal" text-decoration="none" x="481" y="309.5">skos:definition</text></g></g><g transform="translate(-70,-54) scale(1,1)"><g><path fill="none" stroke="none"></path><text fill="#000000" stroke="none" font-family="Arial" font-size="13px" font-style="normal" font-weight="normal" text-decoration="none" x="481" y="324.5">rdfs:comment</text></g></g><g transform="translate(-70,-54) scale(1,1)"><rect fill="#e2e2e2" stroke="none" x="436" y="364" width="97" height="77"></rect></g><g transform="translate(-70,-54) scale(1,1)"><path fill="none" stroke="#000000" d="M 436 364 L 533 364 L 533 441 L 436 441 L 436 364 Z Z" stroke-miterlimit="10"></path></g><g transform="translate(-70,-54) scale(1,1)"><path fill="none" stroke="#000000" d="M 436 389 L 533 389" stroke-miterlimit="10"></path></g><g transform="translate(-70,-54) scale(1,1)"><g><path fill="none" stroke="none"></path><text fill="#000000" stroke="none" font-family="Arial" font-size="13px" font-style="normal" font-weight="bold" text-decoration="none" x="449" y="383.5">pb:Markable</text></g></g><g transform="translate(-70,-54) scale(1,1)"><g><path fill="none" stroke="none"></path><text fill="#000000" stroke="none" font-family="Arial" font-size="13px" font-style="normal" font-weight="normal" text-decoration="none" x="441" y="406.5">nif:beginIndex</text></g></g><g transform="translate(-70,-54) scale(1,1)"><g><path fill="none" stroke="none"></path><text fill="#000000" stroke="none" font-family="Arial" font-size="13px" font-style="normal" font-weight="normal" text-decoration="none" x="441" y="421.5">nif:endIndex</text></g></g><g transform="translate(-70,-54) scale(1,1)"><g><path fill="none" stroke="none"></path><text fill="#000000" stroke="none" font-family="Arial" font-size="13px" font-style="normal" font-weight="normal" text-decoration="none" x="441" y="436.5">nif:anchorOf</text></g></g><g transform="translate(-70,-54) scale(1,1)"><rect fill="#e2e2e2" stroke="none" x="564" y="364" width="99" height="77"></rect></g><g transform="translate(-70,-54) scale(1,1)"><path fill="none" stroke="#000000" d="M 564 364 L 663 364 L 663 441 L 564 441 L 564 364 Z Z" stroke-miterlimit="10"></path></g><g transform="translate(-70,-54) scale(1,1)"><path fill="none" stroke="#000000" d="M 564 389 L 663 389" stroke-miterlimit="10"></path></g><g transform="translate(-70,-54) scale(1,1)"><g><path fill="none" stroke="none"></path><text fill="#000000" stroke="none" font-family="Arial" font-size="13px" font-style="normal" font-weight="bold" text-decoration="none" x="579" y="383.5">pb:Example</text></g></g><g transform="translate(-70,-54) scale(1,1)"><g><path fill="none" stroke="none"></path><text fill="#000000" stroke="none" font-family="Arial" font-size="13px" font-style="normal" font-weight="normal" text-decoration="none" x="569" y="406.5">rdfs:comment</text></g></g><g transform="translate(-70,-54) scale(1,1)"><g><path fill="none" stroke="none"></path><text fill="#000000" stroke="none" font-family="Arial" font-size="13px" font-style="normal" font-weight="normal" text-decoration="none" x="569" y="421.5">dct:source</text></g></g><g transform="translate(-70,-54) scale(1,1)"><g><path fill="none" stroke="none"></path><text fill="#000000" stroke="none" font-family="Arial" font-size="13px" font-style="normal" font-weight="normal" text-decoration="none" x="569" y="436.5">nif:isString</text></g></g><g transform="translate(-70,-54) scale(1,1)"><rect fill="#e2e2e2" stroke="none" x="688" y="392" width="88" height="24"></rect></g><g transform="translate(-70,-54) scale(1,1)"><path fill="none" stroke="#000000" d="M 688 392 L 776 392 L 776 416 L 688 416 L 688 392 Z Z" stroke-miterlimit="10"></path></g><g transform="translate(-70,-54) scale(1,1)"><g><path fill="none" stroke="none"></path><text fill="#000000" stroke="none" font-family="Arial" font-size="13px" font-style="normal" font-weight="bold" text-decoration="none" x="697.5" y="411.5">pb:Inflection</text></g></g><g transform="translate(-70,-54) scale(1,1)"><rect fill="#e2e2e2" stroke="none" x="408" y="500" width="73" height="24"></rect></g><g transform="translate(-70,-54) scale(1,1)"><path fill="none" stroke="#000000" d="M 408 500 L 481 500 L 481 524 L 408 524 L 408 500 Z Z" stroke-miterlimit="10"></path></g><g transform="translate(-70,-54) scale(1,1)"><g><path fill="none" stroke="none"></path><text fill="#000000" stroke="none" font-family="Arial" font-size="13px" font-style="normal" font-weight="bold" text-decoration="none" x="415" y="519.5">pb:Person</text></g></g><g transform="translate(-70,-54) scale(1,1)"><rect fill="#e2e2e2" stroke="none" x="488" y="500" width="67" height="24"></rect></g><g transform="translate(-70,-54) scale(1,1)"><path fill="none" stroke="#000000" d="M 488 500 L 555 500 L 555 524 L 488 524 L 488 500 Z Z" stroke-miterlimit="10"></path></g><g transform="translate(-70,-54) scale(1,1)"><g><path fill="none" stroke="none"></path><text fill="#000000" stroke="none" font-family="Arial" font-size="13px" font-style="normal" font-weight="bold" text-decoration="none" x="495" y="519.5">pb:Tense</text></g></g><g transform="translate(-70,-54) scale(1,1)"><rect fill="#e2e2e2" stroke="none" x="564" y="500" width="65" height="24"></rect></g><g transform="translate(-70,-54) scale(1,1)"><path fill="none" stroke="#000000" d="M 564 500 L 629 500 L 629 524 L 564 524 L 564 500 Z Z" stroke-miterlimit="10"></path></g><g transform="translate(-70,-54) scale(1,1)"><g><path fill="none" stroke="none"></path><text fill="#000000" stroke="none" font-family="Arial" font-size="13px" font-style="normal" font-weight="bold" text-decoration="none" x="571" y="519.5">pb:Voice</text></g></g><g transform="translate(-70,-54) scale(1,1)"><rect fill="#e2e2e2" stroke="none" x="636" y="500" width="73" height="24"></rect></g><g transform="translate(-70,-54) scale(1,1)"><path fill="none" stroke="#000000" d="M 636 500 L 709 500 L 709 524 L 636 524 L 636 500 Z Z" stroke-miterlimit="10"></path></g><g transform="translate(-70,-54) scale(1,1)"><g><path fill="none" stroke="none"></path><text fill="#000000" stroke="none" font-family="Arial" font-size="13px" font-style="normal" font-weight="bold" text-decoration="none" x="643" y="519.5">pb:Aspect</text></g></g><g transform="translate(-70,-54) scale(1,1)"><rect fill="#e2e2e2" stroke="none" x="716" y="500" width="62" height="24"></rect></g><g transform="translate(-70,-54) scale(1,1)"><path fill="none" stroke="#000000" d="M 716 500 L 778 500 L 778 524 L 716 524 L 716 500 Z Z" stroke-miterlimit="10"></path></g><g transform="translate(-70,-54) scale(1,1)"><g><path fill="none" stroke="none"></path><text fill="#000000" stroke="none" font-family="Arial" font-size="13px" font-style="normal" font-weight="bold" text-decoration="none" x="723" y="519.5">pb:Form</text></g></g><g transform="translate(-70,-54) scale(1,1)"><path fill="none" stroke="#000000" d="M 700 416 L 700 460 L 420 460 L 420 500" stroke-miterlimit="10"></path></g><g transform="translate(-70,-54) scale(1,1)"><path fill="none" stroke="#000000" d="M 415.790482243984 489.83732514237585 L 420 500 L 424.209517756016 489.83732514237585" stroke-miterlimit="10"></path></g><g transform="translate(-70,-54) scale(1,1)"><g><path fill="none" stroke="none"></path><text fill="#000000" stroke="none" font-family="Arial" font-size="13px" font-style="normal" font-weight="normal" text-decoration="none" x="424" y="481">pb:person</text></g></g><g transform="translate(-70,-54) scale(1,1)"><g><path fill="none" stroke="none"></path><text fill="#000000" stroke="none" font-family="Arial" font-size="13px" font-style="normal" font-weight="normal" text-decoration="none" x="427" y="493">0..1</text></g></g><g transform="translate(-70,-54) scale(1,1)"><path fill="none" stroke="#000000" d="M 716 416 L 716 464 L 500 464 L 500 500" stroke-miterlimit="10"></path></g><g transform="translate(-70,-54) scale(1,1)"><path fill="none" stroke="#000000" d="M 495.790482243984 489.83732514237585 L 500 500 L 504.209517756016 489.83732514237585" stroke-miterlimit="10"></path></g><g transform="translate(-70,-54) scale(1,1)"><g><path fill="none" stroke="none"></path><text fill="#000000" stroke="none" font-family="Arial" font-size="13px" font-style="normal" font-weight="normal" text-decoration="none" x="503" y="485">pb:tense</text></g></g><g transform="translate(-70,-54) scale(1,1)"><g><path fill="none" stroke="none"></path><text fill="#000000" stroke="none" font-family="Arial" font-size="13px" font-style="normal" font-weight="normal" text-decoration="none" x="506" y="496">0..1</text></g></g><g transform="translate(-70,-54) scale(1,1)"><path fill="none" stroke="#000000" d="M 732 416 L 732 468 L 576 468 L 576 500" stroke-miterlimit="10"></path></g><g transform="translate(-70,-54) scale(1,1)"><path fill="none" stroke="#000000" d="M 571.790482243984 489.83732514237585 L 576 500 L 580.209517756016 489.83732514237585" stroke-miterlimit="10"></path></g><g transform="translate(-70,-54) scale(1,1)"><g><path fill="none" stroke="none"></path><text fill="#000000" stroke="none" font-family="Arial" font-size="13px" font-style="normal" font-weight="normal" text-decoration="none" x="580" y="485">pb:voice</text></g></g><g transform="translate(-70,-54) scale(1,1)"><g><path fill="none" stroke="none"></path><text fill="#000000" stroke="none" font-family="Arial" font-size="13px" font-style="normal" font-weight="normal" text-decoration="none" x="582" y="496">0..1</text></g></g><g transform="translate(-70,-54) scale(1,1)"><path fill="none" stroke="#000000" d="M 748 416 L 748 472 L 644 472 L 644 500" stroke-miterlimit="10"></path></g><g transform="translate(-70,-54) scale(1,1)"><path fill="none" stroke="#000000" d="M 639.790482243984 489.83732514237585 L 644 500 L 648.209517756016 489.83732514237585" stroke-miterlimit="10"></path></g><g transform="translate(-70,-54) scale(1,1)"><g><path fill="none" stroke="none"></path><text fill="#000000" stroke="none" font-family="Arial" font-size="13px" font-style="normal" font-weight="normal" text-decoration="none" x="648" y="489">pb:aspect</text></g></g><g transform="translate(-70,-54) scale(1,1)"><path fill="none" stroke="#000000" d="M 764 416 L 764 500" stroke-miterlimit="10"></path></g><g transform="translate(-70,-54) scale(1,1)"><path fill="none" stroke="#000000" d="M 759.790482243984 489.83732514237585 L 764 500 L 768.209517756016 489.83732514237585" stroke-miterlimit="10"></path></g><g transform="translate(-70,-54) scale(1,1)"><g><path fill="none" stroke="none"></path><text fill="#000000" stroke="none" font-family="Arial" font-size="13px" font-style="normal" font-weight="normal" text-decoration="none" x="714" y="484">pb:form</text></g></g><g transform="translate(-70,-54) scale(1,1)"><g><path fill="none" stroke="none"></path><text fill="#000000" stroke="none" font-family="Arial" font-size="13px" font-style="normal" font-weight="normal" text-decoration="none" x="735" y="496">0..1</text></g></g><g transform="translate(-70,-54) scale(1,1)"><path fill="none" stroke="#000000" d="M 663 404 L 688 404" stroke-miterlimit="10"></path></g><g transform="translate(-70,-54) scale(1,1)"><path fill="none" stroke="#000000" d="M 677.8373251423759 408.209517756016 L 688 404 L 677.8373251423758 399.790482243984" stroke-miterlimit="10"></path></g><g transform="translate(-70,-54) scale(1,1)"><g><path fill="none" stroke="none"></path><text fill="#000000" stroke="none" font-family="Arial" font-size="13px" font-style="normal" font-weight="normal" text-decoration="none" x="669" y="385">pb:inflection</text></g></g><g transform="translate(-70,-54) scale(1,1)"><g><path fill="none" stroke="none"></path><text fill="#000000" stroke="none" font-family="Arial" font-size="13px" font-style="normal" font-weight="normal" text-decoration="none" x="664" y="396">0..1</text></g></g><g transform="translate(-70,-54) scale(1,1)"><rect fill="#e2e2e2" stroke="none" x="652" y="64" width="100" height="62"></rect></g><g transform="translate(-70,-54) scale(1,1)"><path fill="none" stroke="#000000" d="M 652 64 L 752 64 L 752 126 L 652 126 L 652 64 Z Z" stroke-miterlimit="10"></path></g><g transform="translate(-70,-54) scale(1,1)"><path fill="none" stroke="#000000" d="M 652 89 L 752 89" stroke-miterlimit="10"></path></g><g transform="translate(-70,-54) scale(1,1)"><g><path fill="none" stroke="none"></path><text fill="#000000" stroke="none" font-family="Arial" font-size="13px" font-style="normal" font-weight="bold" text-decoration="none" x="682.5" y="83.5">pb:Tag</text></g></g><g transform="translate(-70,-54) scale(1,1)"><g><path fill="none" stroke="none"></path><text fill="#000000" stroke="none" font-family="Arial" font-size="13px" font-style="normal" font-weight="normal" text-decoration="none" x="657" y="106.5">rdfs:label</text></g></g><g transform="translate(-70,-54) scale(1,1)"><g><path fill="none" stroke="none"></path><text fill="#000000" stroke="none" font-family="Arial" font-size="13px" font-style="normal" font-weight="normal" text-decoration="none" x="657" y="121.5">skos:definition</text></g></g><g transform="translate(-70,-54) scale(1,1)"><rect fill="#e2e2e2" stroke="none" x="636" y="308" width="124" height="24"></rect></g><g transform="translate(-70,-54) scale(1,1)"><path fill="none" stroke="#000000" d="M 636 308 L 760 308 L 760 332 L 636 332 L 636 308 Z Z" stroke-miterlimit="10"></path></g><g transform="translate(-70,-54) scale(1,1)"><g><path fill="none" stroke="none"></path><text fill="#000000" stroke="none" font-family="Arial" font-size="13px" font-style="normal" font-weight="bold" text-decoration="none" x="646.5" y="327.5">pb:NumberedRole</text></g></g><g transform="translate(-70,-54) scale(1,1)"><rect fill="#e2e2e2" stroke="none" x="648" y="164" width="101" height="47"></rect></g><g transform="translate(-70,-54) scale(1,1)"><path fill="none" stroke="#000000" d="M 648 164 L 749 164 L 749 211 L 648 211 L 648 164 Z Z" stroke-miterlimit="10"></path></g><g transform="translate(-70,-54) scale(1,1)"><path fill="none" stroke="#000000" d="M 648 189 L 749 189" stroke-miterlimit="10"></path></g><g transform="translate(-70,-54) scale(1,1)"><g><path fill="none" stroke="none"></path><text fill="#000000" stroke="none" font-family="Arial" font-size="13px" font-style="normal" font-weight="bold" text-decoration="none" x="657" y="183.5">pb:Preposition</text></g></g><g transform="translate(-70,-54) scale(1,1)"><g><path fill="none" stroke="none"></path><text fill="#000000" stroke="none" font-family="Arial" font-size="13px" font-style="normal" font-weight="normal" text-decoration="none" x="653" y="206.5">rdfs:label</text></g></g><g transform="translate(-70,-54) scale(1,1)"><rect fill="#e2e2e2" stroke="none" x="644" y="252" width="110" height="24"></rect></g><g transform="translate(-70,-54) scale(1,1)"><path fill="none" stroke="#000000" d="M 644 252 L 754 252 L 754 276 L 644 276 L 644 252 Z Z" stroke-miterlimit="10"></path></g><g transform="translate(-70,-54) scale(1,1)"><g><path fill="none" stroke="none"></path><text fill="#000000" stroke="none" font-family="Arial" font-size="13px" font-style="normal" font-weight="bold" text-decoration="none" x="654.5" y="271.5">pb:ModifierRole</text></g></g><g transform="translate(-70,-54) scale(1,1)"><path fill="none" stroke="#000000" d="M 644 272 L 594 272" stroke-miterlimit="10"></path></g><g transform="translate(-70,-54) scale(1,1)"><path fill="#FFFFFF" stroke="none" d="M 614.3253497152483 263.580964487968 L 594 272 L 614.3253497152483 280.419035512032"></path></g><g transform="translate(-70,-54) scale(1,1)"><path fill="none" stroke="#000000" d="M 614.3253497152483 263.580964487968 L 594 272 L 614.3253497152483 280.419035512032 L 614.3253497152483 263.580964487968" stroke-miterlimit="10"></path></g><g transform="translate(-70,-54) scale(1,1)"><path fill="none" stroke="#000000" d="M 636 320 L 624 320 L 624 272 L 594 272" stroke-miterlimit="10"></path></g><g transform="translate(-70,-54) scale(1,1)"><path fill="#FFFFFF" stroke="none" d="M 614.3253497152483 263.580964487968 L 594 272 L 614.3253497152483 280.419035512032"></path></g><g transform="translate(-70,-54) scale(1,1)"><path fill="none" stroke="#000000" d="M 614.3253497152483 263.580964487968 L 594 272 L 614.3253497152483 280.419035512032 L 614.3253497152483 263.580964487968" stroke-miterlimit="10"></path></g><g transform="translate(-70,-54) scale(1,1)"><path fill="none" stroke="#000000" d="M 610 176 L 628 176 L 628 116 L 652 116" stroke-miterlimit="10"></path></g><g transform="translate(-70,-54) scale(1,1)"><path fill="none" stroke="#000000" d="M 641.8373251423759 120.20951775601598 L 652 116 L 641.8373251423758 111.79048224398402" stroke-miterlimit="10"></path></g><g transform="translate(-70,-54) scale(1,1)"><g><path fill="none" stroke="none"></path><text fill="#000000" stroke="none" font-family="Arial" font-size="13px" font-style="normal" font-weight="normal" text-decoration="none" x="630" y="148">pb:functionTag</text></g></g><g transform="translate(-70,-54) scale(1,1)"><g><path fill="none" stroke="none"></path><text fill="#000000" stroke="none" font-family="Arial" font-size="13px" font-style="normal" font-weight="normal" text-decoration="none" x="623" y="108">0..1</text></g></g><g transform="translate(-70,-54) scale(1,1)"><path fill="none" stroke="#000000" d="M 480 364 L 480 340 L 768 340 L 768 120 L 752 120" stroke-miterlimit="10"></path></g><g transform="translate(-70,-54) scale(1,1)"><path fill="none" stroke="#000000" d="M 762.1626748576241 115.79048224398402 L 752 120 L 762.1626748576241 124.20951775601598" stroke-miterlimit="10"></path></g><g transform="translate(-70,-54) scale(1,1)"><g><path fill="none" stroke="none"></path><text fill="#000000" stroke="none" font-family="Arial" font-size="13px" font-style="normal" font-weight="normal" text-decoration="none" x="683" y="353">pb:functionTag</text></g></g><g transform="translate(-70,-54) scale(1,1)"><g><path fill="none" stroke="none"></path><text fill="#000000" stroke="none" font-family="Arial" font-size="13px" font-style="normal" font-weight="normal" text-decoration="none" x="755" y="110">0..1</text></g></g><g transform="translate(-70,-54) scale(1,1)"><path fill="none" stroke="#000000" d="M 610 176 L 648 176" stroke-miterlimit="10"></path></g><g transform="translate(-70,-54) scale(1,1)"><path fill="none" stroke="#000000" d="M 637.8373251423759 180.209517756016 L 648 176 L 637.8373251423758 171.790482243984" stroke-miterlimit="10"></path></g><g transform="translate(-70,-54) scale(1,1)"><g><path fill="none" stroke="none"></path><text fill="#000000" stroke="none" font-family="Arial" font-size="13px" font-style="normal" font-weight="normal" text-decoration="none" x="635" y="160">0..1</text></g></g><g transform="translate(-70,-54) scale(1,1)"><path fill="none" stroke="#000000" d="M 610 176 L 628 176 L 628 252 L 644 252" stroke-miterlimit="10"></path></g><g transform="translate(-70,-54) scale(1,1)"><path fill="none" stroke="#000000" d="M 633.8373251423759 256.209517756016 L 644 252 L 633.8373251423758 247.790482243984" stroke-miterlimit="10"></path></g><g transform="translate(-70,-54) scale(1,1)"><g><path fill="none" stroke="none"></path><text fill="#000000" stroke="none" font-family="Arial" font-size="13px" font-style="normal" font-weight="normal" text-decoration="none" x="635" y="245">0..1</text></g></g><g transform="translate(-70,-54) scale(1,1)"><path fill="none" stroke="#000000" d="M 480 364 L 480 340 L 768 340 L 768 256 L 754 256" stroke-miterlimit="10"></path></g><g transform="translate(-70,-54) scale(1,1)"><path fill="none" stroke="#000000" d="M 764.1626748576241 251.790482243984 L 754 256 L 764.1626748576241 260.209517756016" stroke-miterlimit="10"></path></g><g transform="translate(-70,-54) scale(1,1)"><g><path fill="none" stroke="none"></path><text fill="#000000" stroke="none" font-family="Arial" font-size="13px" font-style="normal" font-weight="normal" text-decoration="none" x="743" y="249">0..1</text></g></g><g transform="translate(-70,-54) scale(1,1)"><path fill="none" stroke="#000000" d="M 480 364 L 480 340 L 768 340 L 768 180 L 749 180" stroke-miterlimit="10"></path></g><g transform="translate(-70,-54) scale(1,1)"><path fill="none" stroke="#000000" d="M 759.1626748576241 175.790482243984 L 749 180 L 759.1626748576241 184.209517756016" stroke-miterlimit="10"></path></g><g transform="translate(-70,-54) scale(1,1)"><g><path fill="none" stroke="none"></path><text fill="#000000" stroke="none" font-family="Arial" font-size="13px" font-style="normal" font-weight="normal" text-decoration="none" x="743" y="165">0..1</text></g></g><g transform="translate(-70,-54) scale(1,1)"><path fill="none" stroke="#000000" d="M 440 364 L 440 120 L 488 120" stroke-miterlimit="10"></path></g><g transform="translate(-70,-54) scale(1,1)"><path fill="none" stroke="#000000" d="M 477.83732514237585 124.20951775601598 L 488 120 L 477.83732514237585 115.79048224398402" stroke-miterlimit="10"></path></g><g transform="translate(-70,-54) scale(1,1)"><g><path fill="none" stroke="none"></path><text fill="#000000" stroke="none" font-family="Arial" font-size="13px" font-style="normal" font-weight="normal" text-decoration="none" x="444" y="236">nif:annotation</text></g></g><g transform="translate(-70,-54) scale(1,1)"><path fill="none" stroke="#000000" d="M 440 364 L 440 212 L 456 212" stroke-miterlimit="10"></path></g><g transform="translate(-70,-54) scale(1,1)"><path fill="none" stroke="#000000" d="M 445.83732514237585 216.209517756016 L 456 212 L 445.83732514237585 207.790482243984" stroke-miterlimit="10"></path></g><g transform="translate(-70,-54) scale(1,1)"><rect fill="#e2e2e2" stroke="none" x="640" y="280" width="116" height="24"></rect></g><g transform="translate(-70,-54) scale(1,1)"><path fill="none" stroke="#000000" d="M 640 280 L 756 280 L 756 304 L 640 304 L 640 280 Z Z" stroke-miterlimit="10"></path></g><g transform="translate(-70,-54) scale(1,1)"><g><path fill="none" stroke="none"></path><text fill="#000000" stroke="none" font-family="Arial" font-size="13px" font-style="normal" font-weight="bold" text-decoration="none" x="651.5" y="299.5">pb:AgentiveRole</text></g></g><g transform="translate(-70,-54) scale(1,1)"><path fill="none" stroke="#000000" d="M 640 292 L 624 292 L 624 272 L 594 272" stroke-miterlimit="10"></path></g><g transform="translate(-70,-54) scale(1,1)"><path fill="#FFFFFF" stroke="none" d="M 614.3253497152483 263.580964487968 L 594 272 L 614.3253497152483 280.419035512032"></path></g><g transform="translate(-70,-54) scale(1,1)"><path fill="none" stroke="#000000" d="M 614.3253497152483 263.580964487968 L 594 272 L 614.3253497152483 280.419035512032 L 614.3253497152483 263.580964487968" stroke-miterlimit="10"></path></g></g></svg>