<svg version="1.1" xmlns="http://www.w3.org/2000/svg" xmlns:xlink="http://www.w3.org/1999/xlink" width="704.4541015625" height="224"><defs/><g><g transform="translate(2,-12) scale(1,1)"><rect fill="#ffffcc" stroke="none" x="328" y="40" width="99.33056640625" height="24"/></g><g transform="translate(2,-12) scale(1,1)"><path fill="none" stroke="#000000" d="M 328 40 L 427.33056640625 40 L 427.33056640625 64 L 328 64 L 328 40 Z Z" stroke-miterlimit="10"/></g><g transform="translate(2,-12) scale(1,1)"><g><path fill="none" stroke="none"/><text fill="#000000" stroke="none" font-family="Arial" font-size="13px" font-style="normal" font-weight="bold" text-decoration="none" x="337.665283203125" y="59.5">pmo:Example</text></g></g><g transform="translate(2,-12) scale(1,1)"><rect fill="#99ffcc" stroke="none" x="192" y="40" width="120" height="24"/></g><g transform="translate(2,-12) scale(1,1)"><path fill="none" stroke="#000000" d="M 192 40 L 312 40 L 312 64 L 192 64 L 192 40 Z Z" stroke-miterlimit="10"/></g><g transform="translate(2,-12) scale(1,1)"><g><path fill="none" stroke="none"/><text fill="#000000" stroke="none" font-family="Arial" font-size="13px" font-style="normal" font-weight="bold" text-decoration="none" x="208.5" y="59.5">pmopb:Roleset</text></g></g><g transform="translate(2,-12) scale(1,1)"><rect fill="#99ffcc" stroke="none" x="184" y="88" width="152" height="47"/></g><g transform="translate(2,-12) scale(1,1)"><path fill="none" stroke="#000000" d="M 184 88 L 336 88 L 336 135 L 184 135 L 184 88 Z Z" stroke-miterlimit="10"/></g><g transform="translate(2,-12) scale(1,1)"><path fill="none" stroke="#000000" d="M 184 113 L 336 113" stroke-miterlimit="10"/></g><g transform="translate(2,-12) scale(1,1)"><g><path fill="none" stroke="none"/><text fill="#000000" stroke="none" font-family="Arial" font-size="13px" font-style="normal" font-weight="bold" text-decoration="none" x="198" y="107.5">pmopb:SemanticRole</text></g></g><g transform="translate(2,-12) scale(1,1)"><g><path fill="none" stroke="none"/><text fill="#000000" stroke="none" font-family="Arial" font-size="13px" font-style="normal" font-weight="normal" text-decoration="none" x="189" y="130.5">pmopb:core</text></g></g><g transform="translate(2,-12) scale(1,1)"><rect fill="#e6e6ff" stroke="none" x="8" y="144" width="136" height="24"/></g><g transform="translate(2,-12) scale(1,1)"><path fill="none" stroke="#000000" d="M 8 144 L 144 144 L 144 168 L 8 168 L 8 144 Z Z" stroke-miterlimit="10"/></g><g transform="translate(2,-12) scale(1,1)"><g><path fill="none" stroke="none"/><text fill="#000000" stroke="none" font-family="Arial" font-size="13px" font-style="normal" font-weight="bold" text-decoration="none" x="26.5" y="163.5">pmopb:Argument</text></g></g><g transform="translate(2,-12) scale(1,1)"><rect fill="#e6e6ff" stroke="none" x="440" y="40" width="123.69921875" height="24"/></g><g transform="translate(2,-12) scale(1,1)"><path fill="none" stroke="#000000" d="M 440 40 L 563.69921875 40 L 563.69921875 64 L 440 64 L 440 40 Z Z" stroke-miterlimit="10"/></g><g transform="translate(2,-12) scale(1,1)"><g><path fill="none" stroke="none"/><text fill="#000000" stroke="none" font-family="Arial" font-size="13px" font-style="normal" font-weight="bold" text-decoration="none" x="453.849609375" y="59.5">pmopb:Inflection</text></g></g><g transform="translate(2,-12) scale(1,1)"><rect fill="#e6e6ff" stroke="none" x="584" y="200" width="106.052734375" height="24"/></g><g transform="translate(2,-12) scale(1,1)"><path fill="none" stroke="#000000" d="M 584 200 L 690.052734375 200 L 690.052734375 224 L 584 224 L 584 200 Z Z" stroke-miterlimit="10"/></g><g transform="translate(2,-12) scale(1,1)"><g><path fill="none" stroke="none"/><text fill="#000000" stroke="none" font-family="Arial" font-size="13px" font-style="normal" font-weight="bold" text-decoration="none" x="595.0263671875" y="219.5">pmopb:Person</text></g></g><g transform="translate(2,-12) scale(1,1)"><rect fill="#e6e6ff" stroke="none" x="592" y="160" width="100.4541015625" height="24"/></g><g transform="translate(2,-12) scale(1,1)"><path fill="none" stroke="#000000" d="M 592 160 L 692.4541015625 160 L 692.4541015625 184 L 592 184 L 592 160 Z Z" stroke-miterlimit="10"/></g><g transform="translate(2,-12) scale(1,1)"><g><path fill="none" stroke="none"/><text fill="#000000" stroke="none" font-family="Arial" font-size="13px" font-style="normal" font-weight="bold" text-decoration="none" x="602.72705078125" y="179.5">pmopb:Tense</text></g></g><g transform="translate(2,-12) scale(1,1)"><rect fill="#e6e6ff" stroke="none" x="592" y="120" width="96.51220703125" height="24"/></g><g transform="translate(2,-12) scale(1,1)"><path fill="none" stroke="#000000" d="M 592 120 L 688.51220703125 120 L 688.51220703125 144 L 592 144 L 592 120 Z Z" stroke-miterlimit="10"/></g><g transform="translate(2,-12) scale(1,1)"><g><path fill="none" stroke="none"/><text fill="#000000" stroke="none" font-family="Arial" font-size="13px" font-style="normal" font-weight="bold" text-decoration="none" x="602.256103515625" y="139.5">pmopb:Voice</text></g></g><g transform="translate(2,-12) scale(1,1)"><rect fill="#e6e6ff" stroke="none" x="584" y="80" width="105.70361328125" height="24"/></g><g transform="translate(2,-12) scale(1,1)"><path fill="none" stroke="#000000" d="M 584 80 L 689.70361328125 80 L 689.70361328125 104 L 584 104 L 584 80 Z Z" stroke-miterlimit="10"/></g><g transform="translate(2,-12) scale(1,1)"><g><path fill="none" stroke="none"/><text fill="#000000" stroke="none" font-family="Arial" font-size="13px" font-style="normal" font-weight="bold" text-decoration="none" x="594.851806640625" y="99.5">pmopb:Aspect</text></g></g><g transform="translate(2,-12) scale(1,1)"><rect fill="#e6e6ff" stroke="none" x="592" y="40" width="96" height="24"/></g><g transform="translate(2,-12) scale(1,1)"><path fill="none" stroke="#000000" d="M 592 40 L 688 40 L 688 64 L 592 64 L 592 40 Z Z" stroke-miterlimit="10"/></g><g transform="translate(2,-12) scale(1,1)"><g><path fill="none" stroke="none"/><text fill="#000000" stroke="none" font-family="Arial" font-size="13px" font-style="normal" font-weight="bold" text-decoration="none" x="603.5" y="59.5">pmopb:Form</text></g></g><g transform="translate(2,-12) scale(1,1)"><path fill="none" stroke="#000000" d="M 488 64 L 488 216 L 584 216" stroke-miterlimit="10"/></g><g transform="translate(2,-12) scale(1,1)"><path fill="none" stroke="#000000" d="M 573.8373251423759 220.209517756016 L 584 216 L 573.8373251423758 211.790482243984" stroke-miterlimit="10"/></g><g transform="translate(2,-12) scale(1,1)"><g><path fill="none" stroke="none"/><text fill="#000000" stroke="none" font-family="Arial" font-size="13px" font-style="normal" font-weight="normal" text-decoration="none" x="478" y="227">pmopb:person</text></g></g><g transform="translate(2,-12) scale(1,1)"><g><path fill="none" stroke="none"/><text fill="#000000" stroke="none" font-family="Arial" font-size="13px" font-style="normal" font-weight="normal" text-decoration="none" x="559" y="212">0..1</text></g></g><g transform="translate(2,-12) scale(1,1)"><path fill="none" stroke="#000000" d="M 496 64 L 496 184 L 592 184" stroke-miterlimit="10"/></g><g transform="translate(2,-12) scale(1,1)"><path fill="none" stroke="#000000" d="M 581.8373251423759 188.209517756016 L 592 184 L 581.8373251423758 179.790482243984" stroke-miterlimit="10"/></g><g transform="translate(2,-12) scale(1,1)"><g><path fill="none" stroke="none"/><text fill="#000000" stroke="none" font-family="Arial" font-size="13px" font-style="normal" font-weight="normal" text-decoration="none" x="501" y="196">pmopb:tense</text></g></g><g transform="translate(2,-12) scale(1,1)"><g><path fill="none" stroke="none"/><text fill="#000000" stroke="none" font-family="Arial" font-size="13px" font-style="normal" font-weight="normal" text-decoration="none" x="567" y="180">0..1</text></g></g><g transform="translate(2,-12) scale(1,1)"><path fill="none" stroke="#000000" d="M 504 64 L 504 144 L 592 144" stroke-miterlimit="10"/></g><g transform="translate(2,-12) scale(1,1)"><path fill="none" stroke="#000000" d="M 581.8373251423759 148.209517756016 L 592 144 L 581.8373251423758 139.790482243984" stroke-miterlimit="10"/></g><g transform="translate(2,-12) scale(1,1)"><g><path fill="none" stroke="none"/><text fill="#000000" stroke="none" font-family="Arial" font-size="13px" font-style="normal" font-weight="normal" text-decoration="none" x="509" y="156">pmopb:voice</text></g></g><g transform="translate(2,-12) scale(1,1)"><g><path fill="none" stroke="none"/><text fill="#000000" stroke="none" font-family="Arial" font-size="13px" font-style="normal" font-weight="normal" text-decoration="none" x="567" y="140">0..1</text></g></g><g transform="translate(2,-12) scale(1,1)"><path fill="none" stroke="#000000" d="M 512 64 L 512 104 L 584 104" stroke-miterlimit="10"/></g><g transform="translate(2,-12) scale(1,1)"><path fill="none" stroke="#000000" d="M 573.8373251423759 108.20951775601598 L 584 104 L 573.8373251423758 99.79048224398402" stroke-miterlimit="10"/></g><g transform="translate(2,-12) scale(1,1)"><g><path fill="none" stroke="none"/><text fill="#000000" stroke="none" font-family="Arial" font-size="13px" font-style="normal" font-weight="normal" text-decoration="none" x="518" y="115">pmopb:aspect</text></g></g><g transform="translate(2,-12) scale(1,1)"><path fill="none" stroke="#000000" d="M 564 64 L 592 64" stroke-miterlimit="10"/></g><g transform="translate(2,-12) scale(1,1)"><path fill="none" stroke="#000000" d="M 581.8373251423759 68.20951775601598 L 592 64 L 581.8373251423758 59.790482243984016" stroke-miterlimit="10"/></g><g transform="translate(2,-12) scale(1,1)"><g><path fill="none" stroke="none"/><text fill="#000000" stroke="none" font-family="Arial" font-size="13px" font-style="normal" font-weight="normal" text-decoration="none" x="525" y="77">pmopb:form</text></g></g><g transform="translate(2,-12) scale(1,1)"><g><path fill="none" stroke="none"/><text fill="#000000" stroke="none" font-family="Arial" font-size="13px" font-style="normal" font-weight="normal" text-decoration="none" x="567" y="60">0..1</text></g></g><g transform="translate(2,-12) scale(1,1)"><path fill="none" stroke="#000000" d="M 375 40 L 375 24 L 497 24 L 497 40" stroke-miterlimit="10"/></g><g transform="translate(2,-12) scale(1,1)"><path fill="none" stroke="#000000" d="M 492.790482243984 29.837325142375846 L 497 40 L 501.209517756016 29.837325142375846" stroke-miterlimit="10"/></g><g transform="translate(2,-12) scale(1,1)"><g><path fill="none" stroke="none"/><text fill="#000000" stroke="none" font-family="Arial" font-size="13px" font-style="normal" font-weight="normal" text-decoration="none" x="388" y="37">pmopb:inflection</text></g></g><g transform="translate(2,-12) scale(1,1)"><g><path fill="none" stroke="none"/><text fill="#000000" stroke="none" font-family="Arial" font-size="13px" font-style="normal" font-weight="normal" text-decoration="none" x="502" y="35">0..1</text></g></g><g transform="translate(2,-12) scale(1,1)"><rect fill="#e6e6ff" stroke="none" x="376" y="72" width="100" height="62"/></g><g transform="translate(2,-12) scale(1,1)"><path fill="none" stroke="#000000" d="M 376 72 L 476 72 L 476 134 L 376 134 L 376 72 Z Z" stroke-miterlimit="10"/></g><g transform="translate(2,-12) scale(1,1)"><path fill="none" stroke="#000000" d="M 376 97 L 476 97" stroke-miterlimit="10"/></g><g transform="translate(2,-12) scale(1,1)"><g><path fill="none" stroke="none"/><text fill="#000000" stroke="none" font-family="Arial" font-size="13px" font-style="normal" font-weight="bold" text-decoration="none" x="393.5" y="91.5">pmopb:Tag</text></g></g><g transform="translate(2,-12) scale(1,1)"><g><path fill="none" stroke="none"/><text fill="#000000" stroke="none" font-family="Arial" font-size="13px" font-style="normal" font-weight="normal" text-decoration="none" x="381" y="114.5">rdfs:label</text></g></g><g transform="translate(2,-12) scale(1,1)"><g><path fill="none" stroke="none"/><text fill="#000000" stroke="none" font-family="Arial" font-size="13px" font-style="normal" font-weight="normal" text-decoration="none" x="381" y="129.5">skos:definition</text></g></g><g transform="translate(2,-12) scale(1,1)"><rect fill="#e6e6ff" stroke="none" x="8" y="200" width="196.494140625" height="24"/></g><g transform="translate(2,-12) scale(1,1)"><path fill="none" stroke="#000000" d="M 8 200 L 204.494140625 200 L 204.494140625 224 L 8 224 L 8 200 Z Z" stroke-miterlimit="10"/></g><g transform="translate(2,-12) scale(1,1)"><g><path fill="none" stroke="none"/><text fill="#000000" stroke="none" font-family="Arial" font-size="13px" font-style="normal" font-weight="bold" text-decoration="none" x="27.2470703125" y="219.5">pmopb:NumberedArgument</text></g></g><g transform="translate(2,-12) scale(1,1)"><rect fill="#e6e6ff" stroke="none" x="224" y="168" width="136" height="24"/></g><g transform="translate(2,-12) scale(1,1)"><path fill="none" stroke="#000000" d="M 224 168 L 360 168 L 360 192 L 224 192 L 224 168 Z Z" stroke-miterlimit="10"/></g><g transform="translate(2,-12) scale(1,1)"><g><path fill="none" stroke="none"/><text fill="#000000" stroke="none" font-family="Arial" font-size="13px" font-style="normal" font-weight="bold" text-decoration="none" x="247.5" y="187.5">pmopb:Modifier</text></g></g><g transform="translate(2,-12) scale(1,1)"><path fill="none" stroke="#000000" d="M 224 176 L 216 176 L 216 192 L 104 192 L 104 168" stroke-miterlimit="10"/></g><g transform="translate(2,-12) scale(1,1)"><path fill="#FFFFFF" stroke="none" d="M 112.41903551203198 188.3253497152483 L 104 168 L 95.58096448796803 188.3253497152483"/></g><g transform="translate(2,-12) scale(1,1)"><path fill="none" stroke="#000000" d="M 112.41903551203198 188.3253497152483 L 104 168 L 95.58096448796803 188.3253497152483 L 112.41903551203198 188.3253497152483" stroke-miterlimit="10"/></g><g transform="translate(2,-12) scale(1,1)"><path fill="none" stroke="#000000" d="M 104 200 L 104 168" stroke-miterlimit="10"/></g><g transform="translate(2,-12) scale(1,1)"><path fill="#FFFFFF" stroke="none" d="M 112.41903551203198 188.3253497152483 L 104 168 L 95.58096448796803 188.3253497152483"/></g><g transform="translate(2,-12) scale(1,1)"><path fill="none" stroke="#000000" d="M 112.41903551203198 188.3253497152483 L 104 168 L 95.58096448796803 188.3253497152483 L 112.41903551203198 188.3253497152483" stroke-miterlimit="10"/></g><g transform="translate(2,-12) scale(1,1)"><path fill="none" stroke="#000000" d="M 336 96 L 376 96" stroke-miterlimit="10"/></g><g transform="translate(2,-12) scale(1,1)"><path fill="none" stroke="#000000" d="M 365.83732514237585 100.20951775601598 L 376 96 L 365.83732514237585 91.79048224398402" stroke-miterlimit="10"/></g><g transform="translate(2,-12) scale(1,1)"><g><path fill="none" stroke="none"/><text fill="#000000" stroke="none" font-family="Arial" font-size="13px" font-style="normal" font-weight="normal" text-decoration="none" x="312" y="84">pmopb:tag</text></g></g><g transform="translate(2,-12) scale(1,1)"><g><path fill="none" stroke="none"/><text fill="#000000" stroke="none" font-family="Arial" font-size="13px" font-style="normal" font-weight="normal" text-decoration="none" x="349" y="117">0..1</text></g></g><g transform="translate(2,-12) scale(1,1)"><path fill="none" stroke="#000000" d="M 376 168 L 376 152 L 448 152 L 448 134" stroke-miterlimit="10"/></g><g transform="translate(2,-12) scale(1,1)"><path fill="none" stroke="#000000" d="M 452.209517756016 144.16267485762415 L 448 134 L 443.790482243984 144.16267485762415" stroke-miterlimit="10"/></g><g transform="translate(2,-12) scale(1,1)"><g><path fill="none" stroke="none"/><text fill="#000000" stroke="none" font-family="Arial" font-size="13px" font-style="normal" font-weight="normal" text-decoration="none" x="454" y="148">0..1</text></g></g><g transform="translate(2,-12) scale(1,1)"><path fill="none" stroke="#000000" d="M 336 96 L 344 96 L 344 144 L 272 144 L 272 168" stroke-miterlimit="10"/></g><g transform="translate(2,-12) scale(1,1)"><path fill="none" stroke="#000000" d="M 267.790482243984 157.83732514237585 L 272 168 L 276.209517756016 157.83732514237585" stroke-miterlimit="10"/></g><g transform="translate(2,-12) scale(1,1)"><g><path fill="none" stroke="none"/><text fill="#000000" stroke="none" font-family="Arial" font-size="13px" font-style="normal" font-weight="normal" text-decoration="none" x="242" y="165">0..1</text></g></g><g transform="translate(2,-12) scale(1,1)"><path fill="none" stroke="#000000" d="M 376 168 L 376 152 L 320 152 L 320 168" stroke-miterlimit="10"/></g><g transform="translate(2,-12) scale(1,1)"><path fill="none" stroke="#000000" d="M 315.790482243984 157.83732514237585 L 320 168 L 324.209517756016 157.83732514237585" stroke-miterlimit="10"/></g><g transform="translate(2,-12) scale(1,1)"><g><path fill="none" stroke="none"/><text fill="#000000" stroke="none" font-family="Arial" font-size="13px" font-style="normal" font-weight="normal" text-decoration="none" x="384" y="164">pmopb:tag</text></g></g><g transform="translate(2,-12) scale(1,1)"><g><path fill="none" stroke="none"/><text fill="#000000" stroke="none" font-family="Arial" font-size="13px" font-style="normal" font-weight="normal" text-decoration="none" x="326" y="165">0..1</text></g></g><g transform="translate(2,-12) scale(1,1)"><rect fill="#e6e6ff" stroke="none" x="224" y="200" width="168.48193359375" height="24"/></g><g transform="translate(2,-12) scale(1,1)"><path fill="none" stroke="#000000" d="M 224 200 L 392.48193359375 200 L 392.48193359375 224 L 224 224 L 224 200 Z Z" stroke-miterlimit="10"/></g><g transform="translate(2,-12) scale(1,1)"><g><path fill="none" stroke="none"/><text fill="#000000" stroke="none" font-family="Arial" font-size="13px" font-style="normal" font-weight="bold" text-decoration="none" x="238.740966796875" y="219.5">pmopb:SecondaryAgent</text></g></g><g transform="translate(2,-12) scale(1,1)"><path fill="none" stroke="#000000" d="M 224 208 L 216 208 L 216 192 L 104 192 L 104 168" stroke-miterlimit="10"/></g><g transform="translate(2,-12) scale(1,1)"><path fill="#FFFFFF" stroke="none" d="M 112.41903551203198 188.3253497152483 L 104 168 L 95.58096448796803 188.3253497152483"/></g><g transform="translate(2,-12) scale(1,1)"><path fill="none" stroke="#000000" d="M 112.41903551203198 188.3253497152483 L 104 168 L 95.58096448796803 188.3253497152483 L 112.41903551203198 188.3253497152483" stroke-miterlimit="10"/></g><g transform="translate(2,-12) scale(1,1)"><rect fill="#99ffcc" stroke="none" x="8" y="96" width="132.4970703125" height="24"/></g><g transform="translate(2,-12) scale(1,1)"><path fill="none" stroke="#000000" d="M 8 96 L 140.4970703125 96 L 140.4970703125 120 L 8 120 L 8 96 Z Z" stroke-miterlimit="10"/></g><g transform="translate(2,-12) scale(1,1)"><g><path fill="none" stroke="none"/><text fill="#000000" stroke="none" font-family="Arial" font-size="13px" font-style="normal" font-weight="bold" text-decoration="none" x="19.24853515625" y="115.5">pmo:SemanticRole</text></g></g><g transform="translate(2,-12) scale(1,1)"><rect fill="#99ffcc" stroke="none" x="8" y="40" width="139.212890625" height="24"/></g><g transform="translate(2,-12) scale(1,1)"><path fill="none" stroke="#000000" d="M 8 40 L 147.212890625 40 L 147.212890625 64 L 8 64 L 8 40 Z Z" stroke-miterlimit="10"/></g><g transform="translate(2,-12) scale(1,1)"><g><path fill="none" stroke="none"/><text fill="#000000" stroke="none" font-family="Arial" font-size="13px" font-style="normal" font-weight="bold" text-decoration="none" x="19.1064453125" y="59.5">pmo:SemanticClass</text></g></g><g transform="translate(2,-12) scale(1,1)"><path fill="none" stroke="#000000" d="M 20 64 L 20 96" stroke-miterlimit="10"/></g><g transform="translate(2,-12) scale(1,1)"><path fill="none" stroke="#000000" d="M 15.790482243984012 85.83732514237585 L 20 96 L 24.209517756015988 85.83732514237585" stroke-miterlimit="10"/></g><g transform="translate(2,-12) scale(1,1)"><g><path fill="none" stroke="none"/><text fill="#000000" stroke="none" font-family="Arial" font-size="13px" font-style="normal" font-weight="normal" text-decoration="none" x="22" y="93">pmo:semRole</text></g></g><g transform="translate(2,-12) scale(1,1)"><g><path fill="none" stroke="none"/><text fill="#000000" stroke="none" font-family="Arial" font-size="13px" font-style="normal" font-weight="normal" text-decoration="none" x="24" y="76">1</text></g></g><g transform="translate(2,-12) scale(1,1)"><path fill="none" stroke="#000000" d="M 192 52 L 147 52" stroke-miterlimit="10"/></g><g transform="translate(2,-12) scale(1,1)"><path fill="#FFFFFF" stroke="none" d="M 167.3253497152483 43.580964487968025 L 147 52 L 167.3253497152483 60.419035512031975"/></g><g transform="translate(2,-12) scale(1,1)"><path fill="none" stroke="#000000" d="M 167.3253497152483 43.580964487968025 L 147 52 L 167.3253497152483 60.419035512031975 L 167.3253497152483 43.580964487968025" stroke-miterlimit="10"/></g><g transform="translate(2,-12) scale(1,1)"><path fill="none" stroke="#000000" d="M 184 112 L 140 112" stroke-miterlimit="10"/></g><g transform="translate(2,-12) scale(1,1)"><path fill="#FFFFFF" stroke="none" d="M 160.3253497152483 103.58096448796803 L 140 112 L 160.3253497152483 120.41903551203197"/></g><g transform="translate(2,-12) scale(1,1)"><path fill="none" stroke="#000000" d="M 160.3253497152483 103.58096448796803 L 140 112 L 160.3253497152483 120.41903551203197 L 160.3253497152483 103.58096448796803" stroke-miterlimit="10"/></g><g transform="translate(2,-12) scale(1,1)"><path fill="none" stroke="#000000" d="M 192 135 L 192 144 L 144 144" stroke-miterlimit="10"/></g><g transform="translate(2,-12) scale(1,1)"><path fill="none" stroke="#000000" d="M 154.16267485762415 139.790482243984 L 144 144 L 154.16267485762415 148.209517756016" stroke-miterlimit="10"/></g><g transform="translate(2,-12) scale(1,1)"><g><path fill="none" stroke="none"/><text fill="#000000" stroke="none" font-family="Arial" font-size="13px" font-style="normal" font-weight="normal" text-decoration="none" x="80" y="139">pmopb:argument</text></g></g><g transform="translate(2,-12) scale(1,1)"><g><path fill="none" stroke="none"/><text fill="#000000" stroke="none" font-family="Arial" font-size="13px" font-style="normal" font-weight="normal" text-decoration="none" x="153" y="156">1</text></g></g><g transform="translate(2,-12) scale(1,1)"><rect fill="#ffffcc" stroke="none" x="368" y="168" width="105.9638671875" height="24"/></g><g transform="translate(2,-12) scale(1,1)"><path fill="none" stroke="#000000" d="M 368 168 L 473.9638671875 168 L 473.9638671875 192 L 368 192 L 368 168 Z Z" stroke-miterlimit="10"/></g><g transform="translate(2,-12) scale(1,1)"><g><path fill="none" stroke="none"/><text fill="#000000" stroke="none" font-family="Arial" font-size="13px" font-style="normal" font-weight="bold" text-decoration="none" x="380.98193359375" y="187.5">nif:Annotation</text></g></g></g></svg>